<?xml version="1.0" encoding="UTF-8"?>
<svg id="Calque_2" data-name="Calque 2" xmlns="http://www.w3.org/2000/svg" viewBox="0 0 114.38 111.44">
  <defs>
    <style>
      .cls-1 {
        fill-rule: evenodd;
      }

      .cls-1, .cls-2 {
        stroke-width: 0px;
      }
    </style>
  </defs>
  <g>
    <path class="cls-2" d="m37.98,18.56c7.47,0,13.53,6.06,13.53,13.53s-6.06,13.53-13.53,13.53-13.53-6.06-13.53-13.53,6.06-13.53,13.53-13.53m0-3c-9.12,0-16.53,7.42-16.53,16.53s7.42,16.53,16.53,16.53,16.53-7.42,16.53-16.53-7.42-16.53-16.53-16.53h0Z"/>
    <path class="cls-2" d="m34.56,35.85c-.17-.14-.39-.22-.63-.23-.57.04-1,.53-1,1.11,0,.26.1.51.28.7,1.11,1.03,2.54,1.63,4.03,1.71v1.1c0,.45.4.84.83.81.43,0,.79-.36.79-.81v-1.13c3.06-.26,4.16-2.29,4.16-4.12,0-2.66-2.13-3.51-4.16-4.08v-3.66c.74.15,1.44.48,2.05.95.15.11.33.16.52.17.58,0,1.05-.48,1.06-1.07,0-.26-.1-.51-.28-.7-.94-.82-2.12-1.33-3.35-1.42v-1.19c0-.44-.35-.81-.77-.81-.45-.04-.85.35-.85.81v1.15c-2.42.22-4.1,1.81-4.1,3.9,0,2.5,1.93,3.27,4.1,3.88v4.2c-.99-.16-1.91-.59-2.67-1.25h0Zm4.3-2.45c1.17.36,1.93.82,1.92,1.83,0,.78-.51,1.67-1.92,1.9v-3.73Zm-3.47-4.51c0-.93.72-1.6,1.86-1.74v3.32c-1.06-.33-1.86-.68-1.86-1.59Z"/>
  </g>
  <g>
    <path class="cls-1" d="m38.11,88.48v-11.74c0-2.43-1.97-4.4-4.4-4.4h-5.87c-2.43,0-4.4,1.97-4.4,4.4v11.74c0,2.43,1.97,4.4,4.4,4.4h5.87c2.43,0,4.4-1.97,4.4-4.4Zm-2.94-11.74v11.74c0,.81-.66,1.47-1.47,1.47h-5.87c-.81,0-1.47-.66-1.47-1.47v-11.74c0-.81.66-1.47,1.47-1.47h5.87c.81,0,1.47.66,1.47,1.47Z"/>
    <path class="cls-1" d="m55.72,70.87c0-2.43-1.97-4.4-4.4-4.4h-5.87c-2.43,0-4.4,1.97-4.4,4.4v17.61c0,2.43,1.97,4.4,4.4,4.4h5.87c2.43,0,4.4-1.97,4.4-4.4v-17.61Zm-2.94,0v17.61c0,.81-.66,1.47-1.47,1.47h-5.87c-.81,0-1.47-.66-1.47-1.47v-17.61c0-.81.66-1.47,1.47-1.47h5.87c.81,0,1.47.66,1.47,1.47Z"/>
    <path class="cls-1" d="m73.33,65c0-1.17-.46-2.29-1.29-3.11-.83-.83-1.95-1.29-3.11-1.29h-5.87c-1.17,0-2.29.46-3.11,1.29-.83.83-1.29,1.95-1.29,3.11v23.48c0,1.17.46,2.29,1.29,3.11.83.83,1.95,1.29,3.11,1.29h5.87c1.17,0,2.29-.46,3.11-1.29.83-.83,1.29-1.95,1.29-3.11v-23.48Zm-2.94,0v23.48c0,.39-.15.76-.43,1.04-.27.28-.65.43-1.04.43h-5.87c-.39,0-.76-.15-1.04-.43-.28-.28-.43-.65-.43-1.04v-23.48c0-.39.15-.76.43-1.04.27-.28.65-.43,1.04-.43h5.87c.39,0,.76.15,1.04.43.28.28.43.65.43,1.04Z"/>
    <path class="cls-1" d="m90.95,59.13c0-1.17-.46-2.29-1.29-3.11-.83-.83-1.95-1.29-3.11-1.29h-5.87c-1.17,0-2.29.46-3.11,1.29-.83.82-1.29,1.94-1.29,3.11v29.35c0,1.17.46,2.29,1.29,3.11.83.83,1.95,1.29,3.11,1.29h5.87c1.17,0,2.29-.46,3.11-1.29.83-.82,1.29-1.94,1.29-3.11v-29.35Zm-2.94,0v29.35c0,.39-.15.77-.43,1.04-.27.28-.65.43-1.04.43h-5.87c-.39,0-.76-.15-1.04-.43-.28-.27-.43-.65-.43-1.04v-29.35c0-.39.15-.77.43-1.04.27-.28.65-.43,1.04-.43h5.87c.39,0,.76.15,1.04.43.28.27.43.65.43,1.04Z"/>
    <path class="cls-1" d="m85.94,40.05l-14.68,14.68h-11.13c-.39,0-.76.15-1.04.43l-5.44,5.44h-11.13c-.39,0-.76.15-1.04.43l-5.44,5.44h-11.13c-.81,0-1.47.66-1.47,1.47s.66,1.47,1.47,1.47h11.74c.39,0,.76-.15,1.04-.43l5.44-5.44h11.13c.39,0,.76-.15,1.04-.43l5.44-5.44h11.13c.39,0,.76-.15,1.04-.43l15.11-15.11v5.26c0,.81.66,1.47,1.47,1.47s1.47-.66,1.47-1.47v-8.81c0-.81-.66-1.47-1.47-1.47h-8.81c-.81,0-1.47.66-1.47,1.47s.66,1.47,1.47,1.47h5.26Z"/>
  </g>
</svg>