<svg width="851" height="1123" viewBox="0 0 851 1123" fill="none" xmlns="http://www.w3.org/2000/svg">
<circle cx="459.478" cy="921.478" r="141.544" transform="rotate(22.645 459.478 921.478)" stroke="white" stroke-width="25"/>
<circle cx="477.02" cy="964.133" r="18.735" transform="rotate(22.645 477.02 964.133)" fill="white"/>
<circle cx="415.542" cy="938.486" r="18.735" transform="rotate(22.645 415.542 938.486)" fill="white"/>
<circle cx="502.667" cy="902.655" r="18.735" transform="rotate(22.645 502.667 902.655)" fill="white"/>
<circle cx="441.189" cy="877.008" r="18.735" transform="rotate(22.645 441.189 877.008)" fill="white"/>
<path d="M280.217 234.698H241.544L277.062 199.195C278.064 198.193 278.859 197.004 279.401 195.695C279.943 194.386 280.223 192.983 280.223 191.566C280.223 190.149 279.943 188.746 279.401 187.437C278.859 186.128 278.064 184.939 277.062 183.937C276.061 182.935 274.871 182.14 273.562 181.598C272.253 181.056 270.85 180.777 269.433 180.777C268.016 180.777 266.613 181.056 265.304 181.598C263.995 182.14 262.806 182.935 261.804 183.937L226.299 219.453V180.783C226.299 177.923 225.163 175.18 223.141 173.158C221.119 171.136 218.376 170 215.516 170C212.656 170 209.913 171.136 207.891 173.158C205.869 175.18 204.732 177.923 204.732 180.783V224.683C188.301 215.198 169.201 211.394 150.389 213.86C131.578 216.325 114.104 224.924 100.672 238.323C46.6203 291.416 5.98026 417.698 2.01735 430.327C0.148889 434.338 -0.44077 438.826 0.328348 443.183C1.09747 447.54 3.18814 451.555 6.31681 454.684C9.44548 457.812 13.4607 459.903 17.818 460.672C22.1752 461.441 26.6636 460.851 30.6743 458.983C43.3044 455.02 169.754 414.328 222.714 360.305C236.105 346.871 244.694 329.398 247.152 310.59C249.611 291.782 245.802 272.688 236.314 256.264H280.217C283.077 256.264 285.819 255.127 287.842 253.105C289.864 251.083 291 248.34 291 245.481C291 242.621 289.864 239.878 287.842 237.856C285.819 235.834 283.077 234.698 280.217 234.698ZM207.267 345.223C195.216 357.515 178.623 369.215 160.291 379.903L126.081 345.681C125.079 344.679 123.889 343.884 122.58 343.342C121.271 342.8 119.868 342.521 118.452 342.521C117.035 342.521 115.632 342.8 114.323 343.342C113.014 343.884 111.824 344.679 110.822 345.681C109.82 346.683 109.026 347.872 108.483 349.181C107.941 350.49 107.662 351.893 107.662 353.31C107.662 354.727 107.941 356.13 108.483 357.439C109.026 358.748 109.82 359.937 110.822 360.939L140.598 390.713C85.5081 419.275 24.2447 438.455 23.3281 438.738C22.6643 438.953 22.0233 439.233 21.4141 439.573C21.7397 438.967 22.0061 438.331 22.2093 437.673C22.6002 436.419 59.9514 316.931 108.477 261.547L153.996 307.065C156.02 309.088 158.764 310.225 161.626 310.225C164.487 310.225 167.232 309.088 169.255 307.065C171.278 305.041 172.415 302.297 172.415 299.436C172.415 296.574 171.278 293.83 169.255 291.807L124.099 246.667C137.329 237.254 153.615 233.16 169.723 235.196C185.832 237.232 200.586 245.251 211.057 257.659C221.528 270.068 226.951 285.96 226.248 302.181C225.546 318.401 218.771 333.765 207.267 345.223Z" fill="white"/>
<path d="M471.902 49.9887C478.681 39.4226 489.362 31.9712 501.597 29.2738C513.831 26.5764 526.617 28.8539 537.14 35.6053L735.536 162.886C746.059 169.637 753.459 180.309 756.107 192.555C758.755 204.8 756.435 217.615 749.656 228.181L724.097 268.021C717.319 278.587 706.637 286.038 694.403 288.736C682.168 291.433 669.383 289.156 658.859 282.404L460.463 155.124C449.94 148.372 442.54 137.7 439.892 125.455C437.244 113.21 439.564 100.394 446.343 89.8281L471.902 49.9887Z" stroke="white" stroke-width="25" stroke-linecap="round" stroke-linejoin="round"/>
<path d="M737.087 248.236L756.937 260.97C767.466 267.725 774.878 278.389 777.544 290.615C780.209 302.842 777.909 315.63 771.149 326.166C754.25 352.507 727.587 371.061 697.025 377.746C666.463 384.431 634.506 378.699 608.184 361.812L508.936 298.14L483.449 337.867M431.006 332.262C434.386 326.994 439.719 323.283 445.831 321.946C451.943 320.609 458.335 321.755 463.599 325.133L503.298 350.602C508.563 353.979 512.269 359.311 513.602 365.424C514.934 371.537 513.784 377.932 510.405 383.2L459.431 462.654C456.051 467.922 450.718 471.633 444.606 472.97C438.493 474.307 432.102 473.161 426.838 469.783L387.138 444.314C381.874 440.937 378.168 435.605 376.835 429.492C375.502 423.379 376.652 416.984 380.032 411.716L431.006 332.262Z" stroke="white" stroke-width="25" stroke-linecap="round" stroke-linejoin="round"/>
</svg>
