<?xml version="1.0" encoding="UTF-8" standalone="no"?>
<!DOCTYPE svg PUBLIC "-//W3C//DTD SVG 1.1//EN" "http://www.w3.org/Graphics/SVG/1.1/DTD/svg11.dtd">
<svg
    xmlns="http://www.w3.org/2000/svg"
    fillRule="evenodd"
    strokeLinejoin="round"
    strokeMiterlimit="2"
    clipRule="evenodd"
    viewBox="0 0 87 123"
>
    <path
    fill="#EE6603"
    d="M27.81 96.57c4.42 7.04 9.2 15.57 13.92 23.86 1.75 3.06 3.33 3.52 5.43-.11 4.56-7.91 9.04-16.1 13.76-23.74 14.33-23.19 37.78-45.8 19.13-77.01C63.49-8.14 18.45-5.18 4.98 20.62c-15.44 29.57 8.67 53.41 22.83 75.95z"
    ></path>
    <path
    fill="#fff"
    d="M43.46 25.59c9.31 0 16.86 7.55 16.86 16.86 0 9.31-7.55 16.86-16.86 16.86-9.31 0-16.86-7.55-16.86-16.86 0-9.31 7.55-16.86 16.86-16.86z"
    ></path>
</svg>