<?xml version="1.0" encoding="UTF-8"?>
<svg id="Calque_2" data-name="Calque 2" xmlns="http://www.w3.org/2000/svg" viewBox="0 0 114.38 111.44">
  <defs>
    <style>
      .cls-1, .cls-2, .cls-3, .cls-4 {
        stroke-width: 0px;
      }

      .cls-2 {
        fill: #1d3196;
      }

      .cls-3 {
        fill: #fff;
      }

      .cls-5 {
        fill: none;
        stroke: #000;
        stroke-linecap: round;
        stroke-linejoin: round;
        stroke-width: 3px;
      }

      .cls-4 {
        fill: #c90d16;
      }
    </style>
  </defs>
  <path class="cls-5" d="m51.53,80.9c-8.28-1.44-15.88-2.15-22.6-2.43,1.21-2.2,4.25-11.85,1.14-24.1-3.61-14.23-10.99-19.09-12.83-20.03,5.03-.12,11.78-2.59,21.62-7.76,7.19-3.78,12.12-8.45,15.13-11.81,2.76,3.2,7.23,7.63,13.71,11.48,6.54,3.88,12.62,5.67,16.77,6.55-.87,2.34-1.75,4.86-2.6,7.55"/>
  <rect class="cls-2" x="66.23" y="52.96" width="9.3" height="19.17"/>
  <rect class="cls-3" x="75.54" y="52.96" width="9.3" height="19.17"/>
  <rect class="cls-4" x="84.84" y="52.96" width="9.3" height="19.17"/>
  <path class="cls-1" d="m63.38,93.6h3.08c1.33,0,2.41,1.08,2.41,2.41v.11c0,.3-.24.54-.54.54h-6.83c-.3,0-.54-.24-.54-.54v-.11c0-1.33,1.08-2.41,2.41-2.41Z"/>
  <path class="cls-1" d="m95.9,50.99c-2.59-1.16-7.8-1.23-10.21-.84-1.44.23-3.25.62-3.25.62-.87.19-1.17.27-1.9.43-1.01.21-2.27.46-3.98.74-3.25.54-4.42.59-5.66.51-1.3-.09-2.58-.33-3.84-.72-.28-.09-.56-.12-.84-.12v-1.07c0-.82-.67-1.49-1.49-1.49s-1.49.67-1.49,1.49v4.08s0,0,0,0v39.25c0,.83.67,1.5,1.5,1.5s1.5-.67,1.5-1.5v-19.51c.09.02.18.04.27.06,2.82.56,5.99.61,9.67.13,1.56-.2,2.2-.36,2.94-.55.71-.18,1.58-.41,3.74-.76,3.04-.5,5.58-.76,7.19-.71,1.77.04,3.54.27,5.27.67.94.22,1.84-.49,1.84-1.46v-19.26c0-.73-.58-1.18-1.25-1.48Zm-1.75,18.91c-1.33-.22-2.68-.35-4.03-.38-1.81-.05-4.49.21-7.75.75-2.29.38-3.24.62-4,.82-.69.18-1.2.31-2.57.48-3.36.43-6.2.4-8.7-.1-.25-.05-.55-.12-.85-.2v-16.66c1.46.45,2.95.72,4.46.83,1.67.11,3.16-.01,6.35-.54,3.07-.51,4.8-.91,6.07-1.21,1.07-.25,1.85-.43,2.94-.57,2.56-.32,5.28-.17,8.09.44v16.34Z"/>
</svg>