<svg width="23" height="21" viewBox="0 0 23 21" fill="none" xmlns="http://www.w3.org/2000/svg">
<path d="M6.17283 8.96609L3.59489 10.9814C3.50787 11.0494 3.38217 11.034 3.31414 10.947L1.29883 8.36908" stroke="#737680" stroke-width="1.5" stroke-linecap="round"/>
<path d="M9.97391 18.4761C9.58337 18.338 9.15488 18.5427 9.01685 18.9332C8.87881 19.3238 9.0835 19.7523 9.47404 19.8903L9.97391 18.4761ZM21.2501 10.5C21.2501 15.1707 17.4637 18.9571 12.793 18.9571V20.4571C18.2921 20.4571 22.7501 15.9992 22.7501 10.5H21.2501ZM4.33594 10.5C4.33594 5.82932 8.12229 2.04297 12.793 2.04297V0.542969C7.29386 0.542969 2.83594 5.0009 2.83594 10.5H4.33594ZM12.793 2.04297C17.4637 2.04297 21.2501 5.82932 21.2501 10.5H22.7501C22.7501 5.0009 18.2921 0.542969 12.793 0.542969V2.04297ZM12.793 18.9571C11.8032 18.9571 10.8547 18.7874 9.97391 18.4761L9.47404 19.8903C10.5131 20.2576 11.6306 20.4571 12.793 20.4571V18.9571Z" fill="#737680"/>
<path d="M12.1787 6.20337V10.9138C12.1787 11.0243 12.2683 11.1138 12.3787 11.1138H16.4753" stroke="#737680" stroke-width="1.5" stroke-linecap="round"/>
</svg>
