<svg width="357" height="332" viewBox="0 0 357 332" fill="none" xmlns="http://www.w3.org/2000/svg">
  <defs>
    <filter id="inner-shadow" x="-20%" y="-20%" width="140%" height="140%">
      <feComponentTransfer in="SourceAlpha">
        <feFuncA type="table" tableValues="1 0" />
      </feComponentTransfer>
      <feGaussianBlur stdDeviation="5" />
      <feOffset dx="0" dy="0" result="offsetblur" />
      <feFlood flood-color="#E1E1E1" result="color" />
      <feComposite in2="offsetblur" operator="in" />
      <feComposite in2="SourceAlpha" operator="in" />
      <feMerge>
        <feMergeNode in="SourceGraphic" />
        <feMergeNode />
      </feMerge>
    </filter>
  </defs>
  <g filter="url(#inner-shadow)">
    <path d="M21.2396 88.6488L67.356 84.0328C75.0665 98.5555 90.9674 108.087 108.519 106.33C126.071 104.573 139.802 92.4234 144.446 76.3165L317.211 59.0237C325.814 58.1625 332.008 50.5905 331.147 41.9867C330.286 33.3829 322.714 27.1888 314.11 28.05L141.346 45.3428C133.566 30.1319 117.7 20.9444 100.148 22.7013C82.5965 24.4581 68.8659 36.6081 64.2213 52.715L18.1049 57.331C9.50108 58.1922 3.307 65.7642 4.16819 74.368C5.02939 82.9718 12.6358 89.51 21.2396 88.6488Z" fill="#FAFAFA"/>
    <path d="M324.892 135.77L278.776 140.386C271.065 125.863 255.164 116.331 237.613 118.088C220.061 119.845 206.33 131.995 201.686 148.102L28.9213 165.395C20.3175 166.256 14.1234 173.828 14.9846 182.432C15.8458 191.036 23.4178 197.23 32.0216 196.368L204.786 179.076C212.496 193.598 228.397 203.13 245.949 201.373C263.501 199.616 277.232 187.466 281.876 171.359L327.992 166.743C336.596 165.882 342.79 158.31 341.929 149.706C341.068 141.102 333.496 134.908 324.892 135.77Z" fill="#FAFAFA"/>
    <path d="M335.674 243.489L162.91 260.782C155.2 246.259 139.299 236.728 121.747 238.485C104.195 240.241 90.4645 252.391 85.8199 268.498L39.7035 273.114C31.0997 273.976 24.9056 281.548 25.7668 290.151C26.628 298.755 34.2 304.949 42.8038 304.088L88.9202 299.472C96.6307 313.995 112.532 323.526 130.083 321.769C147.635 320.013 161.366 307.863 166.01 291.756L338.775 274.463C347.379 273.602 353.573 266.03 352.711 257.426C351.85 248.822 344.278 242.628 335.674 243.489Z" fill="#FAFAFA"/>
  </g>
</svg>