<svg width="19" height="19" viewBox="0 0 19 19" fill="none" xmlns="http://www.w3.org/2000/svg">
<path fill-rule="evenodd" clip-rule="evenodd" d="M5.46581 0H13.5342C14.0379 0 14.4656 6.58423e-09 14.8182 0.0362326C15.1947 0.0751163 15.5429 0.159953 15.8716 0.363209C16.1995 0.566465 16.431 0.839535 16.6343 1.15856C16.8243 1.45902 17.016 1.84079 17.2414 2.29149L17.2555 2.32065C17.2644 2.33833 17.2723 2.35512 17.2794 2.37367L18.5193 5.50823C18.6677 5.88205 18.8312 6.34777 18.8789 6.82321C18.9275 7.31102 18.8613 7.86865 18.4786 8.35205C18.1616 8.75471 17.7255 9.04698 17.2326 9.18716V17.6744H18.3372C18.513 17.6744 18.6816 17.7442 18.8059 17.8685C18.9302 17.9928 19 18.1614 19 18.3372C19 18.513 18.9302 18.6816 18.8059 18.8059C18.6816 18.9302 18.513 19 18.3372 19H0.662791C0.487008 19 0.318424 18.9302 0.194127 18.8059C0.0698296 18.6816 0 18.513 0 18.3372C0 18.1614 0.0698296 17.9928 0.194127 17.8685C0.318424 17.7442 0.487008 17.6744 0.662791 17.6744H1.76744V9.18716C1.27464 9.04716 0.838591 8.75522 0.521395 8.35293C0.139628 7.86865 0.0724651 7.31014 0.12107 6.82409C0.168791 6.34688 0.333163 5.88205 0.47986 5.50823L1.7206 2.37279C1.72778 2.35477 1.73574 2.33708 1.74447 2.31977L1.7586 2.29149C1.98395 1.84079 2.17484 1.45814 2.36572 1.15856C2.56898 0.839535 2.80051 0.566465 3.12837 0.363209C3.45712 0.159953 3.8053 0.0751163 4.18088 0.0362326C4.53437 6.58423e-09 4.96209 0 5.46581 0ZM14.8023 8.51642C15.1031 8.83592 15.4849 9.06801 15.907 9.18805V17.6744H12.3721V15.2159C12.3721 14.8271 12.3721 14.4913 12.3473 14.2173C12.3208 13.9257 12.2625 13.6376 12.1061 13.3663C11.9315 13.0638 11.6803 12.8127 11.3779 12.6381C11.1066 12.4817 10.8185 12.4233 10.5278 12.3968C10.252 12.3721 9.91712 12.3721 9.52916 12.3721H9.47172C9.08288 12.3721 8.74707 12.3721 8.47312 12.3968C8.18149 12.4233 7.8934 12.4817 7.62209 12.6381C7.31963 12.8127 7.06848 13.0638 6.89391 13.3663C6.73749 13.6376 6.67916 13.9257 6.65265 14.2164C6.62791 14.4921 6.62791 14.8271 6.62791 15.215V17.6744H3.09302V9.18716C3.51503 9.06738 3.89674 8.8356 4.19767 8.51642C4.42455 8.75754 4.69843 8.94961 5.00242 9.08078C5.3064 9.21195 5.63404 9.27943 5.96512 9.27907C6.66149 9.27907 7.28981 8.98656 7.73256 8.51642C7.95943 8.75754 8.23331 8.94961 8.5373 9.08078C8.84128 9.21195 9.16892 9.27943 9.5 9.27907C9.83109 9.27954 10.1588 9.2121 10.4628 9.08093C10.7668 8.94975 11.0406 8.75762 11.2674 8.51642C11.4943 8.75754 11.7682 8.94961 12.0722 9.08078C12.3762 9.21195 12.7038 9.27943 13.0349 9.27907C13.366 9.27954 13.6936 9.2121 13.9976 9.08093C14.3016 8.94975 14.5755 8.75762 14.8023 8.51642ZM7.95349 17.6744H11.0465V15.2442C11.0465 14.8191 11.0465 14.5443 11.0271 14.3366C11.0094 14.1378 10.9785 14.0653 10.9573 14.0291C10.8991 13.9285 10.8156 13.845 10.7151 13.7869C10.6798 13.7657 10.6064 13.7357 10.4076 13.7171C10.1054 13.6985 9.80266 13.692 9.5 13.6977C9.07493 13.6977 8.80009 13.6977 8.59242 13.7171C8.39358 13.7348 8.32112 13.7657 8.28488 13.7869C8.18435 13.845 8.10085 13.9285 8.04274 14.0291C8.02153 14.0644 7.9906 14.1378 7.97293 14.3366C7.95437 14.5443 7.95349 14.8191 7.95349 15.2442V17.6744ZM4.86047 6.84884C4.86047 7.14181 4.97685 7.42278 5.18401 7.62994C5.39117 7.83711 5.67214 7.95349 5.96512 7.95349C6.25809 7.95349 6.53906 7.83711 6.74622 7.62994C6.95338 7.42278 7.06977 7.14181 7.06977 6.84884C7.06977 6.67305 7.1396 6.50447 7.26389 6.38017C7.38819 6.25588 7.55678 6.18605 7.73256 6.18605C7.90834 6.18605 8.07692 6.25588 8.20122 6.38017C8.32552 6.50447 8.39535 6.67305 8.39535 6.84884C8.39535 7.14181 8.51173 7.42278 8.71889 7.62994C8.92606 7.83711 9.20703 7.95349 9.5 7.95349C9.79297 7.95349 10.0739 7.83711 10.2811 7.62994C10.4883 7.42278 10.6047 7.14181 10.6047 6.84884C10.6047 6.67305 10.6745 6.50447 10.7988 6.38017C10.9231 6.25588 11.0917 6.18605 11.2674 6.18605C11.4432 6.18605 11.6118 6.25588 11.7361 6.38017C11.8604 6.50447 11.9302 6.67305 11.9302 6.84884C11.9302 7.14181 12.0466 7.42278 12.2538 7.62994C12.4609 7.83711 12.7419 7.95349 13.0349 7.95349C13.3279 7.95349 13.6088 7.83711 13.816 7.62994C14.0232 7.42278 14.1395 7.14181 14.1395 6.84884C14.1395 6.67305 14.2094 6.50447 14.3337 6.38017C14.458 6.25588 14.6265 6.18605 14.8023 6.18605C14.9781 6.18605 15.1467 6.25588 15.271 6.38017C15.3953 6.50447 15.4651 6.67305 15.4651 6.84884C15.4652 7.07842 15.5368 7.30228 15.67 7.48929C15.8032 7.6763 15.9913 7.81716 16.2083 7.89229C16.4252 7.96743 16.6602 7.9731 16.8805 7.90852C17.1008 7.84394 17.2955 7.71232 17.4376 7.53195C17.5383 7.4047 17.5878 7.22972 17.5595 6.95577C17.5313 6.67121 17.4261 6.34777 17.2873 5.99605L16.0572 2.88712C15.8204 2.41433 15.6622 2.1006 15.5155 1.87084C15.3741 1.64814 15.2733 1.55181 15.1744 1.49084C15.0763 1.42898 14.9446 1.38214 14.6821 1.35474C14.4047 1.32647 14.0459 1.32558 13.5015 1.32558H5.49851C4.95326 1.32558 4.59447 1.32558 4.31786 1.35474C4.0554 1.38214 3.92372 1.42986 3.82563 1.49084C3.72665 1.55181 3.62591 1.64814 3.48451 1.87084C3.33693 2.1006 3.17963 2.41433 2.94279 2.88712L1.71265 5.99605C1.57391 6.34777 1.46874 6.67121 1.44047 6.95577C1.41307 7.22972 1.46167 7.4047 1.56242 7.53195C1.70447 7.71232 1.89919 7.84394 2.11951 7.90852C2.33983 7.9731 2.57479 7.96743 2.79174 7.89229C3.00868 7.81716 3.19683 7.6763 3.33001 7.48929C3.4632 7.30228 3.53481 7.07842 3.53488 6.84884C3.53488 6.67305 3.60471 6.50447 3.72901 6.38017C3.85331 6.25588 4.02189 6.18605 4.19767 6.18605C4.37346 6.18605 4.54204 6.25588 4.66634 6.38017C4.79064 6.50447 4.86047 6.67305 4.86047 6.84884Z" fill="#737680"/>
</svg>
