<?xml version="1.0" encoding="UTF-8"?>
<svg id="Calque_2" data-name="Calque 2" xmlns="http://www.w3.org/2000/svg" viewBox="0 0 114.38 111.44">
  <defs>
    <style>
      .cls-1, .cls-2 {
        fill: none;
        stroke: #000;
        stroke-linejoin: round;
        stroke-width: 3px;
      }

      .cls-2 {
        stroke-linecap: round;
      }
    </style>
  </defs>
  <rect class="cls-2" x="21.08" y="57.21" width="14.24" height="11.11" rx="5.55" ry="5.55" transform="translate(-36.12 38.32) rotate(-45)"/>
  <path class="cls-1" d="m78.69,47.55l11.8,11.8c2.17,2.17,2.17,5.68,0,7.85h0c-2.17,2.17-5.68,2.17-7.85,0l-11.8-11.8"/>
  <path class="cls-1" d="m70.83,55.4l11.8,11.8c2.17,2.17,2.17,5.68,0,7.85h0c-2.17,2.17-5.68,2.17-7.85,0l-11.8-11.8"/>
  <path class="cls-1" d="m62.98,63.26l11.8,11.8c2.17,2.17,2.17,5.68,0,7.85h0c-2.17,2.17-5.68,2.17-7.85,0l-11.8-11.8"/>
  <path class="cls-1" d="m55.13,71.11l11.8,11.8c2.17,2.17,2.17,5.68,0,7.85h0c-2.17,2.17-6.51,1.74-8.68-.43"/>
  <rect class="cls-2" x="29.48" y="65.61" width="14.24" height="11.11" rx="5.55" ry="5.55" transform="translate(-39.6 46.73) rotate(-45)"/>
  <rect class="cls-2" x="37.74" y="73.87" width="14.24" height="11.11" rx="5.55" ry="5.55" transform="translate(-43.02 54.98) rotate(-45)"/>
  <rect class="cls-2" x="46.55" y="82.12" width="13.12" height="11.11" rx="5.55" ry="5.55" transform="translate(-46.44 63.24) rotate(-45)"/>
  <path class="cls-2" d="m24.45,58.64c-5.16-4.26-8.45-10.71-8.45-17.92,0-12.83,10.4-23.22,23.22-23.22,7.21,0,13.37,3.53,17.91,8.44l33.32,33.32"/>
  <path class="cls-1" d="m56.89,25.68c4.33-5.01,10.73-8.18,17.88-8.18,13.04,0,23.62,10.57,23.62,23.62,0,7.15-3.17,13.55-8.19,17.88"/>
</svg>