<svg width="28" height="22" viewBox="0 0 28 22" fill="none" xmlns="http://www.w3.org/2000/svg">
<path fill-rule="evenodd" clip-rule="evenodd" d="M1.47368 22C1.08284 22 0.708001 21.8345 0.431632 21.5398C0.155263 21.2451 0 20.8454 0 20.4287C0 20.0119 0.155263 19.6123 0.431632 19.3176C0.708001 19.0229 1.08284 18.8574 1.47368 18.8574H26.5263C26.9172 18.8574 27.292 19.0229 27.5684 19.3176C27.8447 19.6123 28 20.0119 28 20.4287C28 20.8454 27.8447 21.2451 27.5684 21.5398C27.292 21.8345 26.9172 22 26.5263 22H1.47368ZM0 11.0008C0 11.4175 0.155263 11.8172 0.431632 12.1119C0.708001 12.4066 1.08284 12.5721 1.47368 12.5721H26.5263C26.9172 12.5721 27.292 12.4066 27.5684 12.1119C27.8447 11.8172 28 11.4175 28 11.0008C28 10.584 27.8447 10.1844 27.5684 9.8897C27.292 9.59502 26.9172 9.42947 26.5263 9.42947H1.47368C1.08284 9.42947 0.708001 9.59502 0.431632 9.8897C0.155263 10.1844 0 10.584 0 11.0008ZM0 1.57132C0 1.98806 0.155263 2.38772 0.431632 2.6824C0.708001 2.97708 1.08284 3.14263 1.47368 3.14263H26.5263C26.9172 3.14263 27.292 2.97708 27.5684 2.6824C27.8447 2.38772 28 1.98806 28 1.57132C28 1.15458 27.8447 0.754906 27.5684 0.460228C27.292 0.165548 26.9172 0 26.5263 0H1.47368C1.08284 0 0.708001 0.165548 0.431632 0.460228C0.155263 0.754906 0 1.15458 0 1.57132Z" fill="#000000"/>
</svg>
