<svg width="1877" height="1087" viewBox="0 0 1877 1087" fill="none" xmlns="http://www.w3.org/2000/svg">
<g clip-path="url(#clip0_47_19)">
<path d="M49.3052 6.61336C51.1305 6.61336 52.6102 5.13366 52.6102 3.30836C52.6102 1.48306 51.1305 0.00335693 49.3052 0.00335693C47.4799 0.00335693 46.0002 1.48306 46.0002 3.30836C46.0002 5.13366 47.4799 6.61336 49.3052 6.61336Z" fill="#E3E3E3"/>
<path d="M49.3052 96.6134C51.1305 96.6134 52.6102 95.1337 52.6102 93.3084C52.6102 91.4831 51.1305 90.0034 49.3052 90.0034C47.4799 90.0034 46.0002 91.4831 46.0002 93.3084C46.0002 95.1337 47.4799 96.6134 49.3052 96.6134Z" fill="#E3E3E3"/>
<path d="M49.3052 186.613C51.1305 186.613 52.6102 185.134 52.6102 183.308C52.6102 181.483 51.1305 180.003 49.3052 180.003C47.4799 180.003 46.0002 181.483 46.0002 183.308C46.0002 185.134 47.4799 186.613 49.3052 186.613Z" fill="#E3E3E3"/>
<path d="M49.3052 276.613C51.1305 276.613 52.6102 275.134 52.6102 273.308C52.6102 271.483 51.1305 270.003 49.3052 270.003C47.4799 270.003 46.0002 271.483 46.0002 273.308C46.0002 275.134 47.4799 276.613 49.3052 276.613Z" fill="#E3E3E3"/>
<path d="M49.3052 366.612C51.1305 366.612 52.6102 365.133 52.6102 363.307C52.6102 361.482 51.1305 360.002 49.3052 360.002C47.4799 360.002 46.0002 361.482 46.0002 363.307C46.0002 365.133 47.4799 366.612 49.3052 366.612Z" fill="#E3E3E3"/>
<path d="M49.3052 456.612C51.1305 456.612 52.6102 455.133 52.6102 453.307C52.6102 451.482 51.1305 450.002 49.3052 450.002C47.4799 450.002 46.0002 451.482 46.0002 453.307C46.0002 455.133 47.4799 456.612 49.3052 456.612Z" fill="#E3E3E3"/>
<path d="M49.3052 546.612C51.1305 546.612 52.6102 545.133 52.6102 543.307C52.6102 541.482 51.1305 540.002 49.3052 540.002C47.4799 540.002 46.0002 541.482 46.0002 543.307C46.0002 545.133 47.4799 546.612 49.3052 546.612Z" fill="#E3E3E3"/>
<path d="M49.3052 636.612C51.1305 636.612 52.6102 635.133 52.6102 633.307C52.6102 631.482 51.1305 630.002 49.3052 630.002C47.4799 630.002 46.0002 631.482 46.0002 633.307C46.0002 635.133 47.4799 636.612 49.3052 636.612Z" fill="#E3E3E3"/>
<path d="M49.3052 726.612C51.1305 726.612 52.6102 725.133 52.6102 723.307C52.6102 721.482 51.1305 720.002 49.3052 720.002C47.4799 720.002 46.0002 721.482 46.0002 723.307C46.0002 725.133 47.4799 726.612 49.3052 726.612Z" fill="#E3E3E3"/>
<path d="M49.3052 816.612C51.1305 816.612 52.6102 815.133 52.6102 813.307C52.6102 811.482 51.1305 810.002 49.3052 810.002C47.4799 810.002 46.0002 811.482 46.0002 813.307C46.0002 815.133 47.4799 816.612 49.3052 816.612Z" fill="#E3E3E3"/>
<path d="M49.3052 906.612C51.1305 906.612 52.6102 905.133 52.6102 903.307C52.6102 901.482 51.1305 900.002 49.3052 900.002C47.4799 900.002 46.0002 901.482 46.0002 903.307C46.0002 905.133 47.4799 906.612 49.3052 906.612Z" fill="#E3E3E3"/>
<path d="M49.3052 996.612C51.1305 996.612 52.6102 995.133 52.6102 993.307C52.6102 991.482 51.1305 990.002 49.3052 990.002C47.4799 990.002 46.0002 991.482 46.0002 993.307C46.0002 995.133 47.4799 996.612 49.3052 996.612Z" fill="#E3E3E3"/>
<path d="M49.3052 1086.61C51.1305 1086.61 52.6102 1085.13 52.6102 1083.31C52.6102 1081.48 51.1305 1080 49.3052 1080C47.4799 1080 46.0002 1081.48 46.0002 1083.31C46.0002 1085.13 47.4799 1086.61 49.3052 1086.61Z" fill="#E3E3E3"/>
<path d="M145.305 6.61336C147.131 6.61336 148.61 5.13366 148.61 3.30836C148.61 1.48306 147.131 0.00335693 145.305 0.00335693C143.48 0.00335693 142 1.48306 142 3.30836C142 5.13366 143.48 6.61336 145.305 6.61336Z" fill="#E3E3E3"/>
<path d="M145.305 96.6134C147.131 96.6134 148.61 95.1337 148.61 93.3084C148.61 91.4831 147.131 90.0034 145.305 90.0034C143.48 90.0034 142 91.4831 142 93.3084C142 95.1337 143.48 96.6134 145.305 96.6134Z" fill="#E3E3E3"/>
<path d="M145.305 186.613C147.131 186.613 148.61 185.134 148.61 183.308C148.61 181.483 147.131 180.003 145.305 180.003C143.48 180.003 142 181.483 142 183.308C142 185.134 143.48 186.613 145.305 186.613Z" fill="#E3E3E3"/>
<path d="M145.305 276.613C147.131 276.613 148.61 275.134 148.61 273.308C148.61 271.483 147.131 270.003 145.305 270.003C143.48 270.003 142 271.483 142 273.308C142 275.134 143.48 276.613 145.305 276.613Z" fill="#E3E3E3"/>
<path d="M145.305 366.612C147.131 366.612 148.61 365.133 148.61 363.307C148.61 361.482 147.131 360.002 145.305 360.002C143.48 360.002 142 361.482 142 363.307C142 365.133 143.48 366.612 145.305 366.612Z" fill="#E3E3E3"/>
<path d="M145.305 456.612C147.131 456.612 148.61 455.133 148.61 453.307C148.61 451.482 147.131 450.002 145.305 450.002C143.48 450.002 142 451.482 142 453.307C142 455.133 143.48 456.612 145.305 456.612Z" fill="#E3E3E3"/>
<path d="M145.305 546.612C147.131 546.612 148.61 545.133 148.61 543.307C148.61 541.482 147.131 540.002 145.305 540.002C143.48 540.002 142 541.482 142 543.307C142 545.133 143.48 546.612 145.305 546.612Z" fill="#E3E3E3"/>
<path d="M145.305 636.612C147.131 636.612 148.61 635.133 148.61 633.307C148.61 631.482 147.131 630.002 145.305 630.002C143.48 630.002 142 631.482 142 633.307C142 635.133 143.48 636.612 145.305 636.612Z" fill="#E3E3E3"/>
<path d="M145.305 726.612C147.131 726.612 148.61 725.133 148.61 723.307C148.61 721.482 147.131 720.002 145.305 720.002C143.48 720.002 142 721.482 142 723.307C142 725.133 143.48 726.612 145.305 726.612Z" fill="#E3E3E3"/>
<path d="M145.305 816.612C147.131 816.612 148.61 815.133 148.61 813.307C148.61 811.482 147.131 810.002 145.305 810.002C143.48 810.002 142 811.482 142 813.307C142 815.133 143.48 816.612 145.305 816.612Z" fill="#E3E3E3"/>
<path d="M145.305 906.612C147.131 906.612 148.61 905.133 148.61 903.307C148.61 901.482 147.131 900.002 145.305 900.002C143.48 900.002 142 901.482 142 903.307C142 905.133 143.48 906.612 145.305 906.612Z" fill="#E3E3E3"/>
<path d="M145.305 996.612C147.131 996.612 148.61 995.133 148.61 993.307C148.61 991.482 147.131 990.002 145.305 990.002C143.48 990.002 142 991.482 142 993.307C142 995.133 143.48 996.612 145.305 996.612Z" fill="#E3E3E3"/>
<path d="M145.305 1086.61C147.131 1086.61 148.61 1085.13 148.61 1083.31C148.61 1081.48 147.131 1080 145.305 1080C143.48 1080 142 1081.48 142 1083.31C142 1085.13 143.48 1086.61 145.305 1086.61Z" fill="#E3E3E3"/>
<path d="M241.305 6.61336C243.13 6.61336 244.61 5.13366 244.61 3.30836C244.61 1.48306 243.13 0.00335693 241.305 0.00335693C239.48 0.00335693 238 1.48306 238 3.30836C238 5.13366 239.48 6.61336 241.305 6.61336Z" fill="#E3E3E3"/>
<path d="M241.305 96.6134C243.13 96.6134 244.61 95.1337 244.61 93.3084C244.61 91.4831 243.13 90.0034 241.305 90.0034C239.48 90.0034 238 91.4831 238 93.3084C238 95.1337 239.48 96.6134 241.305 96.6134Z" fill="#E3E3E3"/>
<path d="M241.305 186.613C243.13 186.613 244.61 185.134 244.61 183.308C244.61 181.483 243.13 180.003 241.305 180.003C239.48 180.003 238 181.483 238 183.308C238 185.134 239.48 186.613 241.305 186.613Z" fill="#E3E3E3"/>
<path d="M241.305 276.613C243.13 276.613 244.61 275.134 244.61 273.308C244.61 271.483 243.13 270.003 241.305 270.003C239.48 270.003 238 271.483 238 273.308C238 275.134 239.48 276.613 241.305 276.613Z" fill="#E3E3E3"/>
<path d="M241.305 366.612C243.13 366.612 244.61 365.133 244.61 363.307C244.61 361.482 243.13 360.002 241.305 360.002C239.48 360.002 238 361.482 238 363.307C238 365.133 239.48 366.612 241.305 366.612Z" fill="#E3E3E3"/>
<path d="M241.305 456.612C243.13 456.612 244.61 455.133 244.61 453.307C244.61 451.482 243.13 450.002 241.305 450.002C239.48 450.002 238 451.482 238 453.307C238 455.133 239.48 456.612 241.305 456.612Z" fill="#E3E3E3"/>
<path d="M241.305 546.612C243.13 546.612 244.61 545.133 244.61 543.307C244.61 541.482 243.13 540.002 241.305 540.002C239.48 540.002 238 541.482 238 543.307C238 545.133 239.48 546.612 241.305 546.612Z" fill="#E3E3E3"/>
<path d="M241.305 636.612C243.13 636.612 244.61 635.133 244.61 633.307C244.61 631.482 243.13 630.002 241.305 630.002C239.48 630.002 238 631.482 238 633.307C238 635.133 239.48 636.612 241.305 636.612Z" fill="#E3E3E3"/>
<path d="M241.305 726.612C243.13 726.612 244.61 725.133 244.61 723.307C244.61 721.482 243.13 720.002 241.305 720.002C239.48 720.002 238 721.482 238 723.307C238 725.133 239.48 726.612 241.305 726.612Z" fill="#E3E3E3"/>
<path d="M241.305 816.612C243.13 816.612 244.61 815.133 244.61 813.307C244.61 811.482 243.13 810.002 241.305 810.002C239.48 810.002 238 811.482 238 813.307C238 815.133 239.48 816.612 241.305 816.612Z" fill="#E3E3E3"/>
<path d="M241.305 906.612C243.13 906.612 244.61 905.133 244.61 903.307C244.61 901.482 243.13 900.002 241.305 900.002C239.48 900.002 238 901.482 238 903.307C238 905.133 239.48 906.612 241.305 906.612Z" fill="#E3E3E3"/>
<path d="M241.305 996.612C243.13 996.612 244.61 995.133 244.61 993.307C244.61 991.482 243.13 990.002 241.305 990.002C239.48 990.002 238 991.482 238 993.307C238 995.133 239.48 996.612 241.305 996.612Z" fill="#E3E3E3"/>
<path d="M241.305 1086.61C243.13 1086.61 244.61 1085.13 244.61 1083.31C244.61 1081.48 243.13 1080 241.305 1080C239.48 1080 238 1081.48 238 1083.31C238 1085.13 239.48 1086.61 241.305 1086.61Z" fill="#E3E3E3"/>
<path d="M337.305 6.61336C339.13 6.61336 340.61 5.13366 340.61 3.30836C340.61 1.48306 339.13 0.00335693 337.305 0.00335693C335.48 0.00335693 334 1.48306 334 3.30836C334 5.13366 335.48 6.61336 337.305 6.61336Z" fill="#E3E3E3"/>
<path d="M337.305 96.6134C339.13 96.6134 340.61 95.1337 340.61 93.3084C340.61 91.4831 339.13 90.0034 337.305 90.0034C335.48 90.0034 334 91.4831 334 93.3084C334 95.1337 335.48 96.6134 337.305 96.6134Z" fill="#E3E3E3"/>
<path d="M337.305 186.613C339.13 186.613 340.61 185.134 340.61 183.308C340.61 181.483 339.13 180.003 337.305 180.003C335.48 180.003 334 181.483 334 183.308C334 185.134 335.48 186.613 337.305 186.613Z" fill="#E3E3E3"/>
<path d="M337.305 276.613C339.13 276.613 340.61 275.134 340.61 273.308C340.61 271.483 339.13 270.003 337.305 270.003C335.48 270.003 334 271.483 334 273.308C334 275.134 335.48 276.613 337.305 276.613Z" fill="#E3E3E3"/>
<path d="M337.305 366.612C339.13 366.612 340.61 365.133 340.61 363.307C340.61 361.482 339.13 360.002 337.305 360.002C335.48 360.002 334 361.482 334 363.307C334 365.133 335.48 366.612 337.305 366.612Z" fill="#E3E3E3"/>
<path d="M337.305 456.612C339.13 456.612 340.61 455.133 340.61 453.307C340.61 451.482 339.13 450.002 337.305 450.002C335.48 450.002 334 451.482 334 453.307C334 455.133 335.48 456.612 337.305 456.612Z" fill="#E3E3E3"/>
<path d="M337.305 546.612C339.13 546.612 340.61 545.133 340.61 543.307C340.61 541.482 339.13 540.002 337.305 540.002C335.48 540.002 334 541.482 334 543.307C334 545.133 335.48 546.612 337.305 546.612Z" fill="#E3E3E3"/>
<path d="M337.305 636.612C339.13 636.612 340.61 635.133 340.61 633.307C340.61 631.482 339.13 630.002 337.305 630.002C335.48 630.002 334 631.482 334 633.307C334 635.133 335.48 636.612 337.305 636.612Z" fill="#E3E3E3"/>
<path d="M337.305 726.612C339.13 726.612 340.61 725.133 340.61 723.307C340.61 721.482 339.13 720.002 337.305 720.002C335.48 720.002 334 721.482 334 723.307C334 725.133 335.48 726.612 337.305 726.612Z" fill="#E3E3E3"/>
<path d="M337.305 816.612C339.13 816.612 340.61 815.133 340.61 813.307C340.61 811.482 339.13 810.002 337.305 810.002C335.48 810.002 334 811.482 334 813.307C334 815.133 335.48 816.612 337.305 816.612Z" fill="#E3E3E3"/>
<path d="M337.305 906.612C339.13 906.612 340.61 905.133 340.61 903.307C340.61 901.482 339.13 900.002 337.305 900.002C335.48 900.002 334 901.482 334 903.307C334 905.133 335.48 906.612 337.305 906.612Z" fill="#E3E3E3"/>
<path d="M337.305 996.612C339.13 996.612 340.61 995.133 340.61 993.307C340.61 991.482 339.13 990.002 337.305 990.002C335.48 990.002 334 991.482 334 993.307C334 995.133 335.48 996.612 337.305 996.612Z" fill="#E3E3E3"/>
<path d="M337.305 1086.61C339.13 1086.61 340.61 1085.13 340.61 1083.31C340.61 1081.48 339.13 1080 337.305 1080C335.48 1080 334 1081.48 334 1083.31C334 1085.13 335.48 1086.61 337.305 1086.61Z" fill="#E3E3E3"/>
<path d="M433.305 6.61336C435.13 6.61336 436.61 5.13366 436.61 3.30836C436.61 1.48306 435.13 0.00335693 433.305 0.00335693C431.48 0.00335693 430 1.48306 430 3.30836C430 5.13366 431.48 6.61336 433.305 6.61336Z" fill="#E3E3E3"/>
<path d="M433.305 96.6134C435.13 96.6134 436.61 95.1337 436.61 93.3084C436.61 91.4831 435.13 90.0034 433.305 90.0034C431.48 90.0034 430 91.4831 430 93.3084C430 95.1337 431.48 96.6134 433.305 96.6134Z" fill="#E3E3E3"/>
<path d="M433.305 186.613C435.13 186.613 436.61 185.134 436.61 183.308C436.61 181.483 435.13 180.003 433.305 180.003C431.48 180.003 430 181.483 430 183.308C430 185.134 431.48 186.613 433.305 186.613Z" fill="#E3E3E3"/>
<path d="M433.305 276.613C435.13 276.613 436.61 275.134 436.61 273.308C436.61 271.483 435.13 270.003 433.305 270.003C431.48 270.003 430 271.483 430 273.308C430 275.134 431.48 276.613 433.305 276.613Z" fill="#E3E3E3"/>
<path d="M433.305 366.612C435.13 366.612 436.61 365.133 436.61 363.307C436.61 361.482 435.13 360.002 433.305 360.002C431.48 360.002 430 361.482 430 363.307C430 365.133 431.48 366.612 433.305 366.612Z" fill="#E3E3E3"/>
<path d="M433.305 456.612C435.13 456.612 436.61 455.133 436.61 453.307C436.61 451.482 435.13 450.002 433.305 450.002C431.48 450.002 430 451.482 430 453.307C430 455.133 431.48 456.612 433.305 456.612Z" fill="#E3E3E3"/>
<path d="M433.305 546.612C435.13 546.612 436.61 545.133 436.61 543.307C436.61 541.482 435.13 540.002 433.305 540.002C431.48 540.002 430 541.482 430 543.307C430 545.133 431.48 546.612 433.305 546.612Z" fill="#E3E3E3"/>
<path d="M433.305 636.612C435.13 636.612 436.61 635.133 436.61 633.307C436.61 631.482 435.13 630.002 433.305 630.002C431.48 630.002 430 631.482 430 633.307C430 635.133 431.48 636.612 433.305 636.612Z" fill="#E3E3E3"/>
<path d="M433.305 726.612C435.13 726.612 436.61 725.133 436.61 723.307C436.61 721.482 435.13 720.002 433.305 720.002C431.48 720.002 430 721.482 430 723.307C430 725.133 431.48 726.612 433.305 726.612Z" fill="#E3E3E3"/>
<path d="M433.305 816.612C435.13 816.612 436.61 815.133 436.61 813.307C436.61 811.482 435.13 810.002 433.305 810.002C431.48 810.002 430 811.482 430 813.307C430 815.133 431.48 816.612 433.305 816.612Z" fill="#E3E3E3"/>
<path d="M433.305 906.612C435.13 906.612 436.61 905.133 436.61 903.307C436.61 901.482 435.13 900.002 433.305 900.002C431.48 900.002 430 901.482 430 903.307C430 905.133 431.48 906.612 433.305 906.612Z" fill="#E3E3E3"/>
<path d="M433.305 996.612C435.13 996.612 436.61 995.133 436.61 993.307C436.61 991.482 435.13 990.002 433.305 990.002C431.48 990.002 430 991.482 430 993.307C430 995.133 431.48 996.612 433.305 996.612Z" fill="#E3E3E3"/>
<path d="M433.305 1086.61C435.13 1086.61 436.61 1085.13 436.61 1083.31C436.61 1081.48 435.13 1080 433.305 1080C431.48 1080 430 1081.48 430 1083.31C430 1085.13 431.48 1086.61 433.305 1086.61Z" fill="#E3E3E3"/>
<path d="M529.305 6.61336C531.13 6.61336 532.61 5.13366 532.61 3.30836C532.61 1.48306 531.13 0.00335693 529.305 0.00335693C527.48 0.00335693 526 1.48306 526 3.30836C526 5.13366 527.48 6.61336 529.305 6.61336Z" fill="#E3E3E3"/>
<path d="M529.305 96.6134C531.13 96.6134 532.61 95.1337 532.61 93.3084C532.61 91.4831 531.13 90.0034 529.305 90.0034C527.48 90.0034 526 91.4831 526 93.3084C526 95.1337 527.48 96.6134 529.305 96.6134Z" fill="#E3E3E3"/>
<path d="M529.305 186.613C531.13 186.613 532.61 185.134 532.61 183.308C532.61 181.483 531.13 180.003 529.305 180.003C527.48 180.003 526 181.483 526 183.308C526 185.134 527.48 186.613 529.305 186.613Z" fill="#E3E3E3"/>
<path d="M529.305 276.613C531.13 276.613 532.61 275.134 532.61 273.308C532.61 271.483 531.13 270.003 529.305 270.003C527.48 270.003 526 271.483 526 273.308C526 275.134 527.48 276.613 529.305 276.613Z" fill="#E3E3E3"/>
<path d="M529.305 366.612C531.13 366.612 532.61 365.133 532.61 363.307C532.61 361.482 531.13 360.002 529.305 360.002C527.48 360.002 526 361.482 526 363.307C526 365.133 527.48 366.612 529.305 366.612Z" fill="#E3E3E3"/>
<path d="M529.305 456.612C531.13 456.612 532.61 455.133 532.61 453.307C532.61 451.482 531.13 450.002 529.305 450.002C527.48 450.002 526 451.482 526 453.307C526 455.133 527.48 456.612 529.305 456.612Z" fill="#E3E3E3"/>
<path d="M529.305 546.612C531.13 546.612 532.61 545.133 532.61 543.307C532.61 541.482 531.13 540.002 529.305 540.002C527.48 540.002 526 541.482 526 543.307C526 545.133 527.48 546.612 529.305 546.612Z" fill="#E3E3E3"/>
<path d="M529.305 636.612C531.13 636.612 532.61 635.133 532.61 633.307C532.61 631.482 531.13 630.002 529.305 630.002C527.48 630.002 526 631.482 526 633.307C526 635.133 527.48 636.612 529.305 636.612Z" fill="#E3E3E3"/>
<path d="M529.305 726.612C531.13 726.612 532.61 725.133 532.61 723.307C532.61 721.482 531.13 720.002 529.305 720.002C527.48 720.002 526 721.482 526 723.307C526 725.133 527.48 726.612 529.305 726.612Z" fill="#E3E3E3"/>
<path d="M529.305 816.612C531.13 816.612 532.61 815.133 532.61 813.307C532.61 811.482 531.13 810.002 529.305 810.002C527.48 810.002 526 811.482 526 813.307C526 815.133 527.48 816.612 529.305 816.612Z" fill="#E3E3E3"/>
<path d="M529.305 906.612C531.13 906.612 532.61 905.133 532.61 903.307C532.61 901.482 531.13 900.002 529.305 900.002C527.48 900.002 526 901.482 526 903.307C526 905.133 527.48 906.612 529.305 906.612Z" fill="#E3E3E3"/>
<path d="M529.305 996.612C531.13 996.612 532.61 995.133 532.61 993.307C532.61 991.482 531.13 990.002 529.305 990.002C527.48 990.002 526 991.482 526 993.307C526 995.133 527.48 996.612 529.305 996.612Z" fill="#E3E3E3"/>
<path d="M529.305 1086.61C531.13 1086.61 532.61 1085.13 532.61 1083.31C532.61 1081.48 531.13 1080 529.305 1080C527.48 1080 526 1081.48 526 1083.31C526 1085.13 527.48 1086.61 529.305 1086.61Z" fill="#E3E3E3"/>
<path d="M625.305 6.61336C627.13 6.61336 628.61 5.13366 628.61 3.30836C628.61 1.48306 627.13 0.00335693 625.305 0.00335693C623.48 0.00335693 622 1.48306 622 3.30836C622 5.13366 623.48 6.61336 625.305 6.61336Z" fill="#E3E3E3"/>
<path d="M625.305 96.6134C627.13 96.6134 628.61 95.1337 628.61 93.3084C628.61 91.4831 627.13 90.0034 625.305 90.0034C623.48 90.0034 622 91.4831 622 93.3084C622 95.1337 623.48 96.6134 625.305 96.6134Z" fill="#E3E3E3"/>
<path d="M625.305 186.613C627.13 186.613 628.61 185.134 628.61 183.308C628.61 181.483 627.13 180.003 625.305 180.003C623.48 180.003 622 181.483 622 183.308C622 185.134 623.48 186.613 625.305 186.613Z" fill="#E3E3E3"/>
<path d="M625.305 276.613C627.13 276.613 628.61 275.134 628.61 273.308C628.61 271.483 627.13 270.003 625.305 270.003C623.48 270.003 622 271.483 622 273.308C622 275.134 623.48 276.613 625.305 276.613Z" fill="#E3E3E3"/>
<path d="M625.305 366.612C627.13 366.612 628.61 365.133 628.61 363.307C628.61 361.482 627.13 360.002 625.305 360.002C623.48 360.002 622 361.482 622 363.307C622 365.133 623.48 366.612 625.305 366.612Z" fill="#E3E3E3"/>
<path d="M625.305 456.612C627.13 456.612 628.61 455.133 628.61 453.307C628.61 451.482 627.13 450.002 625.305 450.002C623.48 450.002 622 451.482 622 453.307C622 455.133 623.48 456.612 625.305 456.612Z" fill="#E3E3E3"/>
<path d="M625.305 546.612C627.13 546.612 628.61 545.133 628.61 543.307C628.61 541.482 627.13 540.002 625.305 540.002C623.48 540.002 622 541.482 622 543.307C622 545.133 623.48 546.612 625.305 546.612Z" fill="#E3E3E3"/>
<path d="M625.305 636.612C627.13 636.612 628.61 635.133 628.61 633.307C628.61 631.482 627.13 630.002 625.305 630.002C623.48 630.002 622 631.482 622 633.307C622 635.133 623.48 636.612 625.305 636.612Z" fill="#E3E3E3"/>
<path d="M625.305 726.612C627.13 726.612 628.61 725.133 628.61 723.307C628.61 721.482 627.13 720.002 625.305 720.002C623.48 720.002 622 721.482 622 723.307C622 725.133 623.48 726.612 625.305 726.612Z" fill="#E3E3E3"/>
<path d="M625.305 816.612C627.13 816.612 628.61 815.133 628.61 813.307C628.61 811.482 627.13 810.002 625.305 810.002C623.48 810.002 622 811.482 622 813.307C622 815.133 623.48 816.612 625.305 816.612Z" fill="#E3E3E3"/>
<path d="M625.305 906.612C627.13 906.612 628.61 905.133 628.61 903.307C628.61 901.482 627.13 900.002 625.305 900.002C623.48 900.002 622 901.482 622 903.307C622 905.133 623.48 906.612 625.305 906.612Z" fill="#E3E3E3"/>
<path d="M625.305 996.612C627.13 996.612 628.61 995.133 628.61 993.307C628.61 991.482 627.13 990.002 625.305 990.002C623.48 990.002 622 991.482 622 993.307C622 995.133 623.48 996.612 625.305 996.612Z" fill="#E3E3E3"/>
<path d="M625.305 1086.61C627.13 1086.61 628.61 1085.13 628.61 1083.31C628.61 1081.48 627.13 1080 625.305 1080C623.48 1080 622 1081.48 622 1083.31C622 1085.13 623.48 1086.61 625.305 1086.61Z" fill="#E3E3E3"/>
<path d="M721.305 6.61336C723.13 6.61336 724.61 5.13366 724.61 3.30836C724.61 1.48306 723.13 0.00335693 721.305 0.00335693C719.48 0.00335693 718 1.48306 718 3.30836C718 5.13366 719.48 6.61336 721.305 6.61336Z" fill="#E3E3E3"/>
<path d="M721.305 96.6134C723.13 96.6134 724.61 95.1337 724.61 93.3084C724.61 91.4831 723.13 90.0034 721.305 90.0034C719.48 90.0034 718 91.4831 718 93.3084C718 95.1337 719.48 96.6134 721.305 96.6134Z" fill="#E3E3E3"/>
<path d="M721.305 186.613C723.13 186.613 724.61 185.134 724.61 183.308C724.61 181.483 723.13 180.003 721.305 180.003C719.48 180.003 718 181.483 718 183.308C718 185.134 719.48 186.613 721.305 186.613Z" fill="#E3E3E3"/>
<path d="M721.305 276.613C723.13 276.613 724.61 275.134 724.61 273.308C724.61 271.483 723.13 270.003 721.305 270.003C719.48 270.003 718 271.483 718 273.308C718 275.134 719.48 276.613 721.305 276.613Z" fill="#E3E3E3"/>
<path d="M721.305 366.612C723.13 366.612 724.61 365.133 724.61 363.307C724.61 361.482 723.13 360.002 721.305 360.002C719.48 360.002 718 361.482 718 363.307C718 365.133 719.48 366.612 721.305 366.612Z" fill="#E3E3E3"/>
<path d="M721.305 456.612C723.13 456.612 724.61 455.133 724.61 453.307C724.61 451.482 723.13 450.002 721.305 450.002C719.48 450.002 718 451.482 718 453.307C718 455.133 719.48 456.612 721.305 456.612Z" fill="#E3E3E3"/>
<path d="M721.305 546.612C723.13 546.612 724.61 545.133 724.61 543.307C724.61 541.482 723.13 540.002 721.305 540.002C719.48 540.002 718 541.482 718 543.307C718 545.133 719.48 546.612 721.305 546.612Z" fill="#E3E3E3"/>
<path d="M721.305 636.612C723.13 636.612 724.61 635.133 724.61 633.307C724.61 631.482 723.13 630.002 721.305 630.002C719.48 630.002 718 631.482 718 633.307C718 635.133 719.48 636.612 721.305 636.612Z" fill="#E3E3E3"/>
<path d="M721.305 726.612C723.13 726.612 724.61 725.133 724.61 723.307C724.61 721.482 723.13 720.002 721.305 720.002C719.48 720.002 718 721.482 718 723.307C718 725.133 719.48 726.612 721.305 726.612Z" fill="#E3E3E3"/>
<path d="M721.305 816.612C723.13 816.612 724.61 815.133 724.61 813.307C724.61 811.482 723.13 810.002 721.305 810.002C719.48 810.002 718 811.482 718 813.307C718 815.133 719.48 816.612 721.305 816.612Z" fill="#E3E3E3"/>
<path d="M721.305 906.612C723.13 906.612 724.61 905.133 724.61 903.307C724.61 901.482 723.13 900.002 721.305 900.002C719.48 900.002 718 901.482 718 903.307C718 905.133 719.48 906.612 721.305 906.612Z" fill="#E3E3E3"/>
<path d="M721.305 996.612C723.13 996.612 724.61 995.133 724.61 993.307C724.61 991.482 723.13 990.002 721.305 990.002C719.48 990.002 718 991.482 718 993.307C718 995.133 719.48 996.612 721.305 996.612Z" fill="#E3E3E3"/>
<path d="M721.305 1086.61C723.13 1086.61 724.61 1085.13 724.61 1083.31C724.61 1081.48 723.13 1080 721.305 1080C719.48 1080 718 1081.48 718 1083.31C718 1085.13 719.48 1086.61 721.305 1086.61Z" fill="#E3E3E3"/>
<path d="M817.305 6.61336C819.13 6.61336 820.61 5.13366 820.61 3.30836C820.61 1.48306 819.13 0.00335693 817.305 0.00335693C815.48 0.00335693 814 1.48306 814 3.30836C814 5.13366 815.48 6.61336 817.305 6.61336Z" fill="#E3E3E3"/>
<path d="M817.305 96.6134C819.13 96.6134 820.61 95.1337 820.61 93.3084C820.61 91.4831 819.13 90.0034 817.305 90.0034C815.48 90.0034 814 91.4831 814 93.3084C814 95.1337 815.48 96.6134 817.305 96.6134Z" fill="#E3E3E3"/>
<path d="M817.305 186.613C819.13 186.613 820.61 185.134 820.61 183.308C820.61 181.483 819.13 180.003 817.305 180.003C815.48 180.003 814 181.483 814 183.308C814 185.134 815.48 186.613 817.305 186.613Z" fill="#E3E3E3"/>
<path d="M817.305 276.613C819.13 276.613 820.61 275.134 820.61 273.308C820.61 271.483 819.13 270.003 817.305 270.003C815.48 270.003 814 271.483 814 273.308C814 275.134 815.48 276.613 817.305 276.613Z" fill="#E3E3E3"/>
<path d="M817.305 366.612C819.13 366.612 820.61 365.133 820.61 363.307C820.61 361.482 819.13 360.002 817.305 360.002C815.48 360.002 814 361.482 814 363.307C814 365.133 815.48 366.612 817.305 366.612Z" fill="#E3E3E3"/>
<path d="M817.305 456.612C819.13 456.612 820.61 455.133 820.61 453.307C820.61 451.482 819.13 450.002 817.305 450.002C815.48 450.002 814 451.482 814 453.307C814 455.133 815.48 456.612 817.305 456.612Z" fill="#E3E3E3"/>
<path d="M817.305 546.612C819.13 546.612 820.61 545.133 820.61 543.307C820.61 541.482 819.13 540.002 817.305 540.002C815.48 540.002 814 541.482 814 543.307C814 545.133 815.48 546.612 817.305 546.612Z" fill="#E3E3E3"/>
<path d="M817.305 636.612C819.13 636.612 820.61 635.133 820.61 633.307C820.61 631.482 819.13 630.002 817.305 630.002C815.48 630.002 814 631.482 814 633.307C814 635.133 815.48 636.612 817.305 636.612Z" fill="#E3E3E3"/>
<path d="M817.305 726.612C819.13 726.612 820.61 725.133 820.61 723.307C820.61 721.482 819.13 720.002 817.305 720.002C815.48 720.002 814 721.482 814 723.307C814 725.133 815.48 726.612 817.305 726.612Z" fill="#E3E3E3"/>
<path d="M817.305 816.612C819.13 816.612 820.61 815.133 820.61 813.307C820.61 811.482 819.13 810.002 817.305 810.002C815.48 810.002 814 811.482 814 813.307C814 815.133 815.48 816.612 817.305 816.612Z" fill="#E3E3E3"/>
<path d="M817.305 906.612C819.13 906.612 820.61 905.133 820.61 903.307C820.61 901.482 819.13 900.002 817.305 900.002C815.48 900.002 814 901.482 814 903.307C814 905.133 815.48 906.612 817.305 906.612Z" fill="#E3E3E3"/>
<path d="M817.305 996.612C819.13 996.612 820.61 995.133 820.61 993.307C820.61 991.482 819.13 990.002 817.305 990.002C815.48 990.002 814 991.482 814 993.307C814 995.133 815.48 996.612 817.305 996.612Z" fill="#E3E3E3"/>
<path d="M817.305 1086.61C819.13 1086.61 820.61 1085.13 820.61 1083.31C820.61 1081.48 819.13 1080 817.305 1080C815.48 1080 814 1081.48 814 1083.31C814 1085.13 815.48 1086.61 817.305 1086.61Z" fill="#E3E3E3"/>
<path d="M913.305 6.61336C915.13 6.61336 916.61 5.13366 916.61 3.30836C916.61 1.48306 915.13 0.00335693 913.305 0.00335693C911.48 0.00335693 910 1.48306 910 3.30836C910 5.13366 911.48 6.61336 913.305 6.61336Z" fill="#E3E3E3"/>
<path d="M913.305 96.6134C915.13 96.6134 916.61 95.1337 916.61 93.3084C916.61 91.4831 915.13 90.0034 913.305 90.0034C911.48 90.0034 910 91.4831 910 93.3084C910 95.1337 911.48 96.6134 913.305 96.6134Z" fill="#E3E3E3"/>
<path d="M913.305 186.613C915.13 186.613 916.61 185.134 916.61 183.308C916.61 181.483 915.13 180.003 913.305 180.003C911.48 180.003 910 181.483 910 183.308C910 185.134 911.48 186.613 913.305 186.613Z" fill="#E3E3E3"/>
<path d="M913.305 276.613C915.13 276.613 916.61 275.134 916.61 273.308C916.61 271.483 915.13 270.003 913.305 270.003C911.48 270.003 910 271.483 910 273.308C910 275.134 911.48 276.613 913.305 276.613Z" fill="#E3E3E3"/>
<path d="M913.305 366.612C915.13 366.612 916.61 365.133 916.61 363.307C916.61 361.482 915.13 360.002 913.305 360.002C911.48 360.002 910 361.482 910 363.307C910 365.133 911.48 366.612 913.305 366.612Z" fill="#E3E3E3"/>
<path d="M913.305 456.612C915.13 456.612 916.61 455.133 916.61 453.307C916.61 451.482 915.13 450.002 913.305 450.002C911.48 450.002 910 451.482 910 453.307C910 455.133 911.48 456.612 913.305 456.612Z" fill="#E3E3E3"/>
<path d="M913.305 546.612C915.13 546.612 916.61 545.133 916.61 543.307C916.61 541.482 915.13 540.002 913.305 540.002C911.48 540.002 910 541.482 910 543.307C910 545.133 911.48 546.612 913.305 546.612Z" fill="#E3E3E3"/>
<path d="M913.305 636.612C915.13 636.612 916.61 635.133 916.61 633.307C916.61 631.482 915.13 630.002 913.305 630.002C911.48 630.002 910 631.482 910 633.307C910 635.133 911.48 636.612 913.305 636.612Z" fill="#E3E3E3"/>
<path d="M913.305 726.612C915.13 726.612 916.61 725.133 916.61 723.307C916.61 721.482 915.13 720.002 913.305 720.002C911.48 720.002 910 721.482 910 723.307C910 725.133 911.48 726.612 913.305 726.612Z" fill="#E3E3E3"/>
<path d="M913.305 816.612C915.13 816.612 916.61 815.133 916.61 813.307C916.61 811.482 915.13 810.002 913.305 810.002C911.48 810.002 910 811.482 910 813.307C910 815.133 911.48 816.612 913.305 816.612Z" fill="#E3E3E3"/>
<path d="M913.305 906.612C915.13 906.612 916.61 905.133 916.61 903.307C916.61 901.482 915.13 900.002 913.305 900.002C911.48 900.002 910 901.482 910 903.307C910 905.133 911.48 906.612 913.305 906.612Z" fill="#E3E3E3"/>
<path d="M913.305 996.612C915.13 996.612 916.61 995.133 916.61 993.307C916.61 991.482 915.13 990.002 913.305 990.002C911.48 990.002 910 991.482 910 993.307C910 995.133 911.48 996.612 913.305 996.612Z" fill="#E3E3E3"/>
<path d="M913.305 1086.61C915.13 1086.61 916.61 1085.13 916.61 1083.31C916.61 1081.48 915.13 1080 913.305 1080C911.48 1080 910 1081.48 910 1083.31C910 1085.13 911.48 1086.61 913.305 1086.61Z" fill="#E3E3E3"/>
<path d="M1009.31 6.61336C1011.13 6.61336 1012.61 5.13366 1012.61 3.30836C1012.61 1.48306 1011.13 0.00335693 1009.31 0.00335693C1007.48 0.00335693 1006 1.48306 1006 3.30836C1006 5.13366 1007.48 6.61336 1009.31 6.61336Z" fill="#E3E3E3"/>
<path d="M1009.31 96.6134C1011.13 96.6134 1012.61 95.1337 1012.61 93.3084C1012.61 91.4831 1011.13 90.0034 1009.31 90.0034C1007.48 90.0034 1006 91.4831 1006 93.3084C1006 95.1337 1007.48 96.6134 1009.31 96.6134Z" fill="#E3E3E3"/>
<path d="M1009.31 186.613C1011.13 186.613 1012.61 185.134 1012.61 183.308C1012.61 181.483 1011.13 180.003 1009.31 180.003C1007.48 180.003 1006 181.483 1006 183.308C1006 185.134 1007.48 186.613 1009.31 186.613Z" fill="#E3E3E3"/>
<path d="M1009.31 276.613C1011.13 276.613 1012.61 275.134 1012.61 273.308C1012.61 271.483 1011.13 270.003 1009.31 270.003C1007.48 270.003 1006 271.483 1006 273.308C1006 275.134 1007.48 276.613 1009.31 276.613Z" fill="#E3E3E3"/>
<path d="M1009.31 366.612C1011.13 366.612 1012.61 365.133 1012.61 363.307C1012.61 361.482 1011.13 360.002 1009.31 360.002C1007.48 360.002 1006 361.482 1006 363.307C1006 365.133 1007.48 366.612 1009.31 366.612Z" fill="#E3E3E3"/>
<path d="M1009.31 456.612C1011.13 456.612 1012.61 455.133 1012.61 453.307C1012.61 451.482 1011.13 450.002 1009.31 450.002C1007.48 450.002 1006 451.482 1006 453.307C1006 455.133 1007.48 456.612 1009.31 456.612Z" fill="#E3E3E3"/>
<path d="M1009.31 546.612C1011.13 546.612 1012.61 545.133 1012.61 543.307C1012.61 541.482 1011.13 540.002 1009.31 540.002C1007.48 540.002 1006 541.482 1006 543.307C1006 545.133 1007.48 546.612 1009.31 546.612Z" fill="#E3E3E3"/>
<path d="M1009.31 636.612C1011.13 636.612 1012.61 635.133 1012.61 633.307C1012.61 631.482 1011.13 630.002 1009.31 630.002C1007.48 630.002 1006 631.482 1006 633.307C1006 635.133 1007.48 636.612 1009.31 636.612Z" fill="#E3E3E3"/>
<path d="M1009.31 726.612C1011.13 726.612 1012.61 725.133 1012.61 723.307C1012.61 721.482 1011.13 720.002 1009.31 720.002C1007.48 720.002 1006 721.482 1006 723.307C1006 725.133 1007.48 726.612 1009.31 726.612Z" fill="#E3E3E3"/>
<path d="M1009.31 816.612C1011.13 816.612 1012.61 815.133 1012.61 813.307C1012.61 811.482 1011.13 810.002 1009.31 810.002C1007.48 810.002 1006 811.482 1006 813.307C1006 815.133 1007.48 816.612 1009.31 816.612Z" fill="#E3E3E3"/>
<path d="M1009.31 906.612C1011.13 906.612 1012.61 905.133 1012.61 903.307C1012.61 901.482 1011.13 900.002 1009.31 900.002C1007.48 900.002 1006 901.482 1006 903.307C1006 905.133 1007.48 906.612 1009.31 906.612Z" fill="#E3E3E3"/>
<path d="M1009.31 996.612C1011.13 996.612 1012.61 995.133 1012.61 993.307C1012.61 991.482 1011.13 990.002 1009.31 990.002C1007.48 990.002 1006 991.482 1006 993.307C1006 995.133 1007.48 996.612 1009.31 996.612Z" fill="#E3E3E3"/>
<path d="M1009.31 1086.61C1011.13 1086.61 1012.61 1085.13 1012.61 1083.31C1012.61 1081.48 1011.13 1080 1009.31 1080C1007.48 1080 1006 1081.48 1006 1083.31C1006 1085.13 1007.48 1086.61 1009.31 1086.61Z" fill="#E3E3E3"/>
<path d="M1105.31 6.61336C1107.13 6.61336 1108.61 5.13366 1108.61 3.30836C1108.61 1.48306 1107.13 0.00335693 1105.31 0.00335693C1103.48 0.00335693 1102 1.48306 1102 3.30836C1102 5.13366 1103.48 6.61336 1105.31 6.61336Z" fill="#E3E3E3"/>
<path d="M1105.31 96.6134C1107.13 96.6134 1108.61 95.1337 1108.61 93.3084C1108.61 91.4831 1107.13 90.0034 1105.31 90.0034C1103.48 90.0034 1102 91.4831 1102 93.3084C1102 95.1337 1103.48 96.6134 1105.31 96.6134Z" fill="#E3E3E3"/>
<path d="M1105.31 186.613C1107.13 186.613 1108.61 185.134 1108.61 183.308C1108.61 181.483 1107.13 180.003 1105.31 180.003C1103.48 180.003 1102 181.483 1102 183.308C1102 185.134 1103.48 186.613 1105.31 186.613Z" fill="#E3E3E3"/>
<path d="M1105.31 276.613C1107.13 276.613 1108.61 275.134 1108.61 273.308C1108.61 271.483 1107.13 270.003 1105.31 270.003C1103.48 270.003 1102 271.483 1102 273.308C1102 275.134 1103.48 276.613 1105.31 276.613Z" fill="#E3E3E3"/>
<path d="M1105.31 366.612C1107.13 366.612 1108.61 365.133 1108.61 363.307C1108.61 361.482 1107.13 360.002 1105.31 360.002C1103.48 360.002 1102 361.482 1102 363.307C1102 365.133 1103.48 366.612 1105.31 366.612Z" fill="#E3E3E3"/>
<path d="M1105.31 456.612C1107.13 456.612 1108.61 455.133 1108.61 453.307C1108.61 451.482 1107.13 450.002 1105.31 450.002C1103.48 450.002 1102 451.482 1102 453.307C1102 455.133 1103.48 456.612 1105.31 456.612Z" fill="#E3E3E3"/>
<path d="M1105.31 546.612C1107.13 546.612 1108.61 545.133 1108.61 543.307C1108.61 541.482 1107.13 540.002 1105.31 540.002C1103.48 540.002 1102 541.482 1102 543.307C1102 545.133 1103.48 546.612 1105.31 546.612Z" fill="#E3E3E3"/>
<path d="M1105.31 636.612C1107.13 636.612 1108.61 635.133 1108.61 633.307C1108.61 631.482 1107.13 630.002 1105.31 630.002C1103.48 630.002 1102 631.482 1102 633.307C1102 635.133 1103.48 636.612 1105.31 636.612Z" fill="#E3E3E3"/>
<path d="M1105.31 726.612C1107.13 726.612 1108.61 725.133 1108.61 723.307C1108.61 721.482 1107.13 720.002 1105.31 720.002C1103.48 720.002 1102 721.482 1102 723.307C1102 725.133 1103.48 726.612 1105.31 726.612Z" fill="#E3E3E3"/>
<path d="M1105.31 816.612C1107.13 816.612 1108.61 815.133 1108.61 813.307C1108.61 811.482 1107.13 810.002 1105.31 810.002C1103.48 810.002 1102 811.482 1102 813.307C1102 815.133 1103.48 816.612 1105.31 816.612Z" fill="#E3E3E3"/>
<path d="M1105.31 906.612C1107.13 906.612 1108.61 905.133 1108.61 903.307C1108.61 901.482 1107.13 900.002 1105.31 900.002C1103.48 900.002 1102 901.482 1102 903.307C1102 905.133 1103.48 906.612 1105.31 906.612Z" fill="#E3E3E3"/>
<path d="M1105.31 996.612C1107.13 996.612 1108.61 995.133 1108.61 993.307C1108.61 991.482 1107.13 990.002 1105.31 990.002C1103.48 990.002 1102 991.482 1102 993.307C1102 995.133 1103.48 996.612 1105.31 996.612Z" fill="#E3E3E3"/>
<path d="M1105.31 1086.61C1107.13 1086.61 1108.61 1085.13 1108.61 1083.31C1108.61 1081.48 1107.13 1080 1105.31 1080C1103.48 1080 1102 1081.48 1102 1083.31C1102 1085.13 1103.48 1086.61 1105.31 1086.61Z" fill="#E3E3E3"/>
<path d="M1201.31 6.61336C1203.13 6.61336 1204.61 5.13366 1204.61 3.30836C1204.61 1.48306 1203.13 0.00335693 1201.31 0.00335693C1199.48 0.00335693 1198 1.48306 1198 3.30836C1198 5.13366 1199.48 6.61336 1201.31 6.61336Z" fill="#E3E3E3"/>
<path d="M1201.31 96.6134C1203.13 96.6134 1204.61 95.1337 1204.61 93.3084C1204.61 91.4831 1203.13 90.0034 1201.31 90.0034C1199.48 90.0034 1198 91.4831 1198 93.3084C1198 95.1337 1199.48 96.6134 1201.31 96.6134Z" fill="#E3E3E3"/>
<path d="M1201.31 186.613C1203.13 186.613 1204.61 185.134 1204.61 183.308C1204.61 181.483 1203.13 180.003 1201.31 180.003C1199.48 180.003 1198 181.483 1198 183.308C1198 185.134 1199.48 186.613 1201.31 186.613Z" fill="#E3E3E3"/>
<path d="M1201.31 276.613C1203.13 276.613 1204.61 275.134 1204.61 273.308C1204.61 271.483 1203.13 270.003 1201.31 270.003C1199.48 270.003 1198 271.483 1198 273.308C1198 275.134 1199.48 276.613 1201.31 276.613Z" fill="#E3E3E3"/>
<path d="M1201.31 366.612C1203.13 366.612 1204.61 365.133 1204.61 363.307C1204.61 361.482 1203.13 360.002 1201.31 360.002C1199.48 360.002 1198 361.482 1198 363.307C1198 365.133 1199.48 366.612 1201.31 366.612Z" fill="#E3E3E3"/>
<path d="M1201.31 456.612C1203.13 456.612 1204.61 455.133 1204.61 453.307C1204.61 451.482 1203.13 450.002 1201.31 450.002C1199.48 450.002 1198 451.482 1198 453.307C1198 455.133 1199.48 456.612 1201.31 456.612Z" fill="#E3E3E3"/>
<path d="M1201.31 546.612C1203.13 546.612 1204.61 545.133 1204.61 543.307C1204.61 541.482 1203.13 540.002 1201.31 540.002C1199.48 540.002 1198 541.482 1198 543.307C1198 545.133 1199.48 546.612 1201.31 546.612Z" fill="#E3E3E3"/>
<path d="M1201.31 636.612C1203.13 636.612 1204.61 635.133 1204.61 633.307C1204.61 631.482 1203.13 630.002 1201.31 630.002C1199.48 630.002 1198 631.482 1198 633.307C1198 635.133 1199.48 636.612 1201.31 636.612Z" fill="#E3E3E3"/>
<path d="M1201.31 726.612C1203.13 726.612 1204.61 725.133 1204.61 723.307C1204.61 721.482 1203.13 720.002 1201.31 720.002C1199.48 720.002 1198 721.482 1198 723.307C1198 725.133 1199.48 726.612 1201.31 726.612Z" fill="#E3E3E3"/>
<path d="M1201.31 816.612C1203.13 816.612 1204.61 815.133 1204.61 813.307C1204.61 811.482 1203.13 810.002 1201.31 810.002C1199.48 810.002 1198 811.482 1198 813.307C1198 815.133 1199.48 816.612 1201.31 816.612Z" fill="#E3E3E3"/>
<path d="M1201.31 906.612C1203.13 906.612 1204.61 905.133 1204.61 903.307C1204.61 901.482 1203.13 900.002 1201.31 900.002C1199.48 900.002 1198 901.482 1198 903.307C1198 905.133 1199.48 906.612 1201.31 906.612Z" fill="#E3E3E3"/>
<path d="M1201.31 996.612C1203.13 996.612 1204.61 995.133 1204.61 993.307C1204.61 991.482 1203.13 990.002 1201.31 990.002C1199.48 990.002 1198 991.482 1198 993.307C1198 995.133 1199.48 996.612 1201.31 996.612Z" fill="#E3E3E3"/>
<path d="M1201.31 1086.61C1203.13 1086.61 1204.61 1085.13 1204.61 1083.31C1204.61 1081.48 1203.13 1080 1201.31 1080C1199.48 1080 1198 1081.48 1198 1083.31C1198 1085.13 1199.48 1086.61 1201.31 1086.61Z" fill="#E3E3E3"/>
<path d="M1297.31 6.61336C1299.13 6.61336 1300.61 5.13366 1300.61 3.30836C1300.61 1.48306 1299.13 0.00335693 1297.31 0.00335693C1295.48 0.00335693 1294 1.48306 1294 3.30836C1294 5.13366 1295.48 6.61336 1297.31 6.61336Z" fill="#E3E3E3"/>
<path d="M1297.31 96.6134C1299.13 96.6134 1300.61 95.1337 1300.61 93.3084C1300.61 91.4831 1299.13 90.0034 1297.31 90.0034C1295.48 90.0034 1294 91.4831 1294 93.3084C1294 95.1337 1295.48 96.6134 1297.31 96.6134Z" fill="#E3E3E3"/>
<path d="M1297.31 186.613C1299.13 186.613 1300.61 185.134 1300.61 183.308C1300.61 181.483 1299.13 180.003 1297.31 180.003C1295.48 180.003 1294 181.483 1294 183.308C1294 185.134 1295.48 186.613 1297.31 186.613Z" fill="#E3E3E3"/>
<path d="M1297.31 276.613C1299.13 276.613 1300.61 275.134 1300.61 273.308C1300.61 271.483 1299.13 270.003 1297.31 270.003C1295.48 270.003 1294 271.483 1294 273.308C1294 275.134 1295.48 276.613 1297.31 276.613Z" fill="#E3E3E3"/>
<path d="M1297.31 366.612C1299.13 366.612 1300.61 365.133 1300.61 363.307C1300.61 361.482 1299.13 360.002 1297.31 360.002C1295.48 360.002 1294 361.482 1294 363.307C1294 365.133 1295.48 366.612 1297.31 366.612Z" fill="#E3E3E3"/>
<path d="M1297.31 456.612C1299.13 456.612 1300.61 455.133 1300.61 453.307C1300.61 451.482 1299.13 450.002 1297.31 450.002C1295.48 450.002 1294 451.482 1294 453.307C1294 455.133 1295.48 456.612 1297.31 456.612Z" fill="#E3E3E3"/>
<path d="M1297.31 546.612C1299.13 546.612 1300.61 545.133 1300.61 543.307C1300.61 541.482 1299.13 540.002 1297.31 540.002C1295.48 540.002 1294 541.482 1294 543.307C1294 545.133 1295.48 546.612 1297.31 546.612Z" fill="#E3E3E3"/>
<path d="M1297.31 636.612C1299.13 636.612 1300.61 635.133 1300.61 633.307C1300.61 631.482 1299.13 630.002 1297.31 630.002C1295.48 630.002 1294 631.482 1294 633.307C1294 635.133 1295.48 636.612 1297.31 636.612Z" fill="#E3E3E3"/>
<path d="M1297.31 726.612C1299.13 726.612 1300.61 725.133 1300.61 723.307C1300.61 721.482 1299.13 720.002 1297.31 720.002C1295.48 720.002 1294 721.482 1294 723.307C1294 725.133 1295.48 726.612 1297.31 726.612Z" fill="#E3E3E3"/>
<path d="M1297.31 816.612C1299.13 816.612 1300.61 815.133 1300.61 813.307C1300.61 811.482 1299.13 810.002 1297.31 810.002C1295.48 810.002 1294 811.482 1294 813.307C1294 815.133 1295.48 816.612 1297.31 816.612Z" fill="#E3E3E3"/>
<path d="M1297.31 906.612C1299.13 906.612 1300.61 905.133 1300.61 903.307C1300.61 901.482 1299.13 900.002 1297.31 900.002C1295.48 900.002 1294 901.482 1294 903.307C1294 905.133 1295.48 906.612 1297.31 906.612Z" fill="#E3E3E3"/>
<path d="M1297.31 996.612C1299.13 996.612 1300.61 995.133 1300.61 993.307C1300.61 991.482 1299.13 990.002 1297.31 990.002C1295.48 990.002 1294 991.482 1294 993.307C1294 995.133 1295.48 996.612 1297.31 996.612Z" fill="#E3E3E3"/>
<path d="M1297.31 1086.61C1299.13 1086.61 1300.61 1085.13 1300.61 1083.31C1300.61 1081.48 1299.13 1080 1297.31 1080C1295.48 1080 1294 1081.48 1294 1083.31C1294 1085.13 1295.48 1086.61 1297.31 1086.61Z" fill="#E3E3E3"/>
<path d="M1393.31 6.61336C1395.13 6.61336 1396.61 5.13366 1396.61 3.30836C1396.61 1.48306 1395.13 0.00335693 1393.31 0.00335693C1391.48 0.00335693 1390 1.48306 1390 3.30836C1390 5.13366 1391.48 6.61336 1393.31 6.61336Z" fill="#E3E3E3"/>
<path d="M1393.31 96.6134C1395.13 96.6134 1396.61 95.1337 1396.61 93.3084C1396.61 91.4831 1395.13 90.0034 1393.31 90.0034C1391.48 90.0034 1390 91.4831 1390 93.3084C1390 95.1337 1391.48 96.6134 1393.31 96.6134Z" fill="#E3E3E3"/>
<path d="M1393.31 186.613C1395.13 186.613 1396.61 185.134 1396.61 183.308C1396.61 181.483 1395.13 180.003 1393.31 180.003C1391.48 180.003 1390 181.483 1390 183.308C1390 185.134 1391.48 186.613 1393.31 186.613Z" fill="#E3E3E3"/>
<path d="M1393.31 276.613C1395.13 276.613 1396.61 275.134 1396.61 273.308C1396.61 271.483 1395.13 270.003 1393.31 270.003C1391.48 270.003 1390 271.483 1390 273.308C1390 275.134 1391.48 276.613 1393.31 276.613Z" fill="#E3E3E3"/>
<path d="M1393.31 366.612C1395.13 366.612 1396.61 365.133 1396.61 363.307C1396.61 361.482 1395.13 360.002 1393.31 360.002C1391.48 360.002 1390 361.482 1390 363.307C1390 365.133 1391.48 366.612 1393.31 366.612Z" fill="#E3E3E3"/>
<path d="M1393.31 456.612C1395.13 456.612 1396.61 455.133 1396.61 453.307C1396.61 451.482 1395.13 450.002 1393.31 450.002C1391.48 450.002 1390 451.482 1390 453.307C1390 455.133 1391.48 456.612 1393.31 456.612Z" fill="#E3E3E3"/>
<path d="M1393.31 546.612C1395.13 546.612 1396.61 545.133 1396.61 543.307C1396.61 541.482 1395.13 540.002 1393.31 540.002C1391.48 540.002 1390 541.482 1390 543.307C1390 545.133 1391.48 546.612 1393.31 546.612Z" fill="#E3E3E3"/>
<path d="M1393.31 636.612C1395.13 636.612 1396.61 635.133 1396.61 633.307C1396.61 631.482 1395.13 630.002 1393.31 630.002C1391.48 630.002 1390 631.482 1390 633.307C1390 635.133 1391.48 636.612 1393.31 636.612Z" fill="#E3E3E3"/>
<path d="M1393.31 726.612C1395.13 726.612 1396.61 725.133 1396.61 723.307C1396.61 721.482 1395.13 720.002 1393.31 720.002C1391.48 720.002 1390 721.482 1390 723.307C1390 725.133 1391.48 726.612 1393.31 726.612Z" fill="#E3E3E3"/>
<path d="M1393.31 816.612C1395.13 816.612 1396.61 815.133 1396.61 813.307C1396.61 811.482 1395.13 810.002 1393.31 810.002C1391.48 810.002 1390 811.482 1390 813.307C1390 815.133 1391.48 816.612 1393.31 816.612Z" fill="#E3E3E3"/>
<path d="M1393.31 906.612C1395.13 906.612 1396.61 905.133 1396.61 903.307C1396.61 901.482 1395.13 900.002 1393.31 900.002C1391.48 900.002 1390 901.482 1390 903.307C1390 905.133 1391.48 906.612 1393.31 906.612Z" fill="#E3E3E3"/>
<path d="M1393.31 996.612C1395.13 996.612 1396.61 995.133 1396.61 993.307C1396.61 991.482 1395.13 990.002 1393.31 990.002C1391.48 990.002 1390 991.482 1390 993.307C1390 995.133 1391.48 996.612 1393.31 996.612Z" fill="#E3E3E3"/>
<path d="M1393.31 1086.61C1395.13 1086.61 1396.61 1085.13 1396.61 1083.31C1396.61 1081.48 1395.13 1080 1393.31 1080C1391.48 1080 1390 1081.48 1390 1083.31C1390 1085.13 1391.48 1086.61 1393.31 1086.61Z" fill="#E3E3E3"/>
<path d="M1489.31 6.61336C1491.13 6.61336 1492.61 5.13366 1492.61 3.30836C1492.61 1.48306 1491.13 0.00335693 1489.31 0.00335693C1487.48 0.00335693 1486 1.48306 1486 3.30836C1486 5.13366 1487.48 6.61336 1489.31 6.61336Z" fill="#E3E3E3"/>
<path d="M1489.31 96.6134C1491.13 96.6134 1492.61 95.1337 1492.61 93.3084C1492.61 91.4831 1491.13 90.0034 1489.31 90.0034C1487.48 90.0034 1486 91.4831 1486 93.3084C1486 95.1337 1487.48 96.6134 1489.31 96.6134Z" fill="#E3E3E3"/>
<path d="M1489.31 186.613C1491.13 186.613 1492.61 185.134 1492.61 183.308C1492.61 181.483 1491.13 180.003 1489.31 180.003C1487.48 180.003 1486 181.483 1486 183.308C1486 185.134 1487.48 186.613 1489.31 186.613Z" fill="#E3E3E3"/>
<path d="M1489.31 276.613C1491.13 276.613 1492.61 275.134 1492.61 273.308C1492.61 271.483 1491.13 270.003 1489.31 270.003C1487.48 270.003 1486 271.483 1486 273.308C1486 275.134 1487.48 276.613 1489.31 276.613Z" fill="#E3E3E3"/>
<path d="M1489.31 366.612C1491.13 366.612 1492.61 365.133 1492.61 363.307C1492.61 361.482 1491.13 360.002 1489.31 360.002C1487.48 360.002 1486 361.482 1486 363.307C1486 365.133 1487.48 366.612 1489.31 366.612Z" fill="#E3E3E3"/>
<path d="M1489.31 456.612C1491.13 456.612 1492.61 455.133 1492.61 453.307C1492.61 451.482 1491.13 450.002 1489.31 450.002C1487.48 450.002 1486 451.482 1486 453.307C1486 455.133 1487.48 456.612 1489.31 456.612Z" fill="#E3E3E3"/>
<path d="M1489.31 546.612C1491.13 546.612 1492.61 545.133 1492.61 543.307C1492.61 541.482 1491.13 540.002 1489.31 540.002C1487.48 540.002 1486 541.482 1486 543.307C1486 545.133 1487.48 546.612 1489.31 546.612Z" fill="#E3E3E3"/>
<path d="M1489.31 636.612C1491.13 636.612 1492.61 635.133 1492.61 633.307C1492.61 631.482 1491.13 630.002 1489.31 630.002C1487.48 630.002 1486 631.482 1486 633.307C1486 635.133 1487.48 636.612 1489.31 636.612Z" fill="#E3E3E3"/>
<path d="M1489.31 726.612C1491.13 726.612 1492.61 725.133 1492.61 723.307C1492.61 721.482 1491.13 720.002 1489.31 720.002C1487.48 720.002 1486 721.482 1486 723.307C1486 725.133 1487.48 726.612 1489.31 726.612Z" fill="#E3E3E3"/>
<path d="M1489.31 816.612C1491.13 816.612 1492.61 815.133 1492.61 813.307C1492.61 811.482 1491.13 810.002 1489.31 810.002C1487.48 810.002 1486 811.482 1486 813.307C1486 815.133 1487.48 816.612 1489.31 816.612Z" fill="#E3E3E3"/>
<path d="M1489.31 906.612C1491.13 906.612 1492.61 905.133 1492.61 903.307C1492.61 901.482 1491.13 900.002 1489.31 900.002C1487.48 900.002 1486 901.482 1486 903.307C1486 905.133 1487.48 906.612 1489.31 906.612Z" fill="#E3E3E3"/>
<path d="M1489.31 996.612C1491.13 996.612 1492.61 995.133 1492.61 993.307C1492.61 991.482 1491.13 990.002 1489.31 990.002C1487.48 990.002 1486 991.482 1486 993.307C1486 995.133 1487.48 996.612 1489.31 996.612Z" fill="#E3E3E3"/>
<path d="M1489.31 1086.61C1491.13 1086.61 1492.61 1085.13 1492.61 1083.31C1492.61 1081.48 1491.13 1080 1489.31 1080C1487.48 1080 1486 1081.48 1486 1083.31C1486 1085.13 1487.48 1086.61 1489.31 1086.61Z" fill="#E3E3E3"/>
<path d="M1585.31 6.61336C1587.13 6.61336 1588.61 5.13366 1588.61 3.30836C1588.61 1.48306 1587.13 0.00335693 1585.31 0.00335693C1583.48 0.00335693 1582 1.48306 1582 3.30836C1582 5.13366 1583.48 6.61336 1585.31 6.61336Z" fill="#E3E3E3"/>
<path d="M1585.31 96.6134C1587.13 96.6134 1588.61 95.1337 1588.61 93.3084C1588.61 91.4831 1587.13 90.0034 1585.31 90.0034C1583.48 90.0034 1582 91.4831 1582 93.3084C1582 95.1337 1583.48 96.6134 1585.31 96.6134Z" fill="#E3E3E3"/>
<path d="M1585.31 186.613C1587.13 186.613 1588.61 185.134 1588.61 183.308C1588.61 181.483 1587.13 180.003 1585.31 180.003C1583.48 180.003 1582 181.483 1582 183.308C1582 185.134 1583.48 186.613 1585.31 186.613Z" fill="#E3E3E3"/>
<path d="M1585.31 276.613C1587.13 276.613 1588.61 275.134 1588.61 273.308C1588.61 271.483 1587.13 270.003 1585.31 270.003C1583.48 270.003 1582 271.483 1582 273.308C1582 275.134 1583.48 276.613 1585.31 276.613Z" fill="#E3E3E3"/>
<path d="M1585.31 366.612C1587.13 366.612 1588.61 365.133 1588.61 363.307C1588.61 361.482 1587.13 360.002 1585.31 360.002C1583.48 360.002 1582 361.482 1582 363.307C1582 365.133 1583.48 366.612 1585.31 366.612Z" fill="#E3E3E3"/>
<path d="M1585.31 456.612C1587.13 456.612 1588.61 455.133 1588.61 453.307C1588.61 451.482 1587.13 450.002 1585.31 450.002C1583.48 450.002 1582 451.482 1582 453.307C1582 455.133 1583.48 456.612 1585.31 456.612Z" fill="#E3E3E3"/>
<path d="M1585.31 546.612C1587.13 546.612 1588.61 545.133 1588.61 543.307C1588.61 541.482 1587.13 540.002 1585.31 540.002C1583.48 540.002 1582 541.482 1582 543.307C1582 545.133 1583.48 546.612 1585.31 546.612Z" fill="#E3E3E3"/>
<path d="M1585.31 636.612C1587.13 636.612 1588.61 635.133 1588.61 633.307C1588.61 631.482 1587.13 630.002 1585.31 630.002C1583.48 630.002 1582 631.482 1582 633.307C1582 635.133 1583.48 636.612 1585.31 636.612Z" fill="#E3E3E3"/>
<path d="M1585.31 726.612C1587.13 726.612 1588.61 725.133 1588.61 723.307C1588.61 721.482 1587.13 720.002 1585.31 720.002C1583.48 720.002 1582 721.482 1582 723.307C1582 725.133 1583.48 726.612 1585.31 726.612Z" fill="#E3E3E3"/>
<path d="M1585.31 816.612C1587.13 816.612 1588.61 815.133 1588.61 813.307C1588.61 811.482 1587.13 810.002 1585.31 810.002C1583.48 810.002 1582 811.482 1582 813.307C1582 815.133 1583.48 816.612 1585.31 816.612Z" fill="#E3E3E3"/>
<path d="M1585.31 906.612C1587.13 906.612 1588.61 905.133 1588.61 903.307C1588.61 901.482 1587.13 900.002 1585.31 900.002C1583.48 900.002 1582 901.482 1582 903.307C1582 905.133 1583.48 906.612 1585.31 906.612Z" fill="#E3E3E3"/>
<path d="M1585.31 996.612C1587.13 996.612 1588.61 995.133 1588.61 993.307C1588.61 991.482 1587.13 990.002 1585.31 990.002C1583.48 990.002 1582 991.482 1582 993.307C1582 995.133 1583.48 996.612 1585.31 996.612Z" fill="#E3E3E3"/>
<path d="M1585.31 1086.61C1587.13 1086.61 1588.61 1085.13 1588.61 1083.31C1588.61 1081.48 1587.13 1080 1585.31 1080C1583.48 1080 1582 1081.48 1582 1083.31C1582 1085.13 1583.48 1086.61 1585.31 1086.61Z" fill="#E3E3E3"/>
<path d="M1681.31 6.61336C1683.13 6.61336 1684.61 5.13366 1684.61 3.30836C1684.61 1.48306 1683.13 0.00335693 1681.31 0.00335693C1679.48 0.00335693 1678 1.48306 1678 3.30836C1678 5.13366 1679.48 6.61336 1681.31 6.61336Z" fill="#E3E3E3"/>
<path d="M1681.31 96.6134C1683.13 96.6134 1684.61 95.1337 1684.61 93.3084C1684.61 91.4831 1683.13 90.0034 1681.31 90.0034C1679.48 90.0034 1678 91.4831 1678 93.3084C1678 95.1337 1679.48 96.6134 1681.31 96.6134Z" fill="#E3E3E3"/>
<path d="M1681.31 186.613C1683.13 186.613 1684.61 185.134 1684.61 183.308C1684.61 181.483 1683.13 180.003 1681.31 180.003C1679.48 180.003 1678 181.483 1678 183.308C1678 185.134 1679.48 186.613 1681.31 186.613Z" fill="#E3E3E3"/>
<path d="M1681.31 276.613C1683.13 276.613 1684.61 275.134 1684.61 273.308C1684.61 271.483 1683.13 270.003 1681.31 270.003C1679.48 270.003 1678 271.483 1678 273.308C1678 275.134 1679.48 276.613 1681.31 276.613Z" fill="#E3E3E3"/>
<path d="M1681.31 366.612C1683.13 366.612 1684.61 365.133 1684.61 363.307C1684.61 361.482 1683.13 360.002 1681.31 360.002C1679.48 360.002 1678 361.482 1678 363.307C1678 365.133 1679.48 366.612 1681.31 366.612Z" fill="#E3E3E3"/>
<path d="M1681.31 456.612C1683.13 456.612 1684.61 455.133 1684.61 453.307C1684.61 451.482 1683.13 450.002 1681.31 450.002C1679.48 450.002 1678 451.482 1678 453.307C1678 455.133 1679.48 456.612 1681.31 456.612Z" fill="#E3E3E3"/>
<path d="M1681.31 546.612C1683.13 546.612 1684.61 545.133 1684.61 543.307C1684.61 541.482 1683.13 540.002 1681.31 540.002C1679.48 540.002 1678 541.482 1678 543.307C1678 545.133 1679.48 546.612 1681.31 546.612Z" fill="#E3E3E3"/>
<path d="M1681.31 636.612C1683.13 636.612 1684.61 635.133 1684.61 633.307C1684.61 631.482 1683.13 630.002 1681.31 630.002C1679.48 630.002 1678 631.482 1678 633.307C1678 635.133 1679.48 636.612 1681.31 636.612Z" fill="#E3E3E3"/>
<path d="M1681.31 726.612C1683.13 726.612 1684.61 725.133 1684.61 723.307C1684.61 721.482 1683.13 720.002 1681.31 720.002C1679.48 720.002 1678 721.482 1678 723.307C1678 725.133 1679.48 726.612 1681.31 726.612Z" fill="#E3E3E3"/>
<path d="M1681.31 816.612C1683.13 816.612 1684.61 815.133 1684.61 813.307C1684.61 811.482 1683.13 810.002 1681.31 810.002C1679.48 810.002 1678 811.482 1678 813.307C1678 815.133 1679.48 816.612 1681.31 816.612Z" fill="#E3E3E3"/>
<path d="M1681.31 906.612C1683.13 906.612 1684.61 905.133 1684.61 903.307C1684.61 901.482 1683.13 900.002 1681.31 900.002C1679.48 900.002 1678 901.482 1678 903.307C1678 905.133 1679.48 906.612 1681.31 906.612Z" fill="#E3E3E3"/>
<path d="M1681.31 996.612C1683.13 996.612 1684.61 995.133 1684.61 993.307C1684.61 991.482 1683.13 990.002 1681.31 990.002C1679.48 990.002 1678 991.482 1678 993.307C1678 995.133 1679.48 996.612 1681.31 996.612Z" fill="#E3E3E3"/>
<path d="M1681.31 1086.61C1683.13 1086.61 1684.61 1085.13 1684.61 1083.31C1684.61 1081.48 1683.13 1080 1681.31 1080C1679.48 1080 1678 1081.48 1678 1083.31C1678 1085.13 1679.48 1086.61 1681.31 1086.61Z" fill="#E3E3E3"/>
<path d="M1777.31 6.61336C1779.13 6.61336 1780.61 5.13366 1780.61 3.30836C1780.61 1.48306 1779.13 0.00335693 1777.31 0.00335693C1775.48 0.00335693 1774 1.48306 1774 3.30836C1774 5.13366 1775.48 6.61336 1777.31 6.61336Z" fill="#E3E3E3"/>
<path d="M1777.31 96.6134C1779.13 96.6134 1780.61 95.1337 1780.61 93.3084C1780.61 91.4831 1779.13 90.0034 1777.31 90.0034C1775.48 90.0034 1774 91.4831 1774 93.3084C1774 95.1337 1775.48 96.6134 1777.31 96.6134Z" fill="#E3E3E3"/>
<path d="M1777.31 186.613C1779.13 186.613 1780.61 185.134 1780.61 183.308C1780.61 181.483 1779.13 180.003 1777.31 180.003C1775.48 180.003 1774 181.483 1774 183.308C1774 185.134 1775.48 186.613 1777.31 186.613Z" fill="#E3E3E3"/>
<path d="M1777.31 276.613C1779.13 276.613 1780.61 275.134 1780.61 273.308C1780.61 271.483 1779.13 270.003 1777.31 270.003C1775.48 270.003 1774 271.483 1774 273.308C1774 275.134 1775.48 276.613 1777.31 276.613Z" fill="#E3E3E3"/>
<path d="M1777.31 366.612C1779.13 366.612 1780.61 365.133 1780.61 363.307C1780.61 361.482 1779.13 360.002 1777.31 360.002C1775.48 360.002 1774 361.482 1774 363.307C1774 365.133 1775.48 366.612 1777.31 366.612Z" fill="#E3E3E3"/>
<path d="M1777.31 456.612C1779.13 456.612 1780.61 455.133 1780.61 453.307C1780.61 451.482 1779.13 450.002 1777.31 450.002C1775.48 450.002 1774 451.482 1774 453.307C1774 455.133 1775.48 456.612 1777.31 456.612Z" fill="#E3E3E3"/>
<path d="M1777.31 546.612C1779.13 546.612 1780.61 545.133 1780.61 543.307C1780.61 541.482 1779.13 540.002 1777.31 540.002C1775.48 540.002 1774 541.482 1774 543.307C1774 545.133 1775.48 546.612 1777.31 546.612Z" fill="#E3E3E3"/>
<path d="M1777.31 636.612C1779.13 636.612 1780.61 635.133 1780.61 633.307C1780.61 631.482 1779.13 630.002 1777.31 630.002C1775.48 630.002 1774 631.482 1774 633.307C1774 635.133 1775.48 636.612 1777.31 636.612Z" fill="#E3E3E3"/>
<path d="M1777.31 726.612C1779.13 726.612 1780.61 725.133 1780.61 723.307C1780.61 721.482 1779.13 720.002 1777.31 720.002C1775.48 720.002 1774 721.482 1774 723.307C1774 725.133 1775.48 726.612 1777.31 726.612Z" fill="#E3E3E3"/>
<path d="M1777.31 816.612C1779.13 816.612 1780.61 815.133 1780.61 813.307C1780.61 811.482 1779.13 810.002 1777.31 810.002C1775.48 810.002 1774 811.482 1774 813.307C1774 815.133 1775.48 816.612 1777.31 816.612Z" fill="#E3E3E3"/>
<path d="M1777.31 906.612C1779.13 906.612 1780.61 905.133 1780.61 903.307C1780.61 901.482 1779.13 900.002 1777.31 900.002C1775.48 900.002 1774 901.482 1774 903.307C1774 905.133 1775.48 906.612 1777.31 906.612Z" fill="#E3E3E3"/>
<path d="M1777.31 996.612C1779.13 996.612 1780.61 995.133 1780.61 993.307C1780.61 991.482 1779.13 990.002 1777.31 990.002C1775.48 990.002 1774 991.482 1774 993.307C1774 995.133 1775.48 996.612 1777.31 996.612Z" fill="#E3E3E3"/>
<path d="M1777.31 1086.61C1779.13 1086.61 1780.61 1085.13 1780.61 1083.31C1780.61 1081.48 1779.13 1080 1777.31 1080C1775.48 1080 1774 1081.48 1774 1083.31C1774 1085.13 1775.48 1086.61 1777.31 1086.61Z" fill="#E3E3E3"/>
<path d="M1873.31 6.61336C1875.13 6.61336 1876.61 5.13366 1876.61 3.30836C1876.61 1.48306 1875.13 0.00335693 1873.31 0.00335693C1871.48 0.00335693 1870 1.48306 1870 3.30836C1870 5.13366 1871.48 6.61336 1873.31 6.61336Z" fill="#E3E3E3"/>
<path d="M1873.31 96.6134C1875.13 96.6134 1876.61 95.1337 1876.61 93.3084C1876.61 91.4831 1875.13 90.0034 1873.31 90.0034C1871.48 90.0034 1870 91.4831 1870 93.3084C1870 95.1337 1871.48 96.6134 1873.31 96.6134Z" fill="#E3E3E3"/>
<path d="M1873.31 186.613C1875.13 186.613 1876.61 185.134 1876.61 183.308C1876.61 181.483 1875.13 180.003 1873.31 180.003C1871.48 180.003 1870 181.483 1870 183.308C1870 185.134 1871.48 186.613 1873.31 186.613Z" fill="#E3E3E3"/>
<path d="M1873.31 276.613C1875.13 276.613 1876.61 275.134 1876.61 273.308C1876.61 271.483 1875.13 270.003 1873.31 270.003C1871.48 270.003 1870 271.483 1870 273.308C1870 275.134 1871.48 276.613 1873.31 276.613Z" fill="#E3E3E3"/>
<path d="M1873.31 366.612C1875.13 366.612 1876.61 365.133 1876.61 363.307C1876.61 361.482 1875.13 360.002 1873.31 360.002C1871.48 360.002 1870 361.482 1870 363.307C1870 365.133 1871.48 366.612 1873.31 366.612Z" fill="#E3E3E3"/>
<path d="M1873.31 456.612C1875.13 456.612 1876.61 455.133 1876.61 453.307C1876.61 451.482 1875.13 450.002 1873.31 450.002C1871.48 450.002 1870 451.482 1870 453.307C1870 455.133 1871.48 456.612 1873.31 456.612Z" fill="#E3E3E3"/>
<path d="M1873.31 546.612C1875.13 546.612 1876.61 545.133 1876.61 543.307C1876.61 541.482 1875.13 540.002 1873.31 540.002C1871.48 540.002 1870 541.482 1870 543.307C1870 545.133 1871.48 546.612 1873.31 546.612Z" fill="#E3E3E3"/>
<path d="M1873.31 636.612C1875.13 636.612 1876.61 635.133 1876.61 633.307C1876.61 631.482 1875.13 630.002 1873.31 630.002C1871.48 630.002 1870 631.482 1870 633.307C1870 635.133 1871.48 636.612 1873.31 636.612Z" fill="#E3E3E3"/>
<path d="M1873.31 726.612C1875.13 726.612 1876.61 725.133 1876.61 723.307C1876.61 721.482 1875.13 720.002 1873.31 720.002C1871.48 720.002 1870 721.482 1870 723.307C1870 725.133 1871.48 726.612 1873.31 726.612Z" fill="#E3E3E3"/>
<path d="M1873.31 816.612C1875.13 816.612 1876.61 815.133 1876.61 813.307C1876.61 811.482 1875.13 810.002 1873.31 810.002C1871.48 810.002 1870 811.482 1870 813.307C1870 815.133 1871.48 816.612 1873.31 816.612Z" fill="#E3E3E3"/>
<path d="M1873.31 906.612C1875.13 906.612 1876.61 905.133 1876.61 903.307C1876.61 901.482 1875.13 900.002 1873.31 900.002C1871.48 900.002 1870 901.482 1870 903.307C1870 905.133 1871.48 906.612 1873.31 906.612Z" fill="#E3E3E3"/>
<path d="M1873.31 996.612C1875.13 996.612 1876.61 995.133 1876.61 993.307C1876.61 991.482 1875.13 990.002 1873.31 990.002C1871.48 990.002 1870 991.482 1870 993.307C1870 995.133 1871.48 996.612 1873.31 996.612Z" fill="#E3E3E3"/>
<path d="M1873.31 1086.61C1875.13 1086.61 1876.61 1085.13 1876.61 1083.31C1876.61 1081.48 1875.13 1080 1873.31 1080C1871.48 1080 1870 1081.48 1870 1083.31C1870 1085.13 1871.48 1086.61 1873.31 1086.61Z" fill="#E3E3E3"/>
</g>
<defs>
<clipPath id="clip0_47_19">
<rect width="1927" height="1087" fill="white" transform="translate(-50)"/>
</clipPath>
</defs>
</svg>
