<svg width="1920" height="1077" viewBox="0 0 1920 1077" fill="none" xmlns="http://www.w3.org/2000/svg">
<path fill-rule="evenodd" clip-rule="evenodd" d="M480.059 521.924C480.059 521.924 504.122 488.814 518.277 486.053C518.277 486.053 574.571 463.666 591.3 466.427C591.3 466.427 629.259 488.814 625.398 524.693C625.398 524.693 598.054 556.28 595.16 563.948C595.16 563.948 556.235 586.029 529.214 576.215C529.214 576.215 490.61 583.574 482.569 554.134C482.569 554.134 476.263 535.104 480.059 521.924Z" fill="#EBEBEB" fill-opacity="0.24"/>
<path fill-rule="evenodd" clip-rule="evenodd" d="M130.832 53.2825C130.832 53.2825 142.156 40.2808 154.251 43.9606C154.251 43.9606 174.838 46.6594 179.729 52.5475C179.729 52.5475 192.082 60.3978 191.309 73.6457C191.309 73.6457 197.486 95.4804 158.625 90.0844C158.625 90.0844 124.912 77.0811 130.832 53.2825Z" fill="#EBEBEB" fill-opacity="0.24"/>
<path fill-rule="evenodd" clip-rule="evenodd" d="M177.363 103.415C177.363 103.415 181.336 101.924 196.006 106.095C196.006 106.095 252.881 125.231 259.828 124.986C259.828 124.986 277.328 144.613 274.241 158.842C274.241 158.842 235.122 180.432 209.646 178.224C209.646 178.224 172.064 167.666 158.231 154.173C158.231 154.173 136.341 113.378 177.363 103.415Z" fill="#EBEBEB" fill-opacity="0.24"/>
<path fill-rule="evenodd" clip-rule="evenodd" d="M426.38 292.804C426.38 292.804 432.592 270.955 476.764 260.988C476.764 260.988 555.791 236.454 587.884 244.503C587.884 244.503 606.519 248.338 609.28 254.853C609.28 254.853 619.634 271.721 619.634 281.305C619.634 281.305 613.076 319.639 584.778 335.356C584.778 335.356 555.791 348.005 550.613 353.372C550.613 353.372 527.493 374.073 505.752 367.555C505.752 367.555 469.171 387.49 440.874 354.138C440.874 354.138 417.752 335.739 426.38 292.804Z" fill="#EBEBEB" fill-opacity="0.24"/>
<path fill-rule="evenodd" clip-rule="evenodd" d="M306.779 176.933C306.779 176.933 345.205 123.296 391.528 139.551C391.528 139.551 408.9 161.017 411.794 170.217C411.794 170.217 404.716 199.657 394.745 203.337C394.745 203.337 385.416 210.699 382.842 216.525C382.842 216.525 344.884 240.446 320.756 219.286C320.756 219.286 302.774 208.797 306.779 176.933Z" fill="#EBEBEB" fill-opacity="0.24"/>
<path fill-rule="evenodd" clip-rule="evenodd" d="M63.0237 187.084C63.0237 187.084 72.3524 174.51 94.87 172.67C94.87 172.67 126.075 168.071 153.419 176.964C153.419 176.964 197.49 196.284 198.454 209.164C198.454 209.164 201.671 245.045 192.664 248.418C192.664 248.418 174.649 270.191 134.759 261.606C134.759 261.606 101.947 243.818 82.3256 239.525C82.3256 239.525 46.939 220.818 63.0237 187.084Z" fill="#EBEBEB" fill-opacity="0.24"/>
<path fill-rule="evenodd" clip-rule="evenodd" d="M235.628 191.713C235.628 191.713 242.705 182.513 263.616 184.966C263.616 184.966 287.742 193.861 289.03 203.06C289.03 203.06 293.854 245.074 287.421 263.781C287.421 263.781 278.735 285.862 254.609 283.101C254.609 283.101 230.159 274.821 216.649 259.487C216.649 259.487 209.251 236.487 217.292 218.701C217.292 218.701 223.727 199.38 235.628 191.713Z" fill="#EBEBEB" fill-opacity="0.24"/>
<path fill-rule="evenodd" clip-rule="evenodd" d="M254.289 359.596C254.289 359.596 264.744 358.063 280.827 375.313C280.827 375.313 319.431 411.268 326.266 448.915C326.266 448.915 313.802 469.696 281.633 470.846C281.633 470.846 242.225 479.278 224.533 471.229C224.533 471.229 190.354 467.396 185.126 444.012C185.126 444.012 176.681 402.228 207.242 383.444C207.242 383.444 236.194 362.199 254.289 359.596Z" fill="#EBEBEB" fill-opacity="0.24"/>
<path fill-rule="evenodd" clip-rule="evenodd" d="M215.949 522.759C215.949 522.759 214.302 492.533 243.331 485.664C243.331 485.664 295.006 479.578 309.419 474.868C309.419 474.868 345.19 474.23 355.806 496.617C355.806 496.617 364.491 518.085 368.029 523.605C368.029 523.605 368.674 550.899 349.372 554.272C349.372 554.272 277.636 576.966 258.013 565.618C258.013 565.618 227.284 549.818 215.949 522.759Z" fill="#EBEBEB" fill-opacity="0.24"/>
<path fill-rule="evenodd" clip-rule="evenodd" d="M287.175 669.478C287.175 669.478 291.678 652.304 303.26 642.185C303.26 642.185 319.021 621.023 349.261 614.278C349.261 614.278 379.498 620.104 399.766 623.478C399.766 623.478 428.717 632.065 435.472 674.078C435.472 674.078 431.934 724.679 365.022 728.052C365.022 728.052 348.939 717.013 325.134 712.106C325.134 712.106 283.636 698.612 287.175 669.478Z" fill="#EBEBEB" fill-opacity="0.24"/>
<path fill-rule="evenodd" clip-rule="evenodd" d="M381.278 796.85C381.278 796.85 368.812 760.05 395.35 745.101C395.35 745.101 402.589 741.651 414.652 733.6C414.652 733.6 441.191 725.166 449.234 739.349C449.234 739.349 463.308 767.333 470.143 778.834C470.143 778.834 475.772 797.618 469.741 805.667C469.741 805.667 455.667 820.235 438.377 816.017C438.377 816.017 399.775 816.785 381.278 796.85Z" fill="#EBEBEB" fill-opacity="0.24"/>
<path fill-rule="evenodd" clip-rule="evenodd" d="M119.1 712.454C119.1 712.454 155.13 692.435 188.894 699.502C188.894 699.502 214.576 710.184 223.583 727.602C223.583 727.602 222.038 758.27 218.436 772.745C218.436 772.745 212.516 784.275 195.532 781.332C195.532 781.332 153.068 773.482 142.517 773.726C142.517 773.726 117.811 759.988 116.524 743.059C116.524 743.059 115.242 720.124 119.1 712.454Z" fill="#EBEBEB" fill-opacity="0.24"/>
<path fill-rule="evenodd" clip-rule="evenodd" d="M162.998 611.97C162.998 611.97 160.745 585.597 198.062 566.277C198.062 566.277 242.133 558.917 280.092 588.664C280.092 588.664 302.288 596.33 299.071 621.478C299.071 621.478 289.421 660.118 245.671 669.624C245.671 669.624 208.678 673.304 199.026 647.851C199.026 647.851 182.62 622.397 171.361 621.784C171.361 621.784 165.571 618.105 162.998 611.97Z" fill="#EBEBEB" fill-opacity="0.24"/>
<path fill-rule="evenodd" clip-rule="evenodd" d="M486.929 166.931C486.929 166.931 494.213 163.876 499.263 165.913C499.263 165.913 507.13 171.533 508.684 189.152C508.684 189.152 510.282 202.575 503.263 213.605C503.263 213.605 493.969 237.836 463.809 236.571C463.809 236.571 452.997 237.113 451.479 233.316C451.479 233.316 439.719 218.126 441.616 209.265C441.616 209.265 445.747 182.716 486.929 166.931Z" fill="#EBEBEB" fill-opacity="0.24"/>
<path fill-rule="evenodd" clip-rule="evenodd" d="M261.369 747.738C261.369 747.738 264.371 731.042 273.045 727.862C273.045 727.862 290.225 717.049 312.576 720.706C312.576 720.706 321.75 726.908 327.588 728.339C327.588 728.339 339.43 738.039 338.596 760.777C338.596 760.777 338.096 774.929 318.581 778.11C318.581 778.11 299.732 778.746 281.052 771.75C281.052 771.75 258.867 765.23 261.369 747.738Z" fill="#EBEBEB" fill-opacity="0.24"/>
<path fill-rule="evenodd" clip-rule="evenodd" d="M406.818 602.187C406.818 602.187 426.12 629.405 448.235 631.704C448.235 631.704 468.341 639.755 472.765 640.906C477.188 642.055 509.759 648.189 516.192 621.739C516.192 621.739 528.255 594.904 488.045 574.204C488.045 574.204 450.648 544.304 422.099 560.786C422.099 560.786 399.983 581.104 406.818 602.187Z" fill="#EBEBEB" fill-opacity="0.24"/>
<path fill-rule="evenodd" clip-rule="evenodd" d="M714.297 675.244C714.297 675.244 721.535 635.376 745.663 635.761C745.663 635.761 806.783 643.427 821.66 677.545C821.66 677.545 825.279 699.394 815.227 707.445C815.227 707.445 788.286 716.644 785.472 724.695C785.472 724.695 760.541 726.229 736.816 710.895C736.816 710.895 715.906 694.027 714.297 675.244Z" fill="#EBEBEB" fill-opacity="0.24"/>
<path fill-rule="evenodd" clip-rule="evenodd" d="M543.101 780.234C543.101 780.234 536.265 732.316 583.713 689.383C583.713 689.383 609.448 674.049 644.835 682.866C644.835 682.866 660.92 687.466 666.549 710.083C666.549 710.083 681.025 742.666 656.094 756.083C656.094 756.083 603.417 765.283 578.889 783.684C578.889 783.684 555.567 797.101 543.101 780.234Z" fill="#EBEBEB" fill-opacity="0.24"/>
<path fill-rule="evenodd" clip-rule="evenodd" d="M475.786 879.553C475.786 879.553 495.891 850.322 524.04 847.448C524.04 847.448 553.192 845.052 564.753 856.551C564.753 856.551 586.366 872.364 592.398 890.094C592.398 890.094 600.943 926.99 597.928 928.907C594.911 930.823 601.446 946.636 539.119 945.678C539.119 945.678 495.891 935.616 482.824 914.531C482.824 914.531 475.283 892.01 475.786 879.553Z" fill="#EBEBEB" fill-opacity="0.24"/>
<path fill-rule="evenodd" clip-rule="evenodd" d="M421.002 999.396C421.002 999.396 413.461 970.166 475.788 940.937C475.788 940.937 499.915 951.957 518.513 959.625C518.513 959.625 544.65 990.292 545.152 1012.33C545.152 1012.33 533.591 1053.54 498.408 1055.94C498.408 1055.94 477.8 1047.31 457.694 1043C457.694 1043 422.509 1018.56 421.002 999.396Z" fill="#EBEBEB" fill-opacity="0.24"/>
<path fill-rule="evenodd" clip-rule="evenodd" d="M168.167 918.45C168.167 918.45 175.234 868.287 216.858 873.528C216.858 873.528 285.972 869.035 311.103 893.743C311.103 893.743 335.45 925.188 287.543 943.157C287.543 943.157 267.123 975.351 209.005 952.141C209.005 952.141 196.44 946.152 168.167 918.45Z" fill="#EBEBEB" fill-opacity="0.24"/>
<path fill-rule="evenodd" clip-rule="evenodd" d="M354.423 863.23C354.423 863.23 379.053 825.854 404.185 831.604C404.185 831.604 445.903 833.522 458.973 862.75C458.973 862.75 483.601 902.043 442.385 939.897C442.385 939.897 409.713 960.022 375.534 945.648C375.534 945.648 359.953 925.523 347.889 914.022C347.889 914.022 341.356 882.396 354.423 863.23Z" fill="#EBEBEB" fill-opacity="0.24"/>
<path fill-rule="evenodd" clip-rule="evenodd" d="M145.91 1042.08C145.91 1042.08 157.49 1005.58 182.904 999.142C182.904 999.142 230.192 961.729 251.424 964.488C251.424 964.488 281.019 957.128 279.732 981.355C279.732 981.355 260.753 1000.37 257.535 1020C257.535 1020 226.332 1052.2 201.24 1053.42C201.24 1053.42 165.855 1061.7 145.91 1042.08Z" fill="#EBEBEB" fill-opacity="0.24"/>
<path fill-rule="evenodd" clip-rule="evenodd" d="M295.279 1009.91C295.279 1009.91 293.267 990.261 316.893 960.552C316.893 960.552 347.553 945.697 372.686 950.969C372.686 950.969 401.335 964.385 402.843 975.886C402.843 975.886 399.325 1007.03 354.088 1024.28C354.088 1024.28 340.516 1022.85 323.426 1025.72C323.426 1025.72 299.3 1020.93 295.279 1009.91Z" fill="#EBEBEB" fill-opacity="0.24"/>
<path fill-rule="evenodd" clip-rule="evenodd" d="M81.1116 449.553C81.1116 449.553 73.5728 423.199 73.5728 407.625C73.5728 407.625 91.1652 363.901 147.083 363.302C147.083 363.302 165.932 365.098 167.188 422.599C167.188 422.599 146.456 457.939 145.199 469.918C145.199 469.918 117.823 483.692 81.1116 449.553Z" fill="#EBEBEB" fill-opacity="0.24"/>
<path fill-rule="evenodd" clip-rule="evenodd" d="M362.972 479.938C362.972 479.938 347.893 484.731 346.007 448.793C346.007 448.793 347.893 420.642 388.104 438.011C388.104 438.011 447.164 453.585 454.702 486.527C454.702 486.527 471.038 518.872 435.854 528.456C435.854 528.456 417.005 544.028 395.015 520.07C395.015 520.07 376.794 503.898 362.972 479.938Z" fill="#EBEBEB" fill-opacity="0.24"/>
<path fill-rule="evenodd" clip-rule="evenodd" d="M737.724 800.419C737.724 800.419 744.634 765.679 804.95 745.314C804.95 745.314 855.844 721.356 877.206 731.538C877.206 731.538 921.813 742.919 921.813 765.081C921.813 765.081 916.787 796.826 882.232 806.409C882.232 806.409 815.633 830.368 794.898 842.347C794.898 842.347 762.226 851.331 748.405 838.155C748.405 838.155 738.981 823.779 737.724 800.419Z" fill="#EBEBEB" fill-opacity="0.24"/>
<path fill-rule="evenodd" clip-rule="evenodd" d="M935.827 762.858C935.827 762.858 913.836 706.555 960.959 681.397C960.959 681.397 1010.59 657.439 1033.84 681.397C1033.84 681.397 1060.23 712.544 1047.66 760.462C1047.66 760.462 1031.96 816.765 974.782 796.4C974.782 796.4 937.084 777.832 935.827 762.858Z" fill="#EBEBEB" fill-opacity="0.24"/>
<path fill-rule="evenodd" clip-rule="evenodd" d="M789.132 974.382C789.132 974.382 779.062 959.021 799.491 943.386C799.491 943.386 811.575 935.158 824.523 945.58C824.523 945.58 834.306 947.501 834.593 959.57C834.593 959.57 835.457 969.993 844.089 974.382C844.089 974.382 851.569 984.805 845.815 990.566C845.815 990.566 836.895 1000.71 819.344 996.874C819.344 996.874 802.368 990.017 789.132 974.382Z" fill="#EBEBEB" fill-opacity="0.24"/>
<path fill-rule="evenodd" clip-rule="evenodd" d="M52.91 851.38C52.91 851.38 44.0651 813.431 64.974 787.363C64.974 787.363 88.6984 769.73 107.597 773.18C107.597 773.18 128.508 781.612 130.92 791.962C130.92 791.962 144.189 807.296 121.27 839.113C121.27 839.113 99.9572 853.681 91.9157 862.498C91.9157 862.498 64.1705 870.547 52.91 851.38Z" fill="#EBEBEB" fill-opacity="0.24"/>
<path fill-rule="evenodd" clip-rule="evenodd" d="M155.714 846.191C155.714 846.191 147.349 841.59 154.105 816.444C154.105 816.444 165.043 794.669 184.988 806.63C184.988 806.63 203.966 828.098 202.036 848.644C202.036 848.644 199.464 869.191 181.449 860.604C181.449 860.604 163.434 847.112 155.714 846.191Z" fill="#EBEBEB" fill-opacity="0.24"/>
<path fill-rule="evenodd" clip-rule="evenodd" d="M329.042 290.864C329.042 290.864 314.887 264.184 335.477 251.611C335.477 251.611 357.03 251.303 366.68 246.397C366.68 246.397 401.101 245.477 403.031 274.611C403.031 274.611 402.71 312.638 393.702 331.958C393.702 331.958 386.946 350.972 359.281 340.545C359.281 340.545 335.477 335.024 329.042 290.864Z" fill="#EBEBEB" fill-opacity="0.24"/>
<path fill-rule="evenodd" clip-rule="evenodd" d="M423.829 137.434C423.829 137.434 462.783 150.568 484.774 125.31C484.774 125.31 501.738 101.063 502.994 87.4231C502.994 87.4231 494.199 47.5159 450.219 42.4648C450.219 42.4648 415.661 32.3612 401.211 49.5377C401.211 49.5377 388.644 87.4231 396.812 106.62C396.812 106.62 408.122 132.383 423.829 137.434Z" fill="#EBEBEB" fill-opacity="0.24"/>
<path fill-rule="evenodd" clip-rule="evenodd" d="M46.5903 250.644C46.5903 250.644 122.42 256.929 131.65 311.618C131.65 311.618 132.31 346.191 103.298 356.25C103.298 356.25 70.987 367.564 60.4378 344.934C60.4378 344.934 56.4807 328.591 39.9967 316.018C39.9967 316.018 30.1062 307.847 32.7428 276.416C32.7428 276.416 36.6999 253.158 46.5903 250.644Z" fill="#EBEBEB" fill-opacity="0.24"/>
<path fill-rule="evenodd" clip-rule="evenodd" d="M695.879 536.67C695.879 536.67 688.434 518.761 707.534 514.928C707.534 514.928 728.142 495.761 757.797 496.719C757.797 496.719 813.59 509.658 823.141 529.783C823.141 529.783 835.203 554.699 819.118 572.908C819.118 572.908 795.495 595.429 760.31 587.763C760.31 587.763 713.063 575.783 702.004 554.22C702.004 554.22 694.78 550.267 695.879 536.67Z" fill="#EBEBEB" fill-opacity="0.24"/>
<path fill-rule="evenodd" clip-rule="evenodd" d="M124.034 546.282C124.034 546.282 113.999 530.209 128.852 498.447C128.852 498.447 146.113 474.72 168.993 483.523C168.993 483.523 197.494 495.002 199.501 511.841C199.501 511.841 193.48 527.914 193.48 537.48C193.48 537.48 175.015 557.763 150.929 555.848C150.929 555.848 130.056 556.232 124.034 546.282Z" fill="#EBEBEB" fill-opacity="0.24"/>
<path fill-rule="evenodd" clip-rule="evenodd" d="M84.8172 972.589C84.8172 972.589 65.0263 944.738 136.902 931.799C136.902 931.799 179.124 934.195 183.146 962.946C183.146 962.946 179.124 1000.8 138.913 1007.51C138.913 1007.51 92.5459 997.566 84.8172 972.589Z" fill="#EBEBEB" fill-opacity="0.24"/>
<path fill-rule="evenodd" clip-rule="evenodd" d="M516.099 154.535C516.099 154.535 497.851 146.582 500.719 131.175C500.719 131.175 505.15 107.07 553.114 115.022C553.114 115.022 560.413 122.975 552.072 136.642C552.072 136.642 533.564 161.741 516.099 154.535Z" fill="#EBEBEB" fill-opacity="0.24"/>
<path fill-rule="evenodd" clip-rule="evenodd" d="M23.8229 588.335C23.8229 588.335 57.1239 556.59 126.865 567.37C126.865 567.37 144.455 576.355 142.572 599.115C142.572 599.115 133.147 615.288 128.121 627.866C128.121 627.866 74.0873 662.007 55.8675 659.012C49.8449 667.623 15.301 653.231 23.8229 588.335Z" fill="#EBEBEB" fill-opacity="0.24"/>
<path fill-rule="evenodd" clip-rule="evenodd" d="M859.124 272.587C859.124 272.587 848.128 177.5 905.462 161.029C905.462 161.029 955.724 152.794 965.149 160.281C965.149 160.281 982.427 206.699 969.862 229.162C969.862 229.162 930.593 271.089 925.095 285.315C925.095 285.315 885.826 315.262 859.124 272.587Z" fill="#EBEBEB" fill-opacity="0.24"/>
<path fill-rule="evenodd" clip-rule="evenodd" d="M741.172 264.837C741.172 264.837 732.376 211.53 781.383 187.57C781.383 187.57 809.656 164.81 839.186 170.8C839.186 170.8 858.662 199.55 853.009 221.113C853.009 221.113 849.867 257.65 834.16 281.009C834.16 281.009 801.488 306.765 774.471 285.802C774.471 285.802 754.995 281.009 741.172 264.837Z" fill="#EBEBEB" fill-opacity="0.24"/>
<path fill-rule="evenodd" clip-rule="evenodd" d="M897.547 967.447C897.547 967.447 877.455 958.607 885.184 929.433C885.184 929.433 883.328 894.365 939.279 904.089C939.279 904.089 953.808 916.76 964.935 920.297C964.935 920.297 980.082 933.264 966.172 963.322C966.172 963.322 954.117 998.685 920.114 981.593C920.114 981.593 906.204 969.805 897.547 967.447Z" fill="#EBEBEB" fill-opacity="0.24"/>
<path fill-rule="evenodd" clip-rule="evenodd" d="M899.926 78.996C899.926 78.996 904.325 122.721 931.342 135.899C931.342 135.899 943.279 152.67 979.721 131.705C979.721 131.705 1006.74 96.9651 998.57 80.7936C998.57 80.7936 995.427 50.8462 958.986 52.6421C958.986 52.6421 903.696 53.84 899.926 78.996Z" fill="#EBEBEB" fill-opacity="0.24"/>
<path fill-rule="evenodd" clip-rule="evenodd" d="M682.36 154.158C682.36 154.158 659.113 120.615 713.146 89.4701C713.146 89.4701 759.64 67.9059 793.568 99.6525C793.568 99.6525 823.098 140.382 801.107 161.945C801.107 161.945 792.939 172.127 774.092 179.914C774.092 179.914 759.64 188.898 710.633 170.329C710.633 170.329 691.155 166.736 682.36 154.158Z" fill="#EBEBEB" fill-opacity="0.24"/>
<path fill-rule="evenodd" clip-rule="evenodd" d="M793.756 898.864C793.756 898.864 832.458 936.718 856.586 929.531C856.586 929.531 884.733 922.343 876.691 872.989C876.691 872.989 872.166 841.363 821.903 842.8C821.903 842.8 781.692 855.259 793.756 898.864Z" fill="#EBEBEB" fill-opacity="0.24"/>
<path fill-rule="evenodd" clip-rule="evenodd" d="M975.789 864.134C975.789 864.134 970.37 831.147 1013.8 817.347C1013.8 817.347 1059.16 824.4 1076.53 825.015C1076.53 825.015 1105.8 836.667 1097.11 866.108C1097.11 866.108 1076.53 914.868 1027.95 904.748C1027.95 904.748 984.102 899.574 975.789 864.134Z" fill="#EBEBEB" fill-opacity="0.24"/>
<path fill-rule="evenodd" clip-rule="evenodd" d="M643.628 809.43C643.628 809.43 631.566 800.325 663.231 771.575C663.231 771.575 686.354 747.136 700.426 763.428C700.426 763.428 712.49 795.054 723.045 799.846C723.045 799.846 737.119 823.325 724.552 843.929C724.552 843.929 693.39 865.012 668.259 840.096C668.259 840.096 651.671 824.762 643.628 809.43Z" fill="#EBEBEB" fill-opacity="0.24"/>
<path fill-rule="evenodd" clip-rule="evenodd" d="M299.723 364.354C299.723 364.354 306.246 337.154 326.207 347.911C326.207 347.911 341.548 343.561 352.649 359.46C352.649 359.46 373.372 378.333 358.78 399.196C350.162 411.754 305.327 412.515 299.723 364.354Z" fill="#EBEBEB" fill-opacity="0.24"/>
<path fill-rule="evenodd" clip-rule="evenodd" d="M544.629 197.378C544.629 197.378 543.06 156.948 592.538 141.225C592.538 141.225 645.943 121.01 660.078 147.215C660.078 147.215 673.43 176.415 653.01 208.609C653.01 208.609 612.956 234.065 570.547 225.829C570.547 225.829 546.987 222.833 544.629 197.378Z" fill="#EBEBEB" fill-opacity="0.24"/>
<path fill-rule="evenodd" clip-rule="evenodd" d="M966.443 349.489C966.443 349.489 958.087 353.082 956.077 318.103C956.077 318.103 942.002 260.123 993.773 243.351C993.773 243.351 1037 238.56 1048.06 278.81C1048.06 278.81 1057.61 298.936 1042.53 324.81C1042.53 324.81 1009.48 363.623 966.443 349.489Z" fill="#EBEBEB" fill-opacity="0.24"/>
<path fill-rule="evenodd" clip-rule="evenodd" d="M741.866 766.592C741.866 766.592 753.105 757.534 752.048 748.065C752.048 748.065 749.209 733.257 738.41 727.123C738.41 727.123 721.161 706.187 705.733 721.202C705.733 721.202 689.45 734.002 706.135 756.358C706.135 756.358 721.556 772.316 741.866 766.592Z" fill="#EBEBEB" fill-opacity="0.24"/>
<path fill-rule="evenodd" clip-rule="evenodd" d="M868.827 687.608C868.827 687.608 866.376 714.092 881.084 720.323C881.084 720.323 890.071 721.492 897.016 729.28C897.016 729.28 917.035 738.628 922.346 713.702C922.346 713.702 921.938 677.87 896.199 682.933C896.199 682.933 883.943 675.144 868.827 687.608Z" fill="#EBEBEB" fill-opacity="0.24"/>
<path fill-rule="evenodd" clip-rule="evenodd" d="M639.395 549.095C639.395 549.095 617.453 606.984 651.795 617.092C651.795 617.092 677.551 648.334 705.215 633.631C705.215 633.631 732.879 594.119 706.17 571.148C706.17 571.148 655.612 523.366 639.395 549.095Z" fill="#EBEBEB" fill-opacity="0.24"/>
<path fill-rule="evenodd" clip-rule="evenodd" d="M399.785 374.453C399.785 374.453 373.082 375.95 381.72 402.154C381.72 402.154 381.72 435.847 422.56 439.59C422.56 439.59 465.756 449.323 451.618 407.395C451.618 407.395 427.272 378.944 399.785 374.453Z" fill="#EBEBEB" fill-opacity="0.24"/>
<path fill-rule="evenodd" clip-rule="evenodd" d="M572.66 119.202C572.66 119.202 561.098 125.433 567.131 85.6615C567.131 85.6615 563.611 31.0356 624.43 31.9938C624.43 31.9938 664.641 36.306 661.625 71.7651C661.625 71.7651 652.579 89.4946 651.573 100.036C651.573 100.036 616.389 132.62 572.66 119.202Z" fill="#EBEBEB" fill-opacity="0.24"/>
<path fill-rule="evenodd" clip-rule="evenodd" d="M904.822 880.09C904.822 880.09 881.701 871.464 888.739 845.59C888.739 845.59 877.178 802.464 924.425 800.069C924.425 800.069 952.071 784.256 964.636 816.361C964.636 816.361 969.664 862.84 947.045 885.361C947.045 885.361 925.933 889.194 904.822 880.09Z" fill="#EBEBEB" fill-opacity="0.24"/>
<path fill-rule="evenodd" clip-rule="evenodd" d="M70.1248 895.796C70.1248 895.796 69.1949 927.133 89.3003 929.05C89.3003 929.05 123.078 931.732 131.12 911.799C131.12 911.799 141.575 885.732 127.099 878.449C127.099 878.449 91.9637 867.524 70.1248 895.796Z" fill="#EBEBEB" fill-opacity="0.24"/>
<path fill-rule="evenodd" clip-rule="evenodd" d="M510.61 804.902C510.61 804.902 520.903 794.168 539.239 798.768C539.239 798.768 559.505 804.594 579.45 807.662C579.45 807.662 600.682 816.248 595.213 837.102C595.213 837.102 581.38 857.343 551.785 833.729C551.785 833.729 499.349 830.97 510.61 804.902Z" fill="#EBEBEB" fill-opacity="0.24"/>
<path fill-rule="evenodd" clip-rule="evenodd" d="M852.532 566.476C852.532 566.476 855.369 571.344 873.245 554.574C873.245 554.574 884.311 543.213 885.446 535.639C885.446 535.639 887.148 520.22 880.906 516.163C880.906 516.163 875.231 510.483 866.435 515.622C866.435 515.622 846.289 523.196 843.735 553.762C843.735 553.762 844.303 562.959 852.532 566.476Z" fill="#EBEBEB" fill-opacity="0.24"/>
<path fill-rule="evenodd" clip-rule="evenodd" d="M631.514 654.313C631.514 654.313 643.069 675.362 683.729 679.533C683.729 679.533 703.288 671.683 704.06 661.624C704.06 661.624 700.971 651.075 675.236 643.96C675.236 643.96 664.685 640.524 652.332 630.712C652.332 630.712 629.482 624.431 631.514 654.313Z" fill="#EBEBEB" fill-opacity="0.24"/>
<path fill-rule="evenodd" clip-rule="evenodd" d="M486.698 443.467C486.698 443.467 485.734 453.588 509.86 440.708C509.86 440.708 545.889 434.574 560.044 422.614C560.044 422.614 562.938 406.054 567.764 397.161C567.764 397.161 568.085 376.92 546.532 379.066C546.532 379.066 528.839 382.134 521.763 397.467C521.763 397.467 489.272 417.094 486.698 443.467Z" fill="#EBEBEB" fill-opacity="0.24"/>
<path fill-rule="evenodd" clip-rule="evenodd" d="M485.089 683.999C485.089 683.999 510.765 700.197 522.092 713.995C522.092 713.995 532.791 723.595 544.115 706.196C544.115 706.196 550.515 692.719 536.662 682.278C536.662 682.278 506.374 654.325 493.808 655.554C493.808 655.554 476.37 660.535 485.089 683.999Z" fill="#EBEBEB" fill-opacity="0.24"/>
<path fill-rule="evenodd" clip-rule="evenodd" d="M218.277 801.449C218.277 801.449 224.968 810.773 257.137 815.68C257.137 815.68 275.408 825.738 287.247 813.962C287.247 813.962 299.6 794.58 283.901 787.22C283.901 787.22 256.365 775.935 227.799 779.614C227.799 779.614 212.1 785.749 218.277 801.449Z" fill="#EBEBEB" fill-opacity="0.24"/>
<path fill-rule="evenodd" clip-rule="evenodd" d="M562.528 583.633C562.528 583.633 542.969 590.993 547.858 617.979C547.858 617.979 545.542 649.872 572.306 640.06C572.306 640.06 612.453 635.153 614.768 615.526C614.768 615.526 603.961 581.425 589.292 578.236C589.292 578.236 581.057 575.537 562.528 583.633Z" fill="#EBEBEB" fill-opacity="0.24"/>
<path fill-rule="evenodd" clip-rule="evenodd" d="M73.545 685.803C73.545 685.803 95.9752 696.857 118.858 687.668C118.858 687.668 165.811 687.629 178.916 673.031C178.916 673.031 184.92 654.949 180.129 651.395C180.129 651.395 144.638 638.742 116.192 655.922C116.192 655.922 79.3328 665.311 72.8709 674.461C72.8709 674.461 69.0084 683.368 73.545 685.803Z" fill="#EBEBEB" fill-opacity="0.24"/>
<path fill-rule="evenodd" clip-rule="evenodd" d="M353.734 802.236C353.734 802.236 372.618 814.693 348.254 842.811C348.254 842.811 334.656 865.076 314.154 873.744C314.154 873.744 273.096 883.306 302.92 843.552C302.92 843.552 337.165 794.075 353.734 802.236Z" fill="#EBEBEB" fill-opacity="0.24"/>
<path fill-rule="evenodd" clip-rule="evenodd" d="M1642.43 473.131C1642.43 473.131 1618.37 506.241 1604.21 509.002C1604.21 509.002 1547.92 531.389 1531.19 528.628C1531.19 528.628 1493.23 506.241 1497.09 470.362C1497.09 470.362 1524.43 438.775 1527.33 431.107C1527.33 431.107 1566.25 409.026 1593.27 418.84C1593.27 418.84 1631.88 411.481 1639.92 440.921C1639.92 440.921 1646.23 459.951 1642.43 473.131Z" fill="#EBEBEB" fill-opacity="0.24"/>
<path fill-rule="evenodd" clip-rule="evenodd" d="M1865.5 1042.42C1865.5 1042.42 1900.5 1033.1 1923.15 1015.19C1923.15 1015.19 1930.61 999 1920.83 980.354C1920.83 980.354 1883.52 954.103 1841.06 957.783C1841.06 957.783 1772.17 955.529 1740.41 967.028C1740.41 967.028 1716.68 985.429 1720.7 1008.43C1720.7 1008.43 1718.29 1031.81 1736.79 1042.16C1736.79 1042.16 1812.2 1051.24 1865.5 1042.42Z" fill="#EBEBEB" fill-opacity="0.24"/>
<path fill-rule="evenodd" clip-rule="evenodd" d="M1858.19 925.385C1858.19 925.385 1855.9 922.372 1858.18 908.277C1858.18 908.277 1870.35 852.717 1868.97 846.723C1868.97 846.723 1887.97 825.41 1904.28 823.739C1904.28 823.739 1934.52 851.283 1936.14 874.217C1936.14 874.217 1930.43 910.288 1917.64 926.515C1917.64 926.515 1875.82 958.162 1858.19 925.385Z" fill="#EBEBEB" fill-opacity="0.24"/>
<path fill-rule="evenodd" clip-rule="evenodd" d="M1711.21 707.599C1711.21 707.599 1703.97 729.449 1652.5 739.416C1652.5 739.416 1560.42 763.949 1523.02 755.9C1523.02 755.9 1501.31 752.066 1498.09 745.55C1498.09 745.55 1486.03 728.683 1486.03 719.098C1486.03 719.098 1493.67 680.765 1526.64 665.048C1526.64 665.048 1560.42 652.398 1566.45 647.031C1566.45 647.031 1593.39 626.331 1618.73 632.848C1618.73 632.848 1661.35 612.914 1694.32 646.265C1694.32 646.265 1721.26 664.665 1711.21 707.599Z" fill="#EBEBEB" fill-opacity="0.24"/>
<path fill-rule="evenodd" clip-rule="evenodd" d="M1815.71 818.122C1815.71 818.122 1777.28 871.759 1730.96 855.504C1730.96 855.504 1713.59 834.038 1710.69 824.838C1710.69 824.838 1717.77 795.398 1727.74 791.718C1727.74 791.718 1737.07 784.356 1739.65 778.53C1739.65 778.53 1777.6 754.609 1801.73 775.77C1801.73 775.77 1819.71 786.258 1815.71 818.122Z" fill="#EBEBEB" fill-opacity="0.24"/>
<path fill-rule="evenodd" clip-rule="evenodd" d="M1886.86 803.342C1886.86 803.342 1879.78 812.542 1858.87 810.089C1858.87 810.089 1834.75 801.194 1833.46 791.995C1833.46 791.995 1828.64 749.981 1835.07 731.274C1835.07 731.274 1843.75 709.193 1867.88 711.954C1867.88 711.954 1892.33 720.234 1905.84 735.568C1905.84 735.568 1913.24 758.568 1905.2 776.355C1905.2 776.355 1898.76 795.675 1886.86 803.342Z" fill="#EBEBEB" fill-opacity="0.24"/>
<path fill-rule="evenodd" clip-rule="evenodd" d="M1868.2 635.459C1868.2 635.459 1857.74 636.992 1841.66 619.742C1841.66 619.742 1803.06 583.787 1796.22 546.14C1796.22 546.14 1808.69 525.359 1840.86 524.209C1840.86 524.209 1880.26 515.777 1897.96 523.826C1897.96 523.826 1932.14 527.659 1937.36 551.043C1937.36 551.043 1945.81 592.827 1915.25 611.611C1915.25 611.611 1886.29 632.856 1868.2 635.459Z" fill="#EBEBEB" fill-opacity="0.24"/>
<path fill-rule="evenodd" clip-rule="evenodd" d="M1906.54 472.296C1906.54 472.296 1908.19 502.522 1879.16 509.392C1879.16 509.392 1827.48 515.477 1813.07 520.187C1813.07 520.187 1777.3 520.826 1766.68 498.438C1766.68 498.438 1758 476.97 1754.46 471.451C1754.46 471.451 1753.82 444.156 1773.12 440.783C1773.12 440.783 1844.85 418.089 1864.48 429.437C1864.48 429.437 1895.2 445.237 1906.54 472.296Z" fill="#EBEBEB" fill-opacity="0.24"/>
<path fill-rule="evenodd" clip-rule="evenodd" d="M1835.31 325.577C1835.31 325.577 1830.81 342.751 1819.23 352.87C1819.23 352.87 1803.47 374.032 1773.23 380.777C1773.23 380.777 1742.99 374.951 1722.72 371.577C1722.72 371.577 1693.77 362.991 1687.02 320.977C1687.02 320.977 1690.55 270.376 1757.47 267.003C1757.47 267.003 1773.55 278.042 1797.35 282.949C1797.35 282.949 1838.85 296.443 1835.31 325.577Z" fill="#EBEBEB" fill-opacity="0.24"/>
<path fill-rule="evenodd" clip-rule="evenodd" d="M1741.21 198.205C1741.21 198.205 1753.68 235.005 1727.14 249.954C1727.14 249.954 1719.9 253.405 1707.84 261.455C1707.84 261.455 1681.3 269.889 1673.26 255.706C1673.26 255.706 1659.18 227.722 1652.35 216.221C1652.35 216.221 1646.72 197.437 1652.75 189.388C1652.75 189.388 1666.82 174.82 1684.11 179.038C1684.11 179.038 1722.71 178.27 1741.21 198.205Z" fill="#EBEBEB" fill-opacity="0.24"/>
<path fill-rule="evenodd" clip-rule="evenodd" d="M1931.74 298.473C1931.74 298.473 1919.83 318.493 1908.66 311.426C1908.66 311.426 1900.16 300.744 1897.18 283.325C1897.18 283.325 1897.69 252.658 1898.89 238.183C1898.89 238.183 1900.84 226.653 1906.46 229.596C1906.46 229.596 1920.51 237.446 1924 237.202C1924 237.202 1932.17 250.94 1932.6 267.869C1932.6 267.869 1933.02 290.804 1931.74 298.473Z" fill="#EBEBEB" fill-opacity="0.24"/>
<path fill-rule="evenodd" clip-rule="evenodd" d="M1925.86 383.085C1925.86 383.085 1927.55 409.458 1899.44 428.778C1899.44 428.778 1866.24 436.138 1837.64 406.391C1837.64 406.391 1820.92 398.725 1823.35 373.577C1823.35 373.577 1830.62 334.937 1863.58 325.431C1863.58 325.431 1891.44 321.751 1898.72 347.204C1898.72 347.204 1911.07 372.658 1919.56 373.271C1919.56 373.271 1923.92 376.951 1925.86 383.085Z" fill="#EBEBEB" fill-opacity="0.24"/>
<path fill-rule="evenodd" clip-rule="evenodd" d="M1454.93 703.206C1454.93 703.206 1446.76 706.63 1441.1 704.348C1441.1 704.348 1432.28 698.048 1430.54 678.302C1430.54 678.302 1428.75 663.257 1436.62 650.894C1436.62 650.894 1447.04 623.735 1480.84 625.154C1480.84 625.154 1492.96 624.546 1494.66 628.802C1494.66 628.802 1507.84 645.827 1505.71 655.759C1505.71 655.759 1501.08 685.515 1454.93 703.206Z" fill="#EBEBEB" fill-opacity="0.24"/>
<path fill-rule="evenodd" clip-rule="evenodd" d="M1580.65 599.289C1580.65 599.289 1577.41 617.3 1568.05 620.73C1568.05 620.73 1549.52 632.395 1525.41 628.449C1525.41 628.449 1515.51 621.76 1509.21 620.216C1509.21 620.216 1496.44 609.753 1497.34 585.224C1497.34 585.224 1497.88 569.957 1518.93 566.526C1518.93 566.526 1539.26 565.841 1559.41 573.387C1559.41 573.387 1583.35 580.421 1580.65 599.289Z" fill="#EBEBEB" fill-opacity="0.24"/>
<path fill-rule="evenodd" clip-rule="evenodd" d="M1715.67 392.868C1715.67 392.868 1696.37 365.65 1674.25 363.351C1674.25 363.351 1654.15 355.3 1649.72 354.15C1645.3 353.001 1612.73 346.866 1606.3 373.316C1606.3 373.316 1594.23 400.151 1634.44 420.852C1634.44 420.852 1671.84 450.752 1700.39 434.269C1700.39 434.269 1722.51 413.951 1715.67 392.868Z" fill="#EBEBEB" fill-opacity="0.24"/>
<path fill-rule="evenodd" clip-rule="evenodd" d="M1395.27 310.231C1395.27 310.231 1388.03 350.098 1363.91 349.714C1363.91 349.714 1302.79 342.047 1287.91 307.93C1287.91 307.93 1284.29 286.08 1294.34 278.03C1294.34 278.03 1321.28 268.83 1324.1 260.779C1324.1 260.779 1349.03 259.246 1372.75 274.579C1372.75 274.579 1393.66 291.447 1395.27 310.231Z" fill="#EBEBEB" fill-opacity="0.24"/>
<path fill-rule="evenodd" clip-rule="evenodd" d="M1579.39 214.821C1579.39 214.821 1586.22 262.74 1538.78 305.672C1538.78 305.672 1513.04 321.006 1477.65 312.19C1477.65 312.19 1461.57 307.589 1455.94 284.972C1455.94 284.972 1441.46 252.389 1466.4 238.972C1466.4 238.972 1519.07 229.772 1543.6 211.371C1543.6 211.371 1566.92 197.954 1579.39 214.821Z" fill="#EBEBEB" fill-opacity="0.24"/>
<path fill-rule="evenodd" clip-rule="evenodd" d="M1646.7 115.503C1646.7 115.503 1626.6 144.733 1598.45 147.608C1598.45 147.608 1569.3 150.003 1557.74 138.504C1557.74 138.504 1536.12 122.691 1530.09 104.962C1530.09 104.962 1521.55 68.0652 1524.56 66.1487C1527.58 64.2321 1521.04 48.4192 1583.37 49.3775C1583.37 49.3775 1626.6 59.4393 1639.66 80.5243C1639.66 80.5243 1647.21 103.045 1646.7 115.503Z" fill="#EBEBEB" fill-opacity="0.24"/>
<path fill-rule="evenodd" clip-rule="evenodd" d="M1931.93 76.6048C1931.93 76.6048 1925.92 126.769 1890.55 121.528C1890.55 121.528 1831.81 126.021 1810.46 101.313C1810.46 101.313 1789.77 69.8676 1830.48 51.8985C1830.48 51.8985 1847.83 19.7038 1897.22 42.914C1897.22 42.914 1907.9 48.9031 1931.93 76.6048Z" fill="#EBEBEB" fill-opacity="0.24"/>
<path fill-rule="evenodd" clip-rule="evenodd" d="M1768.07 131.826C1768.07 131.826 1743.44 169.201 1718.3 163.452C1718.3 163.452 1676.59 161.533 1663.52 132.305C1663.52 132.305 1638.89 93.0126 1680.1 55.1579C1680.1 55.1579 1712.78 35.0327 1746.96 49.4067C1746.96 49.4067 1762.54 69.5319 1774.6 81.0327C1774.6 81.0327 1781.13 112.659 1768.07 131.826Z" fill="#EBEBEB" fill-opacity="0.24"/>
<path fill-rule="evenodd" clip-rule="evenodd" d="M1759.52 515.117C1759.52 515.117 1774.6 510.324 1776.48 546.262C1776.48 546.262 1774.6 574.413 1734.39 557.044C1734.39 557.044 1675.33 541.471 1667.79 508.528C1667.79 508.528 1651.45 476.183 1686.64 466.599C1686.64 466.599 1705.48 451.027 1727.47 474.985C1727.47 474.985 1745.7 491.157 1759.52 515.117Z" fill="#EBEBEB" fill-opacity="0.24"/>
<path fill-rule="evenodd" clip-rule="evenodd" d="M1400.56 180.946C1400.56 180.946 1393.66 215.687 1333.34 236.051C1333.34 236.051 1282.45 260.01 1261.08 249.827C1261.08 249.827 1216.48 238.447 1216.48 216.285C1216.48 216.285 1221.5 184.54 1256.06 174.957C1256.06 174.957 1322.66 150.997 1343.39 139.019C1343.39 139.019 1376.06 130.034 1389.88 143.211C1389.88 143.211 1399.31 157.586 1400.56 180.946Z" fill="#EBEBEB" fill-opacity="0.24"/>
<path fill-rule="evenodd" clip-rule="evenodd" d="M1041.89 192.542C1041.89 192.542 1051.97 218.355 1030.37 229.889C1030.37 229.889 1007.61 240.873 996.955 229.889C996.955 229.889 984.857 215.609 990.618 193.64C990.618 193.64 997.82 167.827 1024.03 177.163C1024.03 177.163 1041.32 185.677 1041.89 192.542Z" fill="#EBEBEB" fill-opacity="0.24"/>
<path fill-rule="evenodd" clip-rule="evenodd" d="M1912.65 159.99C1912.65 159.99 1921.01 164.59 1914.26 189.736C1914.26 189.736 1903.32 211.511 1883.38 199.551C1883.38 199.551 1864.4 178.082 1866.33 157.537C1866.33 157.537 1868.9 136.99 1886.91 145.576C1886.91 145.576 1904.93 159.069 1912.65 159.99Z" fill="#EBEBEB" fill-opacity="0.24"/>
<path fill-rule="evenodd" clip-rule="evenodd" d="M1793.45 704.191C1793.45 704.191 1807.6 730.871 1787.01 743.444C1787.01 743.444 1765.46 743.752 1755.81 748.658C1755.81 748.658 1721.39 749.579 1719.46 720.444C1719.46 720.444 1719.78 682.417 1728.79 663.097C1728.79 663.097 1735.54 644.083 1763.21 654.51C1763.21 654.51 1787.01 660.031 1793.45 704.191Z" fill="#EBEBEB" fill-opacity="0.24"/>
<path fill-rule="evenodd" clip-rule="evenodd" d="M1720.2 847.128C1720.2 847.128 1681.25 831.555 1659.25 861.504C1659.25 861.504 1642.29 890.254 1641.03 906.427C1641.03 906.427 1649.83 953.745 1693.81 959.734C1693.81 959.734 1728.37 971.714 1742.82 951.348C1742.82 951.348 1755.38 906.427 1747.22 883.665C1747.22 883.665 1735.91 853.118 1720.2 847.128Z" fill="#EBEBEB" fill-opacity="0.24"/>
<path fill-rule="evenodd" clip-rule="evenodd" d="M1426.61 458.385C1426.61 458.385 1434.05 476.294 1414.95 480.127C1414.95 480.127 1394.35 499.294 1364.69 498.336C1364.69 498.336 1308.9 485.397 1299.35 465.272C1299.35 465.272 1287.29 440.356 1303.37 422.147C1303.37 422.147 1326.99 399.626 1362.18 407.292C1362.18 407.292 1409.43 419.272 1420.48 440.835C1420.48 440.835 1427.71 444.789 1426.61 458.385Z" fill="#EBEBEB" fill-opacity="0.24"/>
<path fill-rule="evenodd" clip-rule="evenodd" d="M1233.16 475.651C1233.16 475.651 1245.73 495.776 1227.13 535.548C1227.13 535.548 1205.52 565.257 1176.87 554.235C1176.87 554.235 1141.18 539.861 1138.67 518.776C1138.67 518.776 1146.21 498.651 1146.21 486.673C1146.21 486.673 1169.33 461.276 1199.49 463.673C1199.49 463.673 1225.62 463.192 1233.16 475.651Z" fill="#EBEBEB" fill-opacity="0.24"/>
<path fill-rule="evenodd" clip-rule="evenodd" d="M1347.88 522.34C1347.88 522.34 1367.67 550.191 1295.8 563.129C1295.8 563.129 1253.57 560.734 1249.55 531.983C1249.55 531.983 1253.57 494.128 1293.79 487.42C1293.79 487.42 1340.15 497.363 1347.88 522.34Z" fill="#EBEBEB" fill-opacity="0.24"/>
<path fill-rule="evenodd" clip-rule="evenodd" d="M1331.22 1013.17C1331.22 1013.17 1349.04 1020.94 1346.24 1035.99C1346.24 1035.99 1341.91 1059.53 1295.06 1051.76C1295.06 1051.76 1287.93 1044 1296.08 1030.65C1296.08 1030.65 1314.16 1006.13 1331.22 1013.17Z" fill="#EBEBEB" fill-opacity="0.24"/>
<path fill-rule="evenodd" clip-rule="evenodd" d="M1263.48 719.391C1263.48 719.391 1273 801.721 1223.36 815.983C1223.36 815.983 1179.84 823.113 1171.68 816.63C1171.68 816.63 1156.72 776.439 1167.6 756.99C1167.6 756.99 1201.6 720.688 1206.36 708.371C1206.36 708.371 1240.36 682.441 1263.48 719.391Z" fill="#EBEBEB" fill-opacity="0.24"/>
<path fill-rule="evenodd" clip-rule="evenodd" d="M1381.32 730.218C1381.32 730.218 1390.11 783.525 1341.11 807.485C1341.11 807.485 1312.83 830.245 1283.3 824.255C1283.3 824.255 1263.83 795.505 1269.48 773.943C1269.48 773.943 1272.62 737.405 1288.33 714.046C1288.33 714.046 1321 688.29 1348.02 709.253C1348.02 709.253 1367.49 714.046 1381.32 730.218Z" fill="#EBEBEB" fill-opacity="0.24"/>
<path fill-rule="evenodd" clip-rule="evenodd" d="M1173.49 46.0232C1173.49 46.0232 1190.2 53.3711 1183.77 77.6214C1183.77 77.6214 1185.31 106.77 1138.81 98.6873C1138.81 98.6873 1126.73 88.1549 1117.48 85.2151C1117.48 85.2151 1104.89 74.4369 1116.45 49.4524C1116.45 49.4524 1126.47 20.0577 1154.74 34.2651C1154.74 34.2651 1166.3 44.0633 1173.49 46.0232Z" fill="#EBEBEB" fill-opacity="0.24"/>
<path fill-rule="evenodd" clip-rule="evenodd" d="M1222.56 916.059C1222.56 916.059 1218.16 872.334 1191.15 859.157C1191.15 859.157 1179.21 842.385 1142.77 863.35C1142.77 863.35 1115.75 898.09 1123.92 914.262C1123.92 914.262 1127.06 944.209 1163.5 942.413C1163.5 942.413 1218.79 941.215 1222.56 916.059Z" fill="#EBEBEB" fill-opacity="0.24"/>
<path fill-rule="evenodd" clip-rule="evenodd" d="M1440.13 840.897C1440.13 840.897 1463.38 874.44 1409.34 905.585C1409.34 905.585 1362.85 927.149 1328.92 895.403C1328.92 895.403 1299.39 854.673 1321.38 833.111C1321.38 833.111 1329.55 822.928 1348.4 815.142C1348.4 815.142 1362.85 806.157 1411.86 824.726C1411.86 824.726 1431.33 828.319 1440.13 840.897Z" fill="#EBEBEB" fill-opacity="0.24"/>
<path fill-rule="evenodd" clip-rule="evenodd" d="M1335.01 88.4885C1335.01 88.4885 1296.31 50.6338 1272.18 57.8208C1272.18 57.8208 1244.04 65.0094 1252.08 114.363C1252.08 114.363 1256.6 145.989 1306.87 144.552C1306.87 144.552 1347.08 132.093 1335.01 88.4885Z" fill="#EBEBEB" fill-opacity="0.24"/>
<path fill-rule="evenodd" clip-rule="evenodd" d="M1146.7 130.921C1146.7 130.921 1152.12 163.908 1108.69 177.708C1108.69 177.708 1063.33 170.655 1045.96 170.04C1045.96 170.04 1016.69 158.388 1025.38 128.948C1025.38 128.948 1045.96 80.1868 1094.54 90.3073C1094.54 90.3073 1138.39 95.4816 1146.7 130.921Z" fill="#EBEBEB" fill-opacity="0.24"/>
<path fill-rule="evenodd" clip-rule="evenodd" d="M1508.31 161.563C1508.31 161.563 1520.37 170.669 1488.71 199.418C1488.71 199.418 1465.59 223.857 1451.51 207.565C1451.51 207.565 1439.45 175.939 1428.89 171.148C1428.89 171.148 1414.82 147.669 1427.39 127.064C1427.39 127.064 1458.55 105.981 1483.68 130.897C1483.68 130.897 1500.27 146.231 1508.31 161.563Z" fill="#EBEBEB" fill-opacity="0.24"/>
<path fill-rule="evenodd" clip-rule="evenodd" d="M1577.86 797.678C1577.86 797.678 1579.43 838.107 1529.95 853.831C1529.95 853.831 1476.55 874.045 1462.41 847.84C1462.41 847.84 1449.06 818.64 1469.48 786.446C1469.48 786.446 1509.53 760.99 1551.94 769.226C1551.94 769.226 1575.5 772.222 1577.86 797.678Z" fill="#EBEBEB" fill-opacity="0.24"/>
<path fill-rule="evenodd" clip-rule="evenodd" d="M657.208 995.1C657.208 995.1 661.78 993.134 662.88 1012.27C662.88 1012.27 670.58 1043.99 642.256 1053.17C642.256 1053.17 618.606 1055.79 612.556 1033.77C612.556 1033.77 607.331 1022.76 615.581 1008.6C615.581 1008.6 633.662 987.367 657.208 995.1Z" fill="#EBEBEB" fill-opacity="0.24"/>
<path fill-rule="evenodd" clip-rule="evenodd" d="M1141.52 382.776C1141.52 382.776 1119.72 382.776 1111.49 395.322C1111.49 395.322 1099.97 416.104 1106.14 434.14C1106.14 434.14 1104.91 476.486 1137.4 473.348C1137.4 473.348 1168.66 473.74 1171.95 430.219C1171.95 430.219 1170.31 395.714 1141.52 382.776Z" fill="#EBEBEB" fill-opacity="0.24"/>
<path fill-rule="evenodd" clip-rule="evenodd" d="M1276.7 336.94C1276.7 336.94 1280.47 296.21 1257.85 286.628C1257.85 286.628 1244.03 284.83 1233.35 272.852C1233.35 272.852 1202.56 258.476 1194.4 296.81C1194.4 296.81 1195.02 351.915 1234.61 344.128C1234.61 344.128 1253.46 356.107 1276.7 336.94Z" fill="#EBEBEB" fill-opacity="0.24"/>
<path fill-rule="evenodd" clip-rule="evenodd" d="M1469.24 429.579C1469.24 429.579 1487.3 382.41 1459.03 374.174C1459.03 374.174 1437.83 348.718 1415.05 360.698C1415.05 360.698 1392.27 392.892 1414.26 411.609C1414.26 411.609 1455.89 450.543 1469.24 429.579Z" fill="#EBEBEB" fill-opacity="0.24"/>
<path fill-rule="evenodd" clip-rule="evenodd" d="M1794.49 647.286C1794.49 647.286 1821.2 645.788 1812.56 619.584C1812.56 619.584 1812.56 585.892 1771.72 582.148C1771.72 582.148 1728.52 572.416 1742.66 614.343C1742.66 614.343 1767.01 642.794 1794.49 647.286Z" fill="#EBEBEB" fill-opacity="0.24"/>
<path fill-rule="evenodd" clip-rule="evenodd" d="M1840.04 875.318C1840.04 875.318 1849.86 870.026 1844.73 903.802C1844.73 903.802 1847.72 950.194 1796.07 949.38C1796.07 949.38 1761.92 945.718 1764.49 915.604C1764.49 915.604 1772.17 900.547 1773.02 891.595C1773.02 891.595 1802.9 863.923 1840.04 875.318Z" fill="#EBEBEB" fill-opacity="0.24"/>
<path fill-rule="evenodd" clip-rule="evenodd" d="M1217.67 114.965C1217.67 114.965 1240.79 123.591 1233.75 149.465C1233.75 149.465 1245.31 192.591 1198.06 194.986C1198.06 194.986 1170.42 210.799 1157.85 178.694C1157.85 178.694 1152.83 132.215 1175.44 109.694C1175.44 109.694 1196.56 105.861 1217.67 114.965Z" fill="#EBEBEB" fill-opacity="0.24"/>
<path fill-rule="evenodd" clip-rule="evenodd" d="M1611.88 190.153C1611.88 190.153 1601.59 200.887 1583.25 196.287C1583.25 196.287 1562.98 190.461 1543.04 187.394C1543.04 187.394 1521.81 178.807 1527.28 157.953C1527.28 157.953 1541.11 137.712 1570.7 161.326C1570.7 161.326 1623.14 164.086 1611.88 190.153Z" fill="#EBEBEB" fill-opacity="0.24"/>
<path fill-rule="evenodd" clip-rule="evenodd" d="M62.4742 922.309C62.4742 922.309 59.0861 916.495 37.7387 936.522C37.7387 936.522 24.5238 950.089 23.1686 959.134C23.1686 959.134 21.1358 977.547 28.5908 982.392C28.5908 982.392 35.367 989.175 45.8713 983.038C45.8713 983.038 69.9292 973.993 72.9785 937.492C72.9785 937.492 72.3009 926.509 62.4742 922.309Z" fill="#EBEBEB" fill-opacity="0.24"/>
<path fill-rule="evenodd" clip-rule="evenodd" d="M1490.97 340.742C1490.97 340.742 1479.42 319.693 1438.76 315.522C1438.76 315.522 1419.2 323.373 1418.43 333.431C1418.43 333.431 1421.52 343.98 1447.25 351.095C1447.25 351.095 1457.8 354.531 1470.16 364.343C1470.16 364.343 1493.01 370.624 1490.97 340.742Z" fill="#EBEBEB" fill-opacity="0.24"/>
<path fill-rule="evenodd" clip-rule="evenodd" d="M1656.61 513.264C1656.61 513.264 1657.58 503.144 1633.45 516.023C1633.45 516.023 1597.42 522.158 1583.27 534.118C1583.27 534.118 1580.37 550.677 1575.55 559.571C1575.55 559.571 1575.22 579.812 1596.78 577.665C1596.78 577.665 1614.47 574.598 1621.55 559.264C1621.55 559.264 1654.04 539.638 1656.61 513.264Z" fill="#EBEBEB" fill-opacity="0.24"/>
<path fill-rule="evenodd" clip-rule="evenodd" d="M1166.56 212.875C1166.56 212.875 1150.15 202.525 1142.92 193.708C1142.92 193.708 1136.08 187.574 1128.84 198.691C1128.84 198.691 1124.75 207.303 1133.61 213.975C1133.61 213.975 1152.96 231.836 1160.99 231.051C1160.99 231.051 1172.13 227.868 1166.56 212.875Z" fill="#EBEBEB" fill-opacity="0.24"/>
<path fill-rule="evenodd" clip-rule="evenodd" d="M1858.27 184.845C1858.27 184.845 1851.58 175.521 1819.41 170.614C1819.41 170.614 1801.14 160.556 1789.3 172.332C1789.3 172.332 1776.95 191.714 1792.65 199.074C1792.65 199.074 1820.18 210.36 1848.75 206.68C1848.75 206.68 1864.45 200.545 1858.27 184.845Z" fill="#EBEBEB" fill-opacity="0.24"/>
<path fill-rule="evenodd" clip-rule="evenodd" d="M1663.59 337.507C1663.59 337.507 1681.46 330.781 1676.99 306.118C1676.99 306.118 1679.11 276.969 1654.65 285.937C1654.65 285.937 1617.96 290.422 1615.84 308.359C1615.84 308.359 1625.72 339.526 1639.13 342.44C1639.13 342.44 1646.65 344.907 1663.59 337.507Z" fill="#EBEBEB" fill-opacity="0.24"/>
<path fill-rule="evenodd" clip-rule="evenodd" d="M1390.66 370.967C1390.66 370.967 1372.19 356.292 1348.07 361.113C1348.07 361.113 1303.43 352.809 1287.21 364.598C1287.21 364.598 1276.84 381.017 1280.48 385.306C1280.48 385.306 1310.95 403.847 1342.42 392.287C1342.42 392.287 1379.88 389.755 1388.38 382.055C1388.38 382.055 1394.34 374.128 1390.66 370.967Z" fill="#EBEBEB" fill-opacity="0.24"/>
<path fill-rule="evenodd" clip-rule="evenodd" d="M1810.94 151.374C1810.94 151.374 1796.09 155.551 1788.47 138.867C1788.47 138.867 1780.24 127.877 1782.91 117.67C1782.91 117.67 1793 99.2217 1805.56 121.008C1805.56 121.008 1822.3 147.001 1810.94 151.374Z" fill="#EBEBEB" fill-opacity="0.24"/>
<path fill-rule="evenodd" clip-rule="evenodd" d="M1159.96 640.273C1159.96 640.273 1138.81 670.001 1126.37 672.48C1126.37 672.48 1076.9 692.58 1062.2 690.101C1062.2 690.101 1028.85 670.001 1032.24 637.787C1032.24 637.787 1056.27 609.427 1058.81 602.542C1058.81 602.542 1093.02 582.717 1116.76 591.529C1116.76 591.529 1150.69 584.921 1157.75 611.354C1157.75 611.354 1163.29 628.44 1159.96 640.273Z" fill="#EBEBEB" fill-opacity="0.24"/>
<path fill-rule="evenodd" clip-rule="evenodd" d="M1462.51 1051.93C1462.51 1051.93 1458.53 1053.17 1443.86 1049.7C1443.86 1049.7 1386.99 1033.79 1380.04 1034C1380.04 1034 1362.54 1017.68 1365.63 1005.86C1365.63 1005.86 1404.75 987.913 1430.22 989.749C1430.22 989.749 1467.8 998.524 1481.64 1009.74C1481.64 1009.74 1503.53 1043.65 1462.51 1051.93Z" fill="#EBEBEB" fill-opacity="0.24"/>
<path fill-rule="evenodd" clip-rule="evenodd" d="M1924.64 677.871C1924.64 677.871 1921.35 687.803 1897.95 692.334C1897.95 692.334 1856.09 703.486 1839.09 699.827C1839.09 699.827 1829.22 698.084 1827.76 695.123C1827.76 695.123 1822.28 687.455 1822.28 683.098C1822.28 683.098 1825.75 665.673 1840.74 658.529C1840.74 658.529 1856.09 652.778 1858.83 650.339C1858.83 650.339 1871.08 640.929 1882.6 643.892C1882.6 643.892 1901.97 634.83 1916.96 649.991C1916.96 649.991 1929.21 658.354 1924.64 677.871Z" fill="#EBEBEB" fill-opacity="0.24"/>
<path fill-rule="evenodd" clip-rule="evenodd" d="M1311.55 984.219C1311.55 984.219 1273.12 1037.86 1226.8 1021.6C1226.8 1021.6 1209.43 1000.13 1206.53 990.935C1206.53 990.935 1213.61 961.495 1223.58 957.815C1223.58 957.815 1232.91 950.453 1235.49 944.627C1235.49 944.627 1273.44 920.707 1297.57 941.867C1297.57 941.867 1315.55 952.355 1311.55 984.219Z" fill="#EBEBEB" fill-opacity="0.24"/>
<path fill-rule="evenodd" clip-rule="evenodd" d="M1576.85 980.913C1576.85 980.913 1567.52 993.487 1545 995.327C1545 995.327 1513.79 999.926 1486.45 991.033C1486.45 991.033 1442.38 971.713 1441.42 958.834C1441.42 958.834 1438.2 922.952 1447.21 919.579C1447.21 919.579 1465.22 897.806 1505.11 906.391C1505.11 906.391 1537.92 924.18 1557.54 928.472C1557.54 928.472 1592.93 947.18 1576.85 980.913Z" fill="#EBEBEB" fill-opacity="0.24"/>
<path fill-rule="evenodd" clip-rule="evenodd" d="M1411.17 977.179C1411.17 977.179 1407 982.595 1394.69 981.151C1394.69 981.151 1380.49 975.915 1379.73 970.499C1379.73 970.499 1376.89 945.768 1380.68 934.755C1380.68 934.755 1385.79 921.757 1400 923.382C1400 923.382 1414.39 928.257 1422.34 937.283C1422.34 937.283 1426.7 950.822 1421.96 961.293C1421.96 961.293 1418.17 972.666 1411.17 977.179Z" fill="#EBEBEB" fill-opacity="0.24"/>
<path fill-rule="evenodd" clip-rule="evenodd" d="M1604.16 924.417C1604.16 924.417 1597.73 925.36 1587.84 914.751C1587.84 914.751 1564.09 892.638 1559.89 869.483C1559.89 869.483 1567.56 856.703 1587.34 855.995C1587.34 855.995 1611.58 850.809 1622.46 855.76C1622.46 855.76 1643.48 858.117 1646.69 872.499C1646.69 872.499 1651.89 898.197 1633.09 909.75C1633.09 909.75 1615.29 922.816 1604.16 924.417Z" fill="#EBEBEB" fill-opacity="0.24"/>
<path fill-rule="evenodd" clip-rule="evenodd" d="M1423.92 645.238C1423.92 645.238 1425.57 675.464 1396.54 682.333C1396.54 682.333 1344.86 688.419 1330.45 693.129C1330.45 693.129 1294.68 693.767 1284.06 671.38C1284.06 671.38 1275.38 649.912 1271.84 644.392C1271.84 644.392 1271.2 617.098 1290.5 613.725C1290.5 613.725 1362.23 591.031 1381.86 602.379C1381.86 602.379 1412.58 618.179 1423.92 645.238Z" fill="#EBEBEB" fill-opacity="0.24"/>
<path fill-rule="evenodd" clip-rule="evenodd" d="M1279.87 603.085C1279.87 603.085 1277.18 613.343 1270.26 619.387C1270.26 619.387 1260.85 632.027 1242.79 636.056C1242.79 636.056 1224.72 632.576 1212.62 630.561C1212.62 630.561 1195.33 625.432 1191.29 600.337C1191.29 600.337 1193.4 570.112 1233.37 568.097C1233.37 568.097 1242.98 574.691 1257.2 577.622C1257.2 577.622 1281.98 585.683 1279.87 603.085Z" fill="#EBEBEB" fill-opacity="0.24"/>
<path fill-rule="evenodd" clip-rule="evenodd" d="M1258.59 371.147C1258.59 371.147 1271.06 407.947 1244.52 422.896C1244.52 422.896 1237.28 426.346 1225.22 434.397C1225.22 434.397 1198.68 442.831 1190.64 428.648C1190.64 428.648 1176.56 400.664 1169.73 389.163C1169.73 389.163 1164.1 370.379 1170.13 362.33C1170.13 362.33 1184.2 347.762 1201.49 351.98C1201.49 351.98 1240.09 351.212 1258.59 371.147Z" fill="#EBEBEB" fill-opacity="0.24"/>
<path fill-rule="evenodd" clip-rule="evenodd" d="M1460.74 793.49C1460.74 793.49 1437.66 806.318 1416.02 801.79C1416.02 801.79 1399.56 794.945 1393.79 783.783C1393.79 783.783 1394.78 764.131 1397.09 754.855C1397.09 754.855 1400.88 747.466 1411.77 749.352C1411.77 749.352 1438.98 754.383 1445.74 754.226C1445.74 754.226 1461.57 763.03 1462.4 773.878C1462.4 773.878 1463.22 788.575 1460.74 793.49Z" fill="#EBEBEB" fill-opacity="0.24"/>
<path fill-rule="evenodd" clip-rule="evenodd" d="M1476.87 556.027C1476.87 556.027 1479.12 582.4 1441.81 601.72C1441.81 601.72 1397.74 609.08 1359.78 579.333C1359.78 579.333 1337.58 571.667 1340.8 546.519C1340.8 546.519 1350.45 507.879 1394.2 498.373C1394.2 498.373 1431.19 494.693 1440.84 520.146C1440.84 520.146 1457.25 545.6 1468.51 546.213C1468.51 546.213 1474.3 549.893 1476.87 556.027Z" fill="#EBEBEB" fill-opacity="0.24"/>
<path fill-rule="evenodd" clip-rule="evenodd" d="M577.565 1017.3C577.565 1017.3 570.83 1020.13 566.161 1018.24C566.161 1018.24 558.887 1013.05 557.45 996.756C557.45 996.756 555.972 984.345 562.462 974.146C562.462 974.146 571.056 951.741 598.942 952.911C598.942 952.911 608.94 952.41 610.343 955.921C610.343 955.921 621.217 969.966 619.463 978.159C619.463 978.159 615.644 1002.71 577.565 1017.3Z" fill="#EBEBEB" fill-opacity="0.24"/>
<path fill-rule="evenodd" clip-rule="evenodd" d="M1190.54 994.669C1190.54 994.669 1187.5 1011.56 1178.73 1014.77C1178.73 1014.77 1161.36 1025.71 1138.75 1022.01C1138.75 1022.01 1129.47 1015.74 1123.56 1014.29C1123.56 1014.29 1111.59 1004.48 1112.43 981.482C1112.43 981.482 1112.94 967.168 1132.68 963.951C1132.68 963.951 1151.74 963.308 1170.63 970.384C1170.63 970.384 1193.07 976.978 1190.54 994.669Z" fill="#EBEBEB" fill-opacity="0.24"/>
<path fill-rule="evenodd" clip-rule="evenodd" d="M102.832 538.101C102.832 538.101 106.646 509.352 93.2744 495.008C93.2744 495.008 84.7792 478.132 82.5285 474.818C80.2779 471.506 62.2729 448.613 41.7282 461.901C41.7282 461.901 17.1832 472.162 31.349 508.876C31.349 508.876 37.9837 549.877 67.1904 555.869C67.1904 555.869 94.4521 555.651 102.832 538.101Z" fill="#EBEBEB" fill-opacity="0.24"/>
<path fill-rule="evenodd" clip-rule="evenodd" d="M939.902 467.529C939.902 467.529 932.664 507.396 908.536 507.011C908.536 507.011 847.416 499.345 832.538 465.228C832.538 465.228 828.919 443.378 838.971 435.327C838.971 435.327 865.913 426.128 868.727 418.077C868.727 418.077 893.658 416.543 917.383 431.877C917.383 431.877 938.293 448.745 939.902 467.529Z" fill="#EBEBEB" fill-opacity="0.24"/>
<path fill-rule="evenodd" clip-rule="evenodd" d="M1096.77 387.763C1096.77 387.763 1103.6 435.681 1056.16 478.614C1056.16 478.614 1030.42 493.948 995.034 485.131C995.034 485.131 978.95 480.531 973.32 457.914C973.32 457.914 958.844 425.331 983.775 411.914C983.775 411.914 1036.45 402.714 1060.98 384.313C1060.98 384.313 1084.3 370.896 1096.77 387.763Z" fill="#EBEBEB" fill-opacity="0.24"/>
<path fill-rule="evenodd" clip-rule="evenodd" d="M221.545 62.9928C221.545 62.9928 261.651 27.9281 325.914 35.9367C325.914 35.9367 353.513 45.2642 364.18 76.8315C364.18 76.8315 368.488 91.5519 350.828 109.87C350.828 109.87 328.754 140.945 303.329 131.008C303.329 131.008 267.081 98.0091 237.321 91.4921C237.321 91.4921 212.747 82.7384 221.545 62.9928Z" fill="#EBEBEB" fill-opacity="0.24"/>
<path fill-rule="evenodd" clip-rule="evenodd" d="M1178.43 291.18C1178.43 291.18 1158.33 320.411 1130.18 323.286C1130.18 323.286 1101.03 325.681 1089.47 314.182C1089.47 314.182 1067.85 298.369 1061.82 280.64C1061.82 280.64 1053.28 243.743 1056.29 241.826C1059.31 239.91 1052.77 224.097 1115.1 225.055C1115.1 225.055 1158.33 235.117 1171.39 256.202C1171.39 256.202 1178.94 278.723 1178.43 291.18Z" fill="#EBEBEB" fill-opacity="0.24"/>
<path fill-rule="evenodd" clip-rule="evenodd" d="M1068.64 62.3665C1068.64 62.3665 1072.51 77.3533 1040.55 92.3392C1040.55 92.3392 1028.18 86.689 1018.64 82.7577C1018.64 82.7577 1005.24 67.034 1004.99 55.7329C1004.99 55.7329 1010.91 34.6047 1028.95 33.3764C1028.95 33.3764 1039.52 37.7982 1049.83 40.01C1049.83 40.01 1067.87 52.5393 1068.64 62.3665Z" fill="#EBEBEB" fill-opacity="0.24"/>
<path fill-rule="evenodd" clip-rule="evenodd" d="M1447.29 242.17C1447.29 242.17 1442.91 273.227 1417.14 269.982C1417.14 269.982 1374.35 272.764 1358.8 257.467C1358.8 257.467 1343.72 237.999 1373.38 226.874C1373.38 226.874 1386.02 206.942 1422.01 221.311C1422.01 221.311 1429.78 225.019 1447.29 242.17Z" fill="#EBEBEB" fill-opacity="0.24"/>
<path fill-rule="evenodd" clip-rule="evenodd" d="M116.666 124.982C116.666 124.982 96.7572 163.465 76.443 157.545C76.443 157.545 42.7211 155.57 32.1571 125.475C32.1571 125.475 12.2492 85.0187 45.5649 46.0424C45.5649 46.0424 71.9742 25.3209 99.6023 40.1208C99.6023 40.1208 112.196 60.8423 121.948 72.6838C121.948 72.6838 127.229 105.247 116.666 124.982Z" fill="#EBEBEB" fill-opacity="0.24"/>
<path fill-rule="evenodd" clip-rule="evenodd" d="M1500.97 45.7275C1500.97 45.7275 1489.39 82.2213 1463.97 88.6619C1463.97 88.6619 1416.69 126.075 1395.45 123.316C1395.45 123.316 1365.86 130.676 1367.15 106.448C1367.15 106.448 1386.13 87.4348 1389.34 67.8083C1389.34 67.8083 1420.55 35.607 1445.64 34.3798C1445.64 34.3798 1481.02 26.101 1500.97 45.7275Z" fill="#EBEBEB" fill-opacity="0.24"/>
<path fill-rule="evenodd" clip-rule="evenodd" d="M745.881 44.7133C745.881 44.7133 747.142 57.0273 732.334 75.6489C732.334 75.6489 713.117 84.9597 697.363 81.6552C697.363 81.6552 679.406 73.2464 678.461 66.0378C678.461 66.0378 680.666 46.5152 709.02 35.7028C709.02 35.7028 717.527 36.6038 728.239 34.8019C728.239 34.8019 743.361 37.806 745.881 44.7133Z" fill="#EBEBEB" fill-opacity="0.24"/>
<path fill-rule="evenodd" clip-rule="evenodd" d="M1651.05 980.405C1651.05 980.405 1656.96 1001.08 1656.96 1013.3C1656.96 1013.3 1643.16 1047.61 1599.28 1048.08C1599.28 1048.08 1584.49 1046.67 1583.51 1001.55C1583.51 1001.55 1599.77 973.824 1600.76 964.425C1600.76 964.425 1622.24 953.617 1651.05 980.405Z" fill="#EBEBEB" fill-opacity="0.24"/>
<path fill-rule="evenodd" clip-rule="evenodd" d="M1221.04 664.469C1221.04 664.469 1228.01 662.254 1228.88 678.865C1228.88 678.865 1228.01 691.878 1209.42 683.849C1209.42 683.849 1182.12 676.651 1178.64 661.424C1178.64 661.424 1171.09 646.473 1187.35 642.043C1187.35 642.043 1196.06 634.846 1206.23 645.92C1206.23 645.92 1214.65 653.395 1221.04 664.469Z" fill="#EBEBEB" fill-opacity="0.24"/>
<path fill-rule="evenodd" clip-rule="evenodd" d="M902.145 367.578C902.145 367.578 895.235 402.318 834.919 422.683C834.919 422.683 784.025 446.641 762.664 436.459C762.664 436.459 718.056 425.079 718.056 402.916C718.056 402.916 723.082 371.171 757.638 361.589C757.638 361.589 824.236 337.629 844.971 325.65C844.971 325.65 877.643 316.666 891.464 329.842C891.464 329.842 900.889 344.218 902.145 367.578Z" fill="#EBEBEB" fill-opacity="0.24"/>
<path fill-rule="evenodd" clip-rule="evenodd" d="M702.478 409.607C702.478 409.607 719.623 453.503 682.885 473.118C682.885 473.118 644.186 491.797 626.062 473.118C626.062 473.118 605.488 448.834 615.284 411.475C615.284 411.475 627.532 367.578 672.107 383.455C672.107 383.455 701.499 397.933 702.478 409.607Z" fill="#EBEBEB" fill-opacity="0.24"/>
<path fill-rule="evenodd" clip-rule="evenodd" d="M884.733 70.149C884.733 70.149 898.888 91.7386 870.174 113.715C870.174 113.715 853.188 125.28 834.99 110.631C834.99 110.631 821.239 107.931 820.835 90.9677C820.835 90.9677 819.622 76.3171 807.489 70.149C807.489 70.149 796.975 55.4984 805.063 47.4015C805.063 47.4015 817.6 33.1365 842.269 38.5349C842.269 38.5349 866.13 48.1726 884.733 70.149Z" fill="#EBEBEB" fill-opacity="0.24"/>
<path fill-rule="evenodd" clip-rule="evenodd" d="M1586.96 316.617C1586.96 316.617 1595.8 354.566 1574.89 380.633C1574.89 380.633 1551.17 398.267 1532.27 394.817C1532.27 394.817 1511.36 386.384 1508.95 376.034C1508.95 376.034 1495.68 360.7 1518.6 328.884C1518.6 328.884 1539.91 314.316 1547.95 305.499C1547.95 305.499 1575.7 297.45 1586.96 316.617Z" fill="#EBEBEB" fill-opacity="0.24"/>
<path fill-rule="evenodd" clip-rule="evenodd" d="M1806.5 219.153C1806.5 219.153 1814.86 223.753 1808.11 248.9C1808.11 248.9 1797.17 270.674 1777.23 258.714C1777.23 258.714 1758.25 237.246 1760.18 216.7C1760.18 216.7 1762.75 196.153 1780.76 204.74C1780.76 204.74 1798.78 218.232 1806.5 219.153Z" fill="#EBEBEB" fill-opacity="0.24"/>
<path fill-rule="evenodd" clip-rule="evenodd" d="M1310.83 877.133C1310.83 877.133 1324.98 903.813 1304.39 916.386C1304.39 916.386 1282.84 916.694 1273.19 921.6C1273.19 921.6 1238.77 922.52 1236.84 893.386C1236.84 893.386 1237.16 855.359 1246.17 836.039C1246.17 836.039 1252.92 817.025 1280.59 827.452C1280.59 827.452 1304.39 832.973 1310.83 877.133Z" fill="#EBEBEB" fill-opacity="0.24"/>
<path fill-rule="evenodd" clip-rule="evenodd" d="M1662.62 842.437C1662.62 842.437 1604.68 837.634 1597.63 795.846C1597.63 795.846 1597.12 769.428 1619.29 761.742C1619.29 761.742 1643.98 753.097 1652.04 770.388C1652.04 770.388 1655.06 782.876 1667.66 792.483C1667.66 792.483 1675.22 798.727 1673.2 822.744C1673.2 822.744 1670.18 840.515 1662.62 842.437Z" fill="#EBEBEB" fill-opacity="0.24"/>
<path fill-rule="evenodd" clip-rule="evenodd" d="M943.99 631.327C943.99 631.327 951.435 649.236 932.334 653.069C932.334 653.069 911.726 672.236 882.072 671.278C882.072 671.278 826.279 658.339 816.728 638.214C816.728 638.214 804.666 613.298 820.75 595.089C820.75 595.089 844.374 572.568 879.559 580.234C879.559 580.234 926.806 592.214 937.865 613.777C937.865 613.777 945.089 617.73 943.99 631.327Z" fill="#EBEBEB" fill-opacity="0.24"/>
<path fill-rule="evenodd" clip-rule="evenodd" d="M526.744 735.125C526.744 735.125 533.487 745.926 523.506 767.27C523.506 767.27 511.907 783.215 496.531 777.3C496.531 777.3 477.378 769.586 476.03 758.27C476.03 758.27 480.076 747.469 480.076 741.04C480.076 741.04 492.484 727.41 508.67 728.697C508.67 728.697 522.697 728.439 526.744 735.125Z" fill="#EBEBEB" fill-opacity="0.24"/>
<path fill-rule="evenodd" clip-rule="evenodd" d="M387.67 582.26C387.67 582.26 400.581 600.429 353.692 608.869C353.692 608.869 326.149 607.306 323.525 588.55C323.525 588.55 326.149 563.856 352.381 559.48C352.381 559.48 382.628 565.966 387.67 582.26Z" fill="#EBEBEB" fill-opacity="0.24"/>
<path fill-rule="evenodd" clip-rule="evenodd" d="M1132.6 790.101C1132.6 790.101 1152.45 798.755 1149.33 815.52C1149.33 815.52 1144.51 841.75 1092.32 833.097C1092.32 833.097 1084.38 824.443 1093.45 809.571C1093.45 809.571 1113.59 782.259 1132.6 790.101Z" fill="#EBEBEB" fill-opacity="0.24"/>
<path fill-rule="evenodd" clip-rule="evenodd" d="M1708.5 602.414C1708.5 602.414 1684.28 625.496 1633.57 617.657C1633.57 617.657 1620.78 611.125 1622.15 594.575C1622.15 594.575 1629.01 582.815 1632.66 573.67C1632.66 573.67 1671.95 548.846 1685.2 551.024C1685.2 551.024 1704.84 569.315 1708.5 602.414Z" fill="#EBEBEB" fill-opacity="0.24"/>
<path fill-rule="evenodd" clip-rule="evenodd" d="M780.745 895.41C780.745 895.41 791.74 990.497 734.407 1006.97C734.407 1006.97 684.144 1015.2 674.72 1007.72C674.72 1007.72 657.442 961.298 670.007 938.835C670.007 938.835 709.276 896.908 714.773 882.683C714.773 882.683 754.042 852.735 780.745 895.41Z" fill="#EBEBEB" fill-opacity="0.24"/>
<path fill-rule="evenodd" clip-rule="evenodd" d="M1883.99 240.163C1883.99 240.163 1888.9 269.929 1861.53 283.308C1861.53 283.308 1845.75 296.018 1829.26 292.672C1829.26 292.672 1818.38 276.619 1821.54 264.578C1821.54 264.578 1823.29 244.176 1832.06 231.132C1832.06 231.132 1850.31 216.75 1865.39 228.456C1865.39 228.456 1876.27 231.132 1883.99 240.163Z" fill="#EBEBEB" fill-opacity="0.24"/>
<path fill-rule="evenodd" clip-rule="evenodd" d="M716.786 215.977C716.786 215.977 732.538 222.907 726.479 245.779C726.479 245.779 727.933 273.271 684.069 265.648C684.069 265.648 672.679 255.714 663.956 252.941C663.956 252.941 652.081 242.776 662.986 219.211C662.986 219.211 672.437 191.487 699.094 204.887C699.094 204.887 709.999 214.129 716.786 215.977Z" fill="#EBEBEB" fill-opacity="0.24"/>
<path fill-rule="evenodd" clip-rule="evenodd" d="M800.53 1039.59C800.53 1039.59 798.051 1014.95 782.825 1007.52C782.825 1007.52 776.097 998.068 755.559 1009.88C755.559 1009.88 740.334 1029.46 744.936 1038.58C744.936 1038.58 746.707 1055.45 767.245 1054.44C767.245 1054.44 798.405 1053.77 800.53 1039.59Z" fill="#EBEBEB" fill-opacity="0.24"/>
<path fill-rule="evenodd" clip-rule="evenodd" d="M957.509 1011.87C957.509 1011.87 980.757 1032.35 926.723 1051.37C926.723 1051.37 880.229 1064.54 846.301 1045.16C846.301 1045.16 816.771 1020.28 838.762 1007.11C838.762 1007.11 846.93 1000.89 865.777 996.135C865.777 996.135 880.229 990.648 929.236 1001.99C929.236 1001.99 948.714 1004.18 957.509 1011.87Z" fill="#EBEBEB" fill-opacity="0.24"/>
<path fill-rule="evenodd" clip-rule="evenodd" d="M883.842 141.189C883.842 141.189 864.629 122.397 852.652 125.964C852.652 125.964 838.679 129.533 842.671 154.034C842.671 154.034 844.917 169.734 869.869 169.02C869.869 169.02 889.83 162.835 883.842 141.189Z" fill="#EBEBEB" fill-opacity="0.24"/>
<path fill-rule="evenodd" clip-rule="evenodd" d="M659.178 336.316C659.178 336.316 661.393 349.802 643.639 355.444C643.639 355.444 625.095 352.56 617.993 352.309C617.993 352.309 606.026 347.545 609.577 335.509C609.577 335.509 617.993 315.574 637.852 319.712C637.852 319.712 655.779 321.827 659.178 336.316Z" fill="#EBEBEB" fill-opacity="0.24"/>
<path fill-rule="evenodd" clip-rule="evenodd" d="M980.889 381.905C980.889 381.905 991.015 389.548 964.435 413.68C964.435 413.68 945.026 434.195 933.213 420.519C933.213 420.519 923.086 393.972 914.227 389.95C914.227 389.95 902.413 370.242 912.961 352.946C912.961 352.946 939.119 335.249 960.215 356.164C960.215 356.164 974.138 369.035 980.889 381.905Z" fill="#EBEBEB" fill-opacity="0.24"/>
<path fill-rule="evenodd" clip-rule="evenodd" d="M246.321 302.994C246.321 302.994 264.416 336.537 235.264 342.765C235.264 342.765 224.206 360.495 199.074 353.787C199.074 353.787 161.879 352.35 157.356 318.328C157.356 318.328 199.577 272.807 246.321 302.994Z" fill="#EBEBEB" fill-opacity="0.24"/>
<path fill-rule="evenodd" clip-rule="evenodd" d="M1095.24 970.62C1095.24 970.62 1096.81 1011.05 1047.33 1026.77C1047.33 1026.77 993.927 1046.99 979.791 1020.78C979.791 1020.78 966.439 991.582 986.859 959.388C986.859 959.388 1026.91 933.932 1069.32 942.168C1069.32 942.168 1092.88 945.164 1095.24 970.62Z" fill="#EBEBEB" fill-opacity="0.24"/>
<path fill-rule="evenodd" clip-rule="evenodd" d="M670.087 857.16C670.087 857.16 676.414 854.439 677.936 880.924C677.936 880.924 688.592 924.822 649.395 937.52C649.395 937.52 616.666 941.148 608.294 910.673C608.294 910.673 601.063 895.435 612.48 875.845C612.48 875.845 637.502 846.459 670.087 857.16Z" fill="#EBEBEB" fill-opacity="0.24"/>
<path fill-rule="evenodd" clip-rule="evenodd" d="M78.7968 992.931C78.7968 992.931 65.2894 992.931 60.1917 1000.7C60.1917 1000.7 53.0553 1013.58 56.8788 1024.76C56.8788 1024.76 56.1142 1051 76.2484 1049.06C76.2484 1049.06 95.618 1049.3 97.6567 1022.33C97.6567 1022.33 96.6374 1000.95 78.7968 992.931Z" fill="#EBEBEB" fill-opacity="0.24"/>
<path fill-rule="evenodd" clip-rule="evenodd" d="M812.108 491.812C812.108 491.812 814.509 465.874 800.104 459.772C800.104 459.772 791.303 458.627 784.5 450.999C784.5 450.999 764.894 441.844 759.693 466.256C759.693 466.256 760.092 501.349 785.301 496.39C785.301 496.39 797.304 504.019 812.108 491.812Z" fill="#EBEBEB" fill-opacity="0.24"/>
<path fill-rule="evenodd" clip-rule="evenodd" d="M986.62 602.521C986.62 602.521 1004.68 555.352 976.411 547.116C976.411 547.116 955.206 521.66 932.43 533.64C932.43 533.64 909.655 565.834 931.644 584.551C931.644 584.551 973.269 623.485 986.62 602.521Z" fill="#EBEBEB" fill-opacity="0.24"/>
<path fill-rule="evenodd" clip-rule="evenodd" d="M1100.54 949.749C1100.54 949.749 1116.07 948.878 1111.05 933.638C1111.05 933.638 1111.05 914.042 1087.3 911.865C1087.3 911.865 1062.18 906.205 1070.4 930.59C1070.4 930.59 1084.56 947.137 1100.54 949.749Z" fill="#EBEBEB" fill-opacity="0.24"/>
<path fill-rule="evenodd" clip-rule="evenodd" d="M735.046 287.907C735.046 287.907 758.167 296.533 751.129 322.407C751.129 322.407 762.691 365.533 715.443 367.928C715.443 367.928 687.797 383.741 675.233 351.636C675.233 351.636 670.205 305.157 692.823 282.636C692.823 282.636 713.936 278.803 735.046 287.907Z" fill="#EBEBEB" fill-opacity="0.24"/>
<path fill-rule="evenodd" clip-rule="evenodd" d="M1652.29 258.521C1652.29 258.521 1653.22 227.184 1633.12 225.267C1633.12 225.267 1599.34 222.584 1591.3 242.517C1591.3 242.517 1580.84 268.584 1595.32 275.868C1595.32 275.868 1630.46 286.793 1652.29 258.521Z" fill="#EBEBEB" fill-opacity="0.24"/>
<path fill-rule="evenodd" clip-rule="evenodd" d="M1129.26 363.094C1129.26 363.094 1118.97 373.829 1100.63 369.229C1100.63 369.229 1080.36 363.402 1060.42 360.335C1060.42 360.335 1039.19 351.748 1044.66 330.895C1044.66 330.895 1058.49 310.654 1088.08 334.268C1088.08 334.268 1140.52 337.027 1129.26 363.094Z" fill="#EBEBEB" fill-opacity="0.24"/>
<path fill-rule="evenodd" clip-rule="evenodd" d="M77.7188 699.756C77.7188 699.756 73.7567 692.957 48.7933 716.376C48.7933 716.376 33.34 732.241 31.7552 742.818C31.7552 742.818 29.378 764.35 38.0958 770.016C38.0958 770.016 46.0198 777.948 58.3035 770.771C58.3035 770.771 86.4366 760.194 90.0024 717.511C90.0024 717.511 89.21 704.667 77.7188 699.756Z" fill="#EBEBEB" fill-opacity="0.24"/>
<path fill-rule="evenodd" clip-rule="evenodd" d="M1008.35 513.684C1008.35 513.684 996.8 492.635 956.14 488.464C956.14 488.464 936.581 496.314 935.808 506.373C935.808 506.373 938.897 516.922 964.632 524.037C964.632 524.037 975.183 527.473 987.536 537.285C987.536 537.285 1010.39 543.566 1008.35 513.684Z" fill="#EBEBEB" fill-opacity="0.24"/>
<path fill-rule="evenodd" clip-rule="evenodd" d="M1153.17 724.53C1153.17 724.53 1154.14 714.409 1130.01 727.289C1130.01 727.289 1093.98 733.423 1079.83 745.383C1079.83 745.383 1076.93 761.943 1072.11 770.836C1072.11 770.836 1071.78 791.077 1093.34 788.931C1093.34 788.931 1111.03 785.863 1118.11 770.53C1118.11 770.53 1150.6 750.903 1153.17 724.53Z" fill="#EBEBEB" fill-opacity="0.24"/>
<path fill-rule="evenodd" clip-rule="evenodd" d="M1139.43 1037.35C1139.43 1037.35 1144.87 1031.53 1123.62 1028.52C1123.62 1028.52 1098.14 1015.92 1083.57 1016.88C1083.57 1016.88 1073.84 1025.8 1066.57 1029.1C1066.57 1029.1 1056.7 1041.47 1071.21 1049.95C1071.21 1049.95 1083.75 1056.1 1095.51 1049.84C1095.51 1049.84 1125.22 1052.48 1139.43 1037.35Z" fill="#EBEBEB" fill-opacity="0.24"/>
<path fill-rule="evenodd" clip-rule="evenodd" d="M1287.58 452.759C1287.58 452.759 1271.17 442.409 1263.94 433.592C1263.94 433.592 1257.1 427.458 1249.86 438.576C1249.86 438.576 1245.77 447.187 1254.63 453.859C1254.63 453.859 1273.98 471.72 1282.01 470.935C1282.01 470.935 1293.15 467.752 1287.58 452.759Z" fill="#EBEBEB" fill-opacity="0.24"/>
<path fill-rule="evenodd" clip-rule="evenodd" d="M1807.42 396.124C1807.42 396.124 1798.55 390.888 1765.31 398.436C1765.31 398.436 1744.72 396.763 1735.68 410.674C1735.68 410.674 1727.91 431.004 1745.3 431.391C1745.3 431.391 1775.42 430.737 1803.05 417.446C1803.05 417.446 1817.27 406.772 1807.42 396.124Z" fill="#EBEBEB" fill-opacity="0.24"/>
<path fill-rule="evenodd" clip-rule="evenodd" d="M1077.34 584.364C1077.34 584.364 1096.9 577.004 1092.01 550.018C1092.01 550.018 1094.33 518.125 1067.56 527.937C1067.56 527.937 1027.42 532.844 1025.1 552.471C1025.1 552.471 1035.91 586.572 1050.58 589.761C1050.58 589.761 1058.81 592.46 1077.34 584.364Z" fill="#EBEBEB" fill-opacity="0.24"/>
<path fill-rule="evenodd" clip-rule="evenodd" d="M1124.14 571.735C1124.14 571.735 1141.96 547.986 1135.92 527.609C1135.92 527.609 1145.8 482.258 1131.3 472.345C1131.3 472.345 1111.18 469.948 1105.97 475.246C1105.97 475.246 1083.5 511.913 1097.81 536.16C1097.81 536.16 1101.13 570 1110.58 574.521C1110.58 574.521 1120.3 576.576 1124.14 571.735Z" fill="#EBEBEB" fill-opacity="0.24"/>
<path fill-rule="evenodd" clip-rule="evenodd" d="M1488.12 535.855C1488.12 535.855 1467.62 542.402 1457.12 516.253C1457.12 516.253 1445.76 499.027 1449.45 483.03C1449.45 483.03 1463.36 454.115 1480.69 488.261C1480.69 488.261 1503.78 529.002 1488.12 535.855Z" fill="#EBEBEB" fill-opacity="0.24"/>
</svg>
