<?xml version="1.0" encoding="UTF-8"?>
<svg id="Calque_1" data-name="Calque 1" xmlns="http://www.w3.org/2000/svg" viewBox="0 0 963.57 394.21">
  <defs>
    <style>
      .cls-1 {
        fill-rule: evenodd;
      }

      .cls-1, .cls-2 {
        stroke-width: 0px;
      }
    </style>
  </defs>
  <g>
    <path class="cls-2" d="m723.33,311.57c-15.77,0-29.95-3.49-42.57-10.49-12.61-7-22.52-16.9-29.71-29.71-7.19-12.81-10.79-27.59-10.79-44.34s3.69-31.53,11.08-44.34c7.39-12.81,17.49-22.72,30.3-29.71,12.81-6.99,27.1-10.49,42.86-10.49s30.06,3.5,42.87,10.49c12.8,7,22.91,16.9,30.29,29.71,7.39,12.8,11.09,27.59,11.09,44.34s-3.8,31.53-11.38,44.34c-7.59,12.81-17.84,22.71-30.74,29.71-12.91,7-27.34,10.49-43.3,10.49h0Zm0-36.06c7.49,0,14.53-1.82,21.14-5.46,6.6-3.65,11.87-9.12,15.81-16.41,3.94-7.29,5.91-16.16,5.91-26.61,0-15.57-4.09-27.54-12.27-35.91-8.18-8.38-18.18-12.57-30-12.57s-21.73,4.19-29.71,12.57c-7.98,8.38-11.97,20.34-11.97,35.91s3.89,27.54,11.68,35.92c7.78,8.37,17.59,12.56,29.41,12.56h0Z"/>
    <path class="cls-2" d="m748.23,173.63h228.92v46.96h-208.92c-11.04,0-20-8.96-20-20v-26.96h0Z" transform="translate(1059.79 -665.58) rotate(90)"/>
    <path class="cls-1" d="m586.13,82.65c-12.85,0-23.27,10.42-23.27,23.27v73.84h-77.23v-97.11h-23.69c-12.85,0-23.27,10.42-23.27,23.27v205.65h23.69c12.85,0,23.27-10.42,23.27-23.27v-61.58h77.23v84.85h23.69c12.85,0,23.27-10.42,23.27-23.27V82.65h-23.69Z"/>
    <path class="cls-2" d="m825.63,173.63h228.92v46.96h-208.92c-11.04,0-20-8.96-20-20v-26.96h0Z" transform="translate(1137.2 -742.99) rotate(90)"/>
  </g>
  <g>
    <path class="cls-1" d="m279.08,145.65l-73.38,53.79-23.78-32.44,73.38-53.79-14.01-19.11c-7.6-10.36-22.16-12.61-32.52-5.01L42.91,210.68l27.76,37.87,73.38-53.79,23.78,32.44-73.38,53.79,14.01,19.11c7.6,10.36,22.16,12.61,32.52,5.01l165.86-121.58-27.76-37.87Z"/>
    <path class="cls-2" d="m219.9,252.2h137.94v26.96c0,11.04-8.96,20-20,20h-117.94v-46.96h0Z" transform="translate(-107.09 224.12) rotate(-36.24)"/>
    <path class="cls-2" d="m11.9,95.06h117.94v46.96H-8.1v-26.96c0-11.04,8.96-20,20-20Z" transform="translate(-58.3 58.92) rotate(-36.24)"/>
  </g>
</svg>